<?xml version="1.0" encoding="utf-8" standalone="no"?>
<!DOCTYPE svg PUBLIC "-//W3C//DTD SVG 1.1//EN"
  "http://www.w3.org/Graphics/SVG/1.1/DTD/svg11.dtd">
<svg xmlns:xlink="http://www.w3.org/1999/xlink" width="855.55125pt" height="424.171683pt" viewBox="0 0 855.55125 424.171683" xmlns="http://www.w3.org/2000/svg" version="1.1">
 <metadata>
  <rdf:RDF xmlns:dc="http://purl.org/dc/elements/1.1/" xmlns:cc="http://creativecommons.org/ns#" xmlns:rdf="http://www.w3.org/1999/02/22-rdf-syntax-ns#">
   <cc:Work>
    <dc:type rdf:resource="http://purl.org/dc/dcmitype/StillImage"/>
    <dc:date>2025-10-23T00:06:42.340780</dc:date>
    <dc:format>image/svg+xml</dc:format>
    <dc:creator>
     <cc:Agent>
      <dc:title>Matplotlib v3.10.7, https://matplotlib.org/</dc:title>
     </cc:Agent>
    </dc:creator>
   </cc:Work>
  </rdf:RDF>
 </metadata>
 <defs>
  <style type="text/css">*{stroke-linejoin: round; stroke-linecap: butt}</style>
 </defs>
 <g id="figure_1">
  <g id="patch_1">
   <path d="M 0 424.171683 
L 855.55125 424.171683 
L 855.55125 0 
L 0 0 
z
" style="fill: #ffffff"/>
  </g>
  <g id="axes_1">
   <g id="patch_2">
    <path d="M 48.90125 346.420513 
L 848.35125 346.420513 
L 848.35125 25.3575 
L 48.90125 25.3575 
z
" style="fill: #f6f8fa"/>
   </g>
   <g id="FillBetweenPolyCollection_1">
    <defs>
     <path id="m9d22af3c7f" d="M 85.239886 -92.344944 
L 85.239886 -225.278324 
L 95.195677 -251.287029 
L 105.151468 -252.731957 
L 115.107259 -254.176885 
L 125.06305 -255.621813 
L 135.01884 -258.51167 
L 144.974631 -259.956598 
L 154.930422 -261.401526 
L 164.886213 -262.846454 
L 174.842003 -264.291382 
L 184.797794 -265.73631 
L 194.753585 -267.181238 
L 204.709376 -268.626166 
L 214.665167 -270.071094 
L 224.620957 -271.516022 
L 234.576748 -272.96095 
L 244.532539 -274.405878 
L 254.48833 -275.850806 
L 264.44412 -278.740662 
L 274.399911 -280.18559 
L 284.355702 -281.630518 
L 294.311493 -284.520375 
L 304.267284 -285.965303 
L 314.223074 -287.410231 
L 324.178865 -297.524727 
L 334.134656 -298.969655 
L 344.090447 -300.414583 
L 354.046238 -301.859511 
L 364.002028 -303.304439 
L 373.957819 -304.749367 
L 383.91361 -306.194295 
L 393.869401 -307.639223 
L 403.825191 -309.084151 
L 413.780982 -310.529079 
L 423.736773 -311.974007 
L 433.692564 -313.418936 
L 443.648355 -314.863864 
L 453.604145 -316.308792 
L 463.559936 -317.75372 
L 473.515727 -319.198648 
L 483.471518 -320.643576 
L 493.427309 -322.088504 
L 503.383099 -323.533432 
L 513.33889 -324.97836 
L 523.294681 -326.423288 
L 533.250472 -327.868216 
L 543.206262 -329.313144 
L 553.162053 -330.758072 
L 563.117844 -332.203 
L 573.073635 -335.092856 
L 583.029426 -336.537784 
L 592.985216 -337.982712 
L 602.941007 -339.42764 
L 612.896798 -340.872569 
L 622.852589 -342.317497 
L 632.80838 -343.762425 
L 642.76417 -345.207353 
L 652.719961 -346.652281 
L 662.675752 -348.097209 
L 672.631543 -349.542137 
L 682.587333 -359.656633 
L 692.543124 -361.101561 
L 702.498915 -362.546489 
L 712.454706 -363.991417 
L 722.410497 -365.436345 
L 732.366287 -366.881273 
L 742.322078 -368.326202 
L 752.277869 -375.550842 
L 762.23366 -376.99577 
L 772.18945 -378.440698 
L 782.145241 -379.885626 
L 792.101032 -381.330554 
L 802.056823 -382.775482 
L 812.012614 -384.22041 
L 812.012614 -92.344944 
L 812.012614 -92.344944 
L 802.056823 -92.344944 
L 792.101032 -92.344944 
L 782.145241 -92.344944 
L 772.18945 -92.344944 
L 762.23366 -92.344944 
L 752.277869 -92.344944 
L 742.322078 -92.344944 
L 732.366287 -92.344944 
L 722.410497 -92.344944 
L 712.454706 -92.344944 
L 702.498915 -92.344944 
L 692.543124 -92.344944 
L 682.587333 -92.344944 
L 672.631543 -92.344944 
L 662.675752 -92.344944 
L 652.719961 -92.344944 
L 642.76417 -92.344944 
L 632.80838 -92.344944 
L 622.852589 -92.344944 
L 612.896798 -92.344944 
L 602.941007 -92.344944 
L 592.985216 -92.344944 
L 583.029426 -92.344944 
L 573.073635 -92.344944 
L 563.117844 -92.344944 
L 553.162053 -92.344944 
L 543.206262 -92.344944 
L 533.250472 -92.344944 
L 523.294681 -92.344944 
L 513.33889 -92.344944 
L 503.383099 -92.344944 
L 493.427309 -92.344944 
L 483.471518 -92.344944 
L 473.515727 -92.344944 
L 463.559936 -92.344944 
L 453.604145 -92.344944 
L 443.648355 -92.344944 
L 433.692564 -92.344944 
L 423.736773 -92.344944 
L 413.780982 -92.344944 
L 403.825191 -92.344944 
L 393.869401 -92.344944 
L 383.91361 -92.344944 
L 373.957819 -92.344944 
L 364.002028 -92.344944 
L 354.046238 -92.344944 
L 344.090447 -92.344944 
L 334.134656 -92.344944 
L 324.178865 -92.344944 
L 314.223074 -92.344944 
L 304.267284 -92.344944 
L 294.311493 -92.344944 
L 284.355702 -92.344944 
L 274.399911 -92.344944 
L 264.44412 -92.344944 
L 254.48833 -92.344944 
L 244.532539 -92.344944 
L 234.576748 -92.344944 
L 224.620957 -92.344944 
L 214.665167 -92.344944 
L 204.709376 -92.344944 
L 194.753585 -92.344944 
L 184.797794 -92.344944 
L 174.842003 -92.344944 
L 164.886213 -92.344944 
L 154.930422 -92.344944 
L 144.974631 -92.344944 
L 135.01884 -92.344944 
L 125.06305 -92.344944 
L 115.107259 -92.344944 
L 105.151468 -92.344944 
L 95.195677 -92.344944 
L 85.239886 -92.344944 
z
" style="stroke: #0366d6; stroke-opacity: 0.1"/>
    </defs>
    <g clip-path="url(#pe2afd26e03)">
     <use xlink:href="#m9d22af3c7f" x="0" y="424.171683" style="fill: #0366d6; fill-opacity: 0.1; stroke: #0366d6; stroke-opacity: 0.1"/>
    </g>
   </g>
   <g id="matplotlib.axis_1">
    <g id="xtick_1">
     <g id="line2d_1">
      <path d="M 125.06305 346.420513 
L 125.06305 25.3575 
" clip-path="url(#pe2afd26e03)" style="fill: none; stroke-dasharray: 2.96,1.28; stroke-dashoffset: 0; stroke: #b0b0b0; stroke-opacity: 0.3; stroke-width: 0.8"/>
     </g>
     <g id="line2d_2">
      <defs>
       <path id="m5cfdb22f0d" d="M 0 0 
L 0 3.5 
" style="stroke: #000000; stroke-width: 0.8"/>
      </defs>
      <g>
       <use xlink:href="#m5cfdb22f0d" x="125.06305" y="346.420513" style="stroke: #000000; stroke-width: 0.8"/>
      </g>
     </g>
     <g id="text_1">
      <!-- 2025-08-15 -->
      <g transform="translate(82.498536 399.887372) rotate(-45) scale(0.1 -0.1)">
       <defs>
        <path id="DejaVuSans-32" d="M 1228 531 
L 3431 531 
L 3431 0 
L 469 0 
L 469 531 
Q 828 903 1448 1529 
Q 2069 2156 2228 2338 
Q 2531 2678 2651 2914 
Q 2772 3150 2772 3378 
Q 2772 3750 2511 3984 
Q 2250 4219 1831 4219 
Q 1534 4219 1204 4116 
Q 875 4013 500 3803 
L 500 4441 
Q 881 4594 1212 4672 
Q 1544 4750 1819 4750 
Q 2544 4750 2975 4387 
Q 3406 4025 3406 3419 
Q 3406 3131 3298 2873 
Q 3191 2616 2906 2266 
Q 2828 2175 2409 1742 
Q 1991 1309 1228 531 
z
" transform="scale(0.015625)"/>
        <path id="DejaVuSans-30" d="M 2034 4250 
Q 1547 4250 1301 3770 
Q 1056 3291 1056 2328 
Q 1056 1369 1301 889 
Q 1547 409 2034 409 
Q 2525 409 2770 889 
Q 3016 1369 3016 2328 
Q 3016 3291 2770 3770 
Q 2525 4250 2034 4250 
z
M 2034 4750 
Q 2819 4750 3233 4129 
Q 3647 3509 3647 2328 
Q 3647 1150 3233 529 
Q 2819 -91 2034 -91 
Q 1250 -91 836 529 
Q 422 1150 422 2328 
Q 422 3509 836 4129 
Q 1250 4750 2034 4750 
z
" transform="scale(0.015625)"/>
        <path id="DejaVuSans-35" d="M 691 4666 
L 3169 4666 
L 3169 4134 
L 1269 4134 
L 1269 2991 
Q 1406 3038 1543 3061 
Q 1681 3084 1819 3084 
Q 2600 3084 3056 2656 
Q 3513 2228 3513 1497 
Q 3513 744 3044 326 
Q 2575 -91 1722 -91 
Q 1428 -91 1123 -41 
Q 819 9 494 109 
L 494 744 
Q 775 591 1075 516 
Q 1375 441 1709 441 
Q 2250 441 2565 725 
Q 2881 1009 2881 1497 
Q 2881 1984 2565 2268 
Q 2250 2553 1709 2553 
Q 1456 2553 1204 2497 
Q 953 2441 691 2322 
L 691 4666 
z
" transform="scale(0.015625)"/>
        <path id="DejaVuSans-2d" d="M 313 2009 
L 1997 2009 
L 1997 1497 
L 313 1497 
L 313 2009 
z
" transform="scale(0.015625)"/>
        <path id="DejaVuSans-38" d="M 2034 2216 
Q 1584 2216 1326 1975 
Q 1069 1734 1069 1313 
Q 1069 891 1326 650 
Q 1584 409 2034 409 
Q 2484 409 2743 651 
Q 3003 894 3003 1313 
Q 3003 1734 2745 1975 
Q 2488 2216 2034 2216 
z
M 1403 2484 
Q 997 2584 770 2862 
Q 544 3141 544 3541 
Q 544 4100 942 4425 
Q 1341 4750 2034 4750 
Q 2731 4750 3128 4425 
Q 3525 4100 3525 3541 
Q 3525 3141 3298 2862 
Q 3072 2584 2669 2484 
Q 3125 2378 3379 2068 
Q 3634 1759 3634 1313 
Q 3634 634 3220 271 
Q 2806 -91 2034 -91 
Q 1263 -91 848 271 
Q 434 634 434 1313 
Q 434 1759 690 2068 
Q 947 2378 1403 2484 
z
M 1172 3481 
Q 1172 3119 1398 2916 
Q 1625 2713 2034 2713 
Q 2441 2713 2670 2916 
Q 2900 3119 2900 3481 
Q 2900 3844 2670 4047 
Q 2441 4250 2034 4250 
Q 1625 4250 1398 4047 
Q 1172 3844 1172 3481 
z
" transform="scale(0.015625)"/>
        <path id="DejaVuSans-31" d="M 794 531 
L 1825 531 
L 1825 4091 
L 703 3866 
L 703 4441 
L 1819 4666 
L 2450 4666 
L 2450 531 
L 3481 531 
L 3481 0 
L 794 0 
L 794 531 
z
" transform="scale(0.015625)"/>
       </defs>
       <use xlink:href="#DejaVuSans-32"/>
       <use xlink:href="#DejaVuSans-30" transform="translate(63.623047 0)"/>
       <use xlink:href="#DejaVuSans-32" transform="translate(127.246094 0)"/>
       <use xlink:href="#DejaVuSans-35" transform="translate(190.869141 0)"/>
       <use xlink:href="#DejaVuSans-2d" transform="translate(254.492188 0)"/>
       <use xlink:href="#DejaVuSans-30" transform="translate(290.576172 0)"/>
       <use xlink:href="#DejaVuSans-38" transform="translate(354.199219 0)"/>
       <use xlink:href="#DejaVuSans-2d" transform="translate(417.822266 0)"/>
       <use xlink:href="#DejaVuSans-31" transform="translate(453.90625 0)"/>
       <use xlink:href="#DejaVuSans-35" transform="translate(517.529297 0)"/>
      </g>
     </g>
    </g>
    <g id="xtick_2">
     <g id="line2d_3">
      <path d="M 294.311493 346.420513 
L 294.311493 25.3575 
" clip-path="url(#pe2afd26e03)" style="fill: none; stroke-dasharray: 2.96,1.28; stroke-dashoffset: 0; stroke: #b0b0b0; stroke-opacity: 0.3; stroke-width: 0.8"/>
     </g>
     <g id="line2d_4">
      <g>
       <use xlink:href="#m5cfdb22f0d" x="294.311493" y="346.420513" style="stroke: #000000; stroke-width: 0.8"/>
      </g>
     </g>
     <g id="text_2">
      <!-- 2025-09-01 -->
      <g transform="translate(251.746979 399.887372) rotate(-45) scale(0.1 -0.1)">
       <defs>
        <path id="DejaVuSans-39" d="M 703 97 
L 703 672 
Q 941 559 1184 500 
Q 1428 441 1663 441 
Q 2288 441 2617 861 
Q 2947 1281 2994 2138 
Q 2813 1869 2534 1725 
Q 2256 1581 1919 1581 
Q 1219 1581 811 2004 
Q 403 2428 403 3163 
Q 403 3881 828 4315 
Q 1253 4750 1959 4750 
Q 2769 4750 3195 4129 
Q 3622 3509 3622 2328 
Q 3622 1225 3098 567 
Q 2575 -91 1691 -91 
Q 1453 -91 1209 -44 
Q 966 3 703 97 
z
M 1959 2075 
Q 2384 2075 2632 2365 
Q 2881 2656 2881 3163 
Q 2881 3666 2632 3958 
Q 2384 4250 1959 4250 
Q 1534 4250 1286 3958 
Q 1038 3666 1038 3163 
Q 1038 2656 1286 2365 
Q 1534 2075 1959 2075 
z
" transform="scale(0.015625)"/>
       </defs>
       <use xlink:href="#DejaVuSans-32"/>
       <use xlink:href="#DejaVuSans-30" transform="translate(63.623047 0)"/>
       <use xlink:href="#DejaVuSans-32" transform="translate(127.246094 0)"/>
       <use xlink:href="#DejaVuSans-35" transform="translate(190.869141 0)"/>
       <use xlink:href="#DejaVuSans-2d" transform="translate(254.492188 0)"/>
       <use xlink:href="#DejaVuSans-30" transform="translate(290.576172 0)"/>
       <use xlink:href="#DejaVuSans-39" transform="translate(354.199219 0)"/>
       <use xlink:href="#DejaVuSans-2d" transform="translate(417.822266 0)"/>
       <use xlink:href="#DejaVuSans-30" transform="translate(453.90625 0)"/>
       <use xlink:href="#DejaVuSans-31" transform="translate(517.529297 0)"/>
      </g>
     </g>
    </g>
    <g id="xtick_3">
     <g id="line2d_5">
      <path d="M 433.692564 346.420513 
L 433.692564 25.3575 
" clip-path="url(#pe2afd26e03)" style="fill: none; stroke-dasharray: 2.96,1.28; stroke-dashoffset: 0; stroke: #b0b0b0; stroke-opacity: 0.3; stroke-width: 0.8"/>
     </g>
     <g id="line2d_6">
      <g>
       <use xlink:href="#m5cfdb22f0d" x="433.692564" y="346.420513" style="stroke: #000000; stroke-width: 0.8"/>
      </g>
     </g>
     <g id="text_3">
      <!-- 2025-09-15 -->
      <g transform="translate(391.12805 399.887372) rotate(-45) scale(0.1 -0.1)">
       <use xlink:href="#DejaVuSans-32"/>
       <use xlink:href="#DejaVuSans-30" transform="translate(63.623047 0)"/>
       <use xlink:href="#DejaVuSans-32" transform="translate(127.246094 0)"/>
       <use xlink:href="#DejaVuSans-35" transform="translate(190.869141 0)"/>
       <use xlink:href="#DejaVuSans-2d" transform="translate(254.492188 0)"/>
       <use xlink:href="#DejaVuSans-30" transform="translate(290.576172 0)"/>
       <use xlink:href="#DejaVuSans-39" transform="translate(354.199219 0)"/>
       <use xlink:href="#DejaVuSans-2d" transform="translate(417.822266 0)"/>
       <use xlink:href="#DejaVuSans-31" transform="translate(453.90625 0)"/>
       <use xlink:href="#DejaVuSans-35" transform="translate(517.529297 0)"/>
      </g>
     </g>
    </g>
    <g id="xtick_4">
     <g id="line2d_7">
      <path d="M 592.985216 346.420513 
L 592.985216 25.3575 
" clip-path="url(#pe2afd26e03)" style="fill: none; stroke-dasharray: 2.96,1.28; stroke-dashoffset: 0; stroke: #b0b0b0; stroke-opacity: 0.3; stroke-width: 0.8"/>
     </g>
     <g id="line2d_8">
      <g>
       <use xlink:href="#m5cfdb22f0d" x="592.985216" y="346.420513" style="stroke: #000000; stroke-width: 0.8"/>
      </g>
     </g>
     <g id="text_4">
      <!-- 2025-10-01 -->
      <g transform="translate(550.420703 399.887372) rotate(-45) scale(0.1 -0.1)">
       <use xlink:href="#DejaVuSans-32"/>
       <use xlink:href="#DejaVuSans-30" transform="translate(63.623047 0)"/>
       <use xlink:href="#DejaVuSans-32" transform="translate(127.246094 0)"/>
       <use xlink:href="#DejaVuSans-35" transform="translate(190.869141 0)"/>
       <use xlink:href="#DejaVuSans-2d" transform="translate(254.492188 0)"/>
       <use xlink:href="#DejaVuSans-31" transform="translate(290.576172 0)"/>
       <use xlink:href="#DejaVuSans-30" transform="translate(354.199219 0)"/>
       <use xlink:href="#DejaVuSans-2d" transform="translate(417.822266 0)"/>
       <use xlink:href="#DejaVuSans-30" transform="translate(453.90625 0)"/>
       <use xlink:href="#DejaVuSans-31" transform="translate(517.529297 0)"/>
      </g>
     </g>
    </g>
    <g id="xtick_5">
     <g id="line2d_9">
      <path d="M 732.366287 346.420513 
L 732.366287 25.3575 
" clip-path="url(#pe2afd26e03)" style="fill: none; stroke-dasharray: 2.96,1.28; stroke-dashoffset: 0; stroke: #b0b0b0; stroke-opacity: 0.3; stroke-width: 0.8"/>
     </g>
     <g id="line2d_10">
      <g>
       <use xlink:href="#m5cfdb22f0d" x="732.366287" y="346.420513" style="stroke: #000000; stroke-width: 0.8"/>
      </g>
     </g>
     <g id="text_5">
      <!-- 2025-10-15 -->
      <g transform="translate(689.801774 399.887372) rotate(-45) scale(0.1 -0.1)">
       <use xlink:href="#DejaVuSans-32"/>
       <use xlink:href="#DejaVuSans-30" transform="translate(63.623047 0)"/>
       <use xlink:href="#DejaVuSans-32" transform="translate(127.246094 0)"/>
       <use xlink:href="#DejaVuSans-35" transform="translate(190.869141 0)"/>
       <use xlink:href="#DejaVuSans-2d" transform="translate(254.492188 0)"/>
       <use xlink:href="#DejaVuSans-31" transform="translate(290.576172 0)"/>
       <use xlink:href="#DejaVuSans-30" transform="translate(354.199219 0)"/>
       <use xlink:href="#DejaVuSans-2d" transform="translate(417.822266 0)"/>
       <use xlink:href="#DejaVuSans-31" transform="translate(453.90625 0)"/>
       <use xlink:href="#DejaVuSans-35" transform="translate(517.529297 0)"/>
      </g>
     </g>
    </g>
    <g id="text_6">
     <!-- Date -->
     <g transform="translate(434.285312 414.476058) scale(0.12 -0.12)">
      <defs>
       <path id="DejaVuSans-44" d="M 1259 4147 
L 1259 519 
L 2022 519 
Q 2988 519 3436 956 
Q 3884 1394 3884 2338 
Q 3884 3275 3436 3711 
Q 2988 4147 2022 4147 
L 1259 4147 
z
M 628 4666 
L 1925 4666 
Q 3281 4666 3915 4102 
Q 4550 3538 4550 2338 
Q 4550 1131 3912 565 
Q 3275 0 1925 0 
L 628 0 
L 628 4666 
z
" transform="scale(0.015625)"/>
       <path id="DejaVuSans-61" d="M 2194 1759 
Q 1497 1759 1228 1600 
Q 959 1441 959 1056 
Q 959 750 1161 570 
Q 1363 391 1709 391 
Q 2188 391 2477 730 
Q 2766 1069 2766 1631 
L 2766 1759 
L 2194 1759 
z
M 3341 1997 
L 3341 0 
L 2766 0 
L 2766 531 
Q 2569 213 2275 61 
Q 1981 -91 1556 -91 
Q 1019 -91 701 211 
Q 384 513 384 1019 
Q 384 1609 779 1909 
Q 1175 2209 1959 2209 
L 2766 2209 
L 2766 2266 
Q 2766 2663 2505 2880 
Q 2244 3097 1772 3097 
Q 1472 3097 1187 3025 
Q 903 2953 641 2809 
L 641 3341 
Q 956 3463 1253 3523 
Q 1550 3584 1831 3584 
Q 2591 3584 2966 3190 
Q 3341 2797 3341 1997 
z
" transform="scale(0.015625)"/>
       <path id="DejaVuSans-74" d="M 1172 4494 
L 1172 3500 
L 2356 3500 
L 2356 3053 
L 1172 3053 
L 1172 1153 
Q 1172 725 1289 603 
Q 1406 481 1766 481 
L 2356 481 
L 2356 0 
L 1766 0 
Q 1100 0 847 248 
Q 594 497 594 1153 
L 594 3053 
L 172 3053 
L 172 3500 
L 594 3500 
L 594 4494 
L 1172 4494 
z
" transform="scale(0.015625)"/>
       <path id="DejaVuSans-65" d="M 3597 1894 
L 3597 1613 
L 953 1613 
Q 991 1019 1311 708 
Q 1631 397 2203 397 
Q 2534 397 2845 478 
Q 3156 559 3463 722 
L 3463 178 
Q 3153 47 2828 -22 
Q 2503 -91 2169 -91 
Q 1331 -91 842 396 
Q 353 884 353 1716 
Q 353 2575 817 3079 
Q 1281 3584 2069 3584 
Q 2775 3584 3186 3129 
Q 3597 2675 3597 1894 
z
M 3022 2063 
Q 3016 2534 2758 2815 
Q 2500 3097 2075 3097 
Q 1594 3097 1305 2825 
Q 1016 2553 972 2059 
L 3022 2063 
z
" transform="scale(0.015625)"/>
      </defs>
      <use xlink:href="#DejaVuSans-44"/>
      <use xlink:href="#DejaVuSans-61" transform="translate(77.001953 0)"/>
      <use xlink:href="#DejaVuSans-74" transform="translate(138.28125 0)"/>
      <use xlink:href="#DejaVuSans-65" transform="translate(177.490234 0)"/>
     </g>
    </g>
   </g>
   <g id="matplotlib.axis_2">
    <g id="ytick_1">
     <g id="line2d_11">
      <path d="M 48.90125 331.82674 
L 848.35125 331.82674 
" clip-path="url(#pe2afd26e03)" style="fill: none; stroke-dasharray: 2.96,1.28; stroke-dashoffset: 0; stroke: #b0b0b0; stroke-opacity: 0.3; stroke-width: 0.8"/>
     </g>
     <g id="line2d_12">
      <defs>
       <path id="m1f3f6aaaa0" d="M 0 0 
L -3.5 0 
" style="stroke: #000000; stroke-width: 0.8"/>
      </defs>
      <g>
       <use xlink:href="#m1f3f6aaaa0" x="48.90125" y="331.82674" style="stroke: #000000; stroke-width: 0.8"/>
      </g>
     </g>
     <g id="text_7">
      <!-- 0 -->
      <g transform="translate(35.53875 335.625958) scale(0.1 -0.1)">
       <use xlink:href="#DejaVuSans-30"/>
      </g>
     </g>
    </g>
    <g id="ytick_2">
     <g id="line2d_13">
      <path d="M 48.90125 295.703538 
L 848.35125 295.703538 
" clip-path="url(#pe2afd26e03)" style="fill: none; stroke-dasharray: 2.96,1.28; stroke-dashoffset: 0; stroke: #b0b0b0; stroke-opacity: 0.3; stroke-width: 0.8"/>
     </g>
     <g id="line2d_14">
      <g>
       <use xlink:href="#m1f3f6aaaa0" x="48.90125" y="295.703538" style="stroke: #000000; stroke-width: 0.8"/>
      </g>
     </g>
     <g id="text_8">
      <!-- 25 -->
      <g transform="translate(29.17625 299.502757) scale(0.1 -0.1)">
       <use xlink:href="#DejaVuSans-32"/>
       <use xlink:href="#DejaVuSans-35" transform="translate(63.623047 0)"/>
      </g>
     </g>
    </g>
    <g id="ytick_3">
     <g id="line2d_15">
      <path d="M 48.90125 259.580337 
L 848.35125 259.580337 
" clip-path="url(#pe2afd26e03)" style="fill: none; stroke-dasharray: 2.96,1.28; stroke-dashoffset: 0; stroke: #b0b0b0; stroke-opacity: 0.3; stroke-width: 0.8"/>
     </g>
     <g id="line2d_16">
      <g>
       <use xlink:href="#m1f3f6aaaa0" x="48.90125" y="259.580337" style="stroke: #000000; stroke-width: 0.8"/>
      </g>
     </g>
     <g id="text_9">
      <!-- 50 -->
      <g transform="translate(29.17625 263.379556) scale(0.1 -0.1)">
       <use xlink:href="#DejaVuSans-35"/>
       <use xlink:href="#DejaVuSans-30" transform="translate(63.623047 0)"/>
      </g>
     </g>
    </g>
    <g id="ytick_4">
     <g id="line2d_17">
      <path d="M 48.90125 223.457136 
L 848.35125 223.457136 
" clip-path="url(#pe2afd26e03)" style="fill: none; stroke-dasharray: 2.96,1.28; stroke-dashoffset: 0; stroke: #b0b0b0; stroke-opacity: 0.3; stroke-width: 0.8"/>
     </g>
     <g id="line2d_18">
      <g>
       <use xlink:href="#m1f3f6aaaa0" x="48.90125" y="223.457136" style="stroke: #000000; stroke-width: 0.8"/>
      </g>
     </g>
     <g id="text_10">
      <!-- 75 -->
      <g transform="translate(29.17625 227.256355) scale(0.1 -0.1)">
       <defs>
        <path id="DejaVuSans-37" d="M 525 4666 
L 3525 4666 
L 3525 4397 
L 1831 0 
L 1172 0 
L 2766 4134 
L 525 4134 
L 525 4666 
z
" transform="scale(0.015625)"/>
       </defs>
       <use xlink:href="#DejaVuSans-37"/>
       <use xlink:href="#DejaVuSans-35" transform="translate(63.623047 0)"/>
      </g>
     </g>
    </g>
    <g id="ytick_5">
     <g id="line2d_19">
      <path d="M 48.90125 187.333935 
L 848.35125 187.333935 
" clip-path="url(#pe2afd26e03)" style="fill: none; stroke-dasharray: 2.96,1.28; stroke-dashoffset: 0; stroke: #b0b0b0; stroke-opacity: 0.3; stroke-width: 0.8"/>
     </g>
     <g id="line2d_20">
      <g>
       <use xlink:href="#m1f3f6aaaa0" x="48.90125" y="187.333935" style="stroke: #000000; stroke-width: 0.8"/>
      </g>
     </g>
     <g id="text_11">
      <!-- 100 -->
      <g transform="translate(22.81375 191.133153) scale(0.1 -0.1)">
       <use xlink:href="#DejaVuSans-31"/>
       <use xlink:href="#DejaVuSans-30" transform="translate(63.623047 0)"/>
       <use xlink:href="#DejaVuSans-30" transform="translate(127.246094 0)"/>
      </g>
     </g>
    </g>
    <g id="ytick_6">
     <g id="line2d_21">
      <path d="M 48.90125 151.210733 
L 848.35125 151.210733 
" clip-path="url(#pe2afd26e03)" style="fill: none; stroke-dasharray: 2.96,1.28; stroke-dashoffset: 0; stroke: #b0b0b0; stroke-opacity: 0.3; stroke-width: 0.8"/>
     </g>
     <g id="line2d_22">
      <g>
       <use xlink:href="#m1f3f6aaaa0" x="48.90125" y="151.210733" style="stroke: #000000; stroke-width: 0.8"/>
      </g>
     </g>
     <g id="text_12">
      <!-- 125 -->
      <g transform="translate(22.81375 155.009952) scale(0.1 -0.1)">
       <use xlink:href="#DejaVuSans-31"/>
       <use xlink:href="#DejaVuSans-32" transform="translate(63.623047 0)"/>
       <use xlink:href="#DejaVuSans-35" transform="translate(127.246094 0)"/>
      </g>
     </g>
    </g>
    <g id="ytick_7">
     <g id="line2d_23">
      <path d="M 48.90125 115.087532 
L 848.35125 115.087532 
" clip-path="url(#pe2afd26e03)" style="fill: none; stroke-dasharray: 2.96,1.28; stroke-dashoffset: 0; stroke: #b0b0b0; stroke-opacity: 0.3; stroke-width: 0.8"/>
     </g>
     <g id="line2d_24">
      <g>
       <use xlink:href="#m1f3f6aaaa0" x="48.90125" y="115.087532" style="stroke: #000000; stroke-width: 0.8"/>
      </g>
     </g>
     <g id="text_13">
      <!-- 150 -->
      <g transform="translate(22.81375 118.886751) scale(0.1 -0.1)">
       <use xlink:href="#DejaVuSans-31"/>
       <use xlink:href="#DejaVuSans-35" transform="translate(63.623047 0)"/>
       <use xlink:href="#DejaVuSans-30" transform="translate(127.246094 0)"/>
      </g>
     </g>
    </g>
    <g id="ytick_8">
     <g id="line2d_25">
      <path d="M 48.90125 78.964331 
L 848.35125 78.964331 
" clip-path="url(#pe2afd26e03)" style="fill: none; stroke-dasharray: 2.96,1.28; stroke-dashoffset: 0; stroke: #b0b0b0; stroke-opacity: 0.3; stroke-width: 0.8"/>
     </g>
     <g id="line2d_26">
      <g>
       <use xlink:href="#m1f3f6aaaa0" x="48.90125" y="78.964331" style="stroke: #000000; stroke-width: 0.8"/>
      </g>
     </g>
     <g id="text_14">
      <!-- 175 -->
      <g transform="translate(22.81375 82.763549) scale(0.1 -0.1)">
       <use xlink:href="#DejaVuSans-31"/>
       <use xlink:href="#DejaVuSans-37" transform="translate(63.623047 0)"/>
       <use xlink:href="#DejaVuSans-35" transform="translate(127.246094 0)"/>
      </g>
     </g>
    </g>
    <g id="ytick_9">
     <g id="line2d_27">
      <path d="M 48.90125 42.841129 
L 848.35125 42.841129 
" clip-path="url(#pe2afd26e03)" style="fill: none; stroke-dasharray: 2.96,1.28; stroke-dashoffset: 0; stroke: #b0b0b0; stroke-opacity: 0.3; stroke-width: 0.8"/>
     </g>
     <g id="line2d_28">
      <g>
       <use xlink:href="#m1f3f6aaaa0" x="48.90125" y="42.841129" style="stroke: #000000; stroke-width: 0.8"/>
      </g>
     </g>
     <g id="text_15">
      <!-- 200 -->
      <g transform="translate(22.81375 46.640348) scale(0.1 -0.1)">
       <use xlink:href="#DejaVuSans-32"/>
       <use xlink:href="#DejaVuSans-30" transform="translate(63.623047 0)"/>
       <use xlink:href="#DejaVuSans-30" transform="translate(127.246094 0)"/>
      </g>
     </g>
    </g>
    <g id="text_16">
     <!-- Total Downloads -->
     <g transform="translate(16.318125 234.758069) rotate(-90) scale(0.12 -0.12)">
      <defs>
       <path id="DejaVuSans-54" d="M -19 4666 
L 3928 4666 
L 3928 4134 
L 2272 4134 
L 2272 0 
L 1638 0 
L 1638 4134 
L -19 4134 
L -19 4666 
z
" transform="scale(0.015625)"/>
       <path id="DejaVuSans-6f" d="M 1959 3097 
Q 1497 3097 1228 2736 
Q 959 2375 959 1747 
Q 959 1119 1226 758 
Q 1494 397 1959 397 
Q 2419 397 2687 759 
Q 2956 1122 2956 1747 
Q 2956 2369 2687 2733 
Q 2419 3097 1959 3097 
z
M 1959 3584 
Q 2709 3584 3137 3096 
Q 3566 2609 3566 1747 
Q 3566 888 3137 398 
Q 2709 -91 1959 -91 
Q 1206 -91 779 398 
Q 353 888 353 1747 
Q 353 2609 779 3096 
Q 1206 3584 1959 3584 
z
" transform="scale(0.015625)"/>
       <path id="DejaVuSans-6c" d="M 603 4863 
L 1178 4863 
L 1178 0 
L 603 0 
L 603 4863 
z
" transform="scale(0.015625)"/>
       <path id="DejaVuSans-20" transform="scale(0.015625)"/>
       <path id="DejaVuSans-77" d="M 269 3500 
L 844 3500 
L 1563 769 
L 2278 3500 
L 2956 3500 
L 3675 769 
L 4391 3500 
L 4966 3500 
L 4050 0 
L 3372 0 
L 2619 2869 
L 1863 0 
L 1184 0 
L 269 3500 
z
" transform="scale(0.015625)"/>
       <path id="DejaVuSans-6e" d="M 3513 2113 
L 3513 0 
L 2938 0 
L 2938 2094 
Q 2938 2591 2744 2837 
Q 2550 3084 2163 3084 
Q 1697 3084 1428 2787 
Q 1159 2491 1159 1978 
L 1159 0 
L 581 0 
L 581 3500 
L 1159 3500 
L 1159 2956 
Q 1366 3272 1645 3428 
Q 1925 3584 2291 3584 
Q 2894 3584 3203 3211 
Q 3513 2838 3513 2113 
z
" transform="scale(0.015625)"/>
       <path id="DejaVuSans-64" d="M 2906 2969 
L 2906 4863 
L 3481 4863 
L 3481 0 
L 2906 0 
L 2906 525 
Q 2725 213 2448 61 
Q 2172 -91 1784 -91 
Q 1150 -91 751 415 
Q 353 922 353 1747 
Q 353 2572 751 3078 
Q 1150 3584 1784 3584 
Q 2172 3584 2448 3432 
Q 2725 3281 2906 2969 
z
M 947 1747 
Q 947 1113 1208 752 
Q 1469 391 1925 391 
Q 2381 391 2643 752 
Q 2906 1113 2906 1747 
Q 2906 2381 2643 2742 
Q 2381 3103 1925 3103 
Q 1469 3103 1208 2742 
Q 947 2381 947 1747 
z
" transform="scale(0.015625)"/>
       <path id="DejaVuSans-73" d="M 2834 3397 
L 2834 2853 
Q 2591 2978 2328 3040 
Q 2066 3103 1784 3103 
Q 1356 3103 1142 2972 
Q 928 2841 928 2578 
Q 928 2378 1081 2264 
Q 1234 2150 1697 2047 
L 1894 2003 
Q 2506 1872 2764 1633 
Q 3022 1394 3022 966 
Q 3022 478 2636 193 
Q 2250 -91 1575 -91 
Q 1294 -91 989 -36 
Q 684 19 347 128 
L 347 722 
Q 666 556 975 473 
Q 1284 391 1588 391 
Q 1994 391 2212 530 
Q 2431 669 2431 922 
Q 2431 1156 2273 1281 
Q 2116 1406 1581 1522 
L 1381 1569 
Q 847 1681 609 1914 
Q 372 2147 372 2553 
Q 372 3047 722 3315 
Q 1072 3584 1716 3584 
Q 2034 3584 2315 3537 
Q 2597 3491 2834 3397 
z
" transform="scale(0.015625)"/>
      </defs>
      <use xlink:href="#DejaVuSans-54"/>
      <use xlink:href="#DejaVuSans-6f" transform="translate(44.083984 0)"/>
      <use xlink:href="#DejaVuSans-74" transform="translate(105.265625 0)"/>
      <use xlink:href="#DejaVuSans-61" transform="translate(144.474609 0)"/>
      <use xlink:href="#DejaVuSans-6c" transform="translate(205.753906 0)"/>
      <use xlink:href="#DejaVuSans-20" transform="translate(233.537109 0)"/>
      <use xlink:href="#DejaVuSans-44" transform="translate(265.324219 0)"/>
      <use xlink:href="#DejaVuSans-6f" transform="translate(342.326172 0)"/>
      <use xlink:href="#DejaVuSans-77" transform="translate(403.507812 0)"/>
      <use xlink:href="#DejaVuSans-6e" transform="translate(485.294922 0)"/>
      <use xlink:href="#DejaVuSans-6c" transform="translate(548.673828 0)"/>
      <use xlink:href="#DejaVuSans-6f" transform="translate(576.457031 0)"/>
      <use xlink:href="#DejaVuSans-61" transform="translate(637.638672 0)"/>
      <use xlink:href="#DejaVuSans-64" transform="translate(698.917969 0)"/>
      <use xlink:href="#DejaVuSans-73" transform="translate(762.394531 0)"/>
     </g>
    </g>
   </g>
   <g id="line2d_29">
    <path d="M 85.239886 198.893359 
L 95.195677 172.884654 
L 105.151468 171.439726 
L 115.107259 169.994798 
L 125.06305 168.54987 
L 135.01884 165.660014 
L 144.974631 164.215086 
L 154.930422 162.770158 
L 164.886213 161.32523 
L 174.842003 159.880302 
L 184.797794 158.435374 
L 194.753585 156.990445 
L 204.709376 155.545517 
L 214.665167 154.100589 
L 224.620957 152.655661 
L 234.576748 151.210733 
L 244.532539 149.765805 
L 254.48833 148.320877 
L 264.44412 145.431021 
L 274.399911 143.986093 
L 284.355702 142.541165 
L 294.311493 139.651309 
L 304.267284 138.206381 
L 314.223074 136.761453 
L 324.178865 126.646956 
L 334.134656 125.202028 
L 344.090447 123.7571 
L 354.046238 122.312172 
L 364.002028 120.867244 
L 373.957819 119.422316 
L 383.91361 117.977388 
L 393.869401 116.53246 
L 403.825191 115.087532 
L 413.780982 113.642604 
L 423.736773 112.197676 
L 433.692564 110.752748 
L 443.648355 109.30782 
L 453.604145 107.862892 
L 463.559936 106.417964 
L 473.515727 104.973036 
L 483.471518 103.528108 
L 493.427309 102.08318 
L 503.383099 100.638251 
L 513.33889 99.193323 
L 523.294681 97.748395 
L 533.250472 96.303467 
L 543.206262 94.858539 
L 553.162053 93.413611 
L 563.117844 91.968683 
L 573.073635 89.078827 
L 583.029426 87.633899 
L 592.985216 86.188971 
L 602.941007 84.744043 
L 612.896798 83.299115 
L 622.852589 81.854187 
L 632.80838 80.409259 
L 642.76417 78.964331 
L 652.719961 77.519403 
L 662.675752 76.074475 
L 672.631543 74.629547 
L 682.587333 64.51505 
L 692.543124 63.070122 
L 702.498915 61.625194 
L 712.454706 60.180266 
L 722.410497 58.735338 
L 732.366287 57.29041 
L 742.322078 55.845482 
L 752.277869 48.620842 
L 762.23366 47.175914 
L 772.18945 45.730986 
L 782.145241 44.286057 
L 792.101032 42.841129 
L 802.056823 41.396201 
L 812.012614 39.951273 
" clip-path="url(#pe2afd26e03)" style="fill: none; stroke: #0366d6; stroke-width: 2; stroke-linecap: square"/>
    <defs>
     <path id="mf2e7f1c06b" d="M 0 3 
C 0.795609 3 1.55874 2.683901 2.12132 2.12132 
C 2.683901 1.55874 3 0.795609 3 0 
C 3 -0.795609 2.683901 -1.55874 2.12132 -2.12132 
C 1.55874 -2.683901 0.795609 -3 0 -3 
C -0.795609 -3 -1.55874 -2.683901 -2.12132 -2.12132 
C -2.683901 -1.55874 -3 -0.795609 -3 0 
C -3 0.795609 -2.683901 1.55874 -2.12132 2.12132 
C -1.55874 2.683901 -0.795609 3 0 3 
z
" style="stroke: #ffffff; stroke-width: 1.5"/>
    </defs>
    <g clip-path="url(#pe2afd26e03)">
     <use xlink:href="#mf2e7f1c06b" x="85.239886" y="198.893359" style="fill: #0366d6; stroke: #ffffff; stroke-width: 1.5"/>
     <use xlink:href="#mf2e7f1c06b" x="95.195677" y="172.884654" style="fill: #0366d6; stroke: #ffffff; stroke-width: 1.5"/>
     <use xlink:href="#mf2e7f1c06b" x="105.151468" y="171.439726" style="fill: #0366d6; stroke: #ffffff; stroke-width: 1.5"/>
     <use xlink:href="#mf2e7f1c06b" x="115.107259" y="169.994798" style="fill: #0366d6; stroke: #ffffff; stroke-width: 1.5"/>
     <use xlink:href="#mf2e7f1c06b" x="125.06305" y="168.54987" style="fill: #0366d6; stroke: #ffffff; stroke-width: 1.5"/>
     <use xlink:href="#mf2e7f1c06b" x="135.01884" y="165.660014" style="fill: #0366d6; stroke: #ffffff; stroke-width: 1.5"/>
     <use xlink:href="#mf2e7f1c06b" x="144.974631" y="164.215086" style="fill: #0366d6; stroke: #ffffff; stroke-width: 1.5"/>
     <use xlink:href="#mf2e7f1c06b" x="154.930422" y="162.770158" style="fill: #0366d6; stroke: #ffffff; stroke-width: 1.5"/>
     <use xlink:href="#mf2e7f1c06b" x="164.886213" y="161.32523" style="fill: #0366d6; stroke: #ffffff; stroke-width: 1.5"/>
     <use xlink:href="#mf2e7f1c06b" x="174.842003" y="159.880302" style="fill: #0366d6; stroke: #ffffff; stroke-width: 1.5"/>
     <use xlink:href="#mf2e7f1c06b" x="184.797794" y="158.435374" style="fill: #0366d6; stroke: #ffffff; stroke-width: 1.5"/>
     <use xlink:href="#mf2e7f1c06b" x="194.753585" y="156.990445" style="fill: #0366d6; stroke: #ffffff; stroke-width: 1.5"/>
     <use xlink:href="#mf2e7f1c06b" x="204.709376" y="155.545517" style="fill: #0366d6; stroke: #ffffff; stroke-width: 1.5"/>
     <use xlink:href="#mf2e7f1c06b" x="214.665167" y="154.100589" style="fill: #0366d6; stroke: #ffffff; stroke-width: 1.5"/>
     <use xlink:href="#mf2e7f1c06b" x="224.620957" y="152.655661" style="fill: #0366d6; stroke: #ffffff; stroke-width: 1.5"/>
     <use xlink:href="#mf2e7f1c06b" x="234.576748" y="151.210733" style="fill: #0366d6; stroke: #ffffff; stroke-width: 1.5"/>
     <use xlink:href="#mf2e7f1c06b" x="244.532539" y="149.765805" style="fill: #0366d6; stroke: #ffffff; stroke-width: 1.5"/>
     <use xlink:href="#mf2e7f1c06b" x="254.48833" y="148.320877" style="fill: #0366d6; stroke: #ffffff; stroke-width: 1.5"/>
     <use xlink:href="#mf2e7f1c06b" x="264.44412" y="145.431021" style="fill: #0366d6; stroke: #ffffff; stroke-width: 1.5"/>
     <use xlink:href="#mf2e7f1c06b" x="274.399911" y="143.986093" style="fill: #0366d6; stroke: #ffffff; stroke-width: 1.5"/>
     <use xlink:href="#mf2e7f1c06b" x="284.355702" y="142.541165" style="fill: #0366d6; stroke: #ffffff; stroke-width: 1.5"/>
     <use xlink:href="#mf2e7f1c06b" x="294.311493" y="139.651309" style="fill: #0366d6; stroke: #ffffff; stroke-width: 1.5"/>
     <use xlink:href="#mf2e7f1c06b" x="304.267284" y="138.206381" style="fill: #0366d6; stroke: #ffffff; stroke-width: 1.5"/>
     <use xlink:href="#mf2e7f1c06b" x="314.223074" y="136.761453" style="fill: #0366d6; stroke: #ffffff; stroke-width: 1.5"/>
     <use xlink:href="#mf2e7f1c06b" x="324.178865" y="126.646956" style="fill: #0366d6; stroke: #ffffff; stroke-width: 1.5"/>
     <use xlink:href="#mf2e7f1c06b" x="334.134656" y="125.202028" style="fill: #0366d6; stroke: #ffffff; stroke-width: 1.5"/>
     <use xlink:href="#mf2e7f1c06b" x="344.090447" y="123.7571" style="fill: #0366d6; stroke: #ffffff; stroke-width: 1.5"/>
     <use xlink:href="#mf2e7f1c06b" x="354.046238" y="122.312172" style="fill: #0366d6; stroke: #ffffff; stroke-width: 1.5"/>
     <use xlink:href="#mf2e7f1c06b" x="364.002028" y="120.867244" style="fill: #0366d6; stroke: #ffffff; stroke-width: 1.5"/>
     <use xlink:href="#mf2e7f1c06b" x="373.957819" y="119.422316" style="fill: #0366d6; stroke: #ffffff; stroke-width: 1.5"/>
     <use xlink:href="#mf2e7f1c06b" x="383.91361" y="117.977388" style="fill: #0366d6; stroke: #ffffff; stroke-width: 1.5"/>
     <use xlink:href="#mf2e7f1c06b" x="393.869401" y="116.53246" style="fill: #0366d6; stroke: #ffffff; stroke-width: 1.5"/>
     <use xlink:href="#mf2e7f1c06b" x="403.825191" y="115.087532" style="fill: #0366d6; stroke: #ffffff; stroke-width: 1.5"/>
     <use xlink:href="#mf2e7f1c06b" x="413.780982" y="113.642604" style="fill: #0366d6; stroke: #ffffff; stroke-width: 1.5"/>
     <use xlink:href="#mf2e7f1c06b" x="423.736773" y="112.197676" style="fill: #0366d6; stroke: #ffffff; stroke-width: 1.5"/>
     <use xlink:href="#mf2e7f1c06b" x="433.692564" y="110.752748" style="fill: #0366d6; stroke: #ffffff; stroke-width: 1.5"/>
     <use xlink:href="#mf2e7f1c06b" x="443.648355" y="109.30782" style="fill: #0366d6; stroke: #ffffff; stroke-width: 1.5"/>
     <use xlink:href="#mf2e7f1c06b" x="453.604145" y="107.862892" style="fill: #0366d6; stroke: #ffffff; stroke-width: 1.5"/>
     <use xlink:href="#mf2e7f1c06b" x="463.559936" y="106.417964" style="fill: #0366d6; stroke: #ffffff; stroke-width: 1.5"/>
     <use xlink:href="#mf2e7f1c06b" x="473.515727" y="104.973036" style="fill: #0366d6; stroke: #ffffff; stroke-width: 1.5"/>
     <use xlink:href="#mf2e7f1c06b" x="483.471518" y="103.528108" style="fill: #0366d6; stroke: #ffffff; stroke-width: 1.5"/>
     <use xlink:href="#mf2e7f1c06b" x="493.427309" y="102.08318" style="fill: #0366d6; stroke: #ffffff; stroke-width: 1.5"/>
     <use xlink:href="#mf2e7f1c06b" x="503.383099" y="100.638251" style="fill: #0366d6; stroke: #ffffff; stroke-width: 1.5"/>
     <use xlink:href="#mf2e7f1c06b" x="513.33889" y="99.193323" style="fill: #0366d6; stroke: #ffffff; stroke-width: 1.5"/>
     <use xlink:href="#mf2e7f1c06b" x="523.294681" y="97.748395" style="fill: #0366d6; stroke: #ffffff; stroke-width: 1.5"/>
     <use xlink:href="#mf2e7f1c06b" x="533.250472" y="96.303467" style="fill: #0366d6; stroke: #ffffff; stroke-width: 1.5"/>
     <use xlink:href="#mf2e7f1c06b" x="543.206262" y="94.858539" style="fill: #0366d6; stroke: #ffffff; stroke-width: 1.5"/>
     <use xlink:href="#mf2e7f1c06b" x="553.162053" y="93.413611" style="fill: #0366d6; stroke: #ffffff; stroke-width: 1.5"/>
     <use xlink:href="#mf2e7f1c06b" x="563.117844" y="91.968683" style="fill: #0366d6; stroke: #ffffff; stroke-width: 1.5"/>
     <use xlink:href="#mf2e7f1c06b" x="573.073635" y="89.078827" style="fill: #0366d6; stroke: #ffffff; stroke-width: 1.5"/>
     <use xlink:href="#mf2e7f1c06b" x="583.029426" y="87.633899" style="fill: #0366d6; stroke: #ffffff; stroke-width: 1.5"/>
     <use xlink:href="#mf2e7f1c06b" x="592.985216" y="86.188971" style="fill: #0366d6; stroke: #ffffff; stroke-width: 1.5"/>
     <use xlink:href="#mf2e7f1c06b" x="602.941007" y="84.744043" style="fill: #0366d6; stroke: #ffffff; stroke-width: 1.5"/>
     <use xlink:href="#mf2e7f1c06b" x="612.896798" y="83.299115" style="fill: #0366d6; stroke: #ffffff; stroke-width: 1.5"/>
     <use xlink:href="#mf2e7f1c06b" x="622.852589" y="81.854187" style="fill: #0366d6; stroke: #ffffff; stroke-width: 1.5"/>
     <use xlink:href="#mf2e7f1c06b" x="632.80838" y="80.409259" style="fill: #0366d6; stroke: #ffffff; stroke-width: 1.5"/>
     <use xlink:href="#mf2e7f1c06b" x="642.76417" y="78.964331" style="fill: #0366d6; stroke: #ffffff; stroke-width: 1.5"/>
     <use xlink:href="#mf2e7f1c06b" x="652.719961" y="77.519403" style="fill: #0366d6; stroke: #ffffff; stroke-width: 1.5"/>
     <use xlink:href="#mf2e7f1c06b" x="662.675752" y="76.074475" style="fill: #0366d6; stroke: #ffffff; stroke-width: 1.5"/>
     <use xlink:href="#mf2e7f1c06b" x="672.631543" y="74.629547" style="fill: #0366d6; stroke: #ffffff; stroke-width: 1.5"/>
     <use xlink:href="#mf2e7f1c06b" x="682.587333" y="64.51505" style="fill: #0366d6; stroke: #ffffff; stroke-width: 1.5"/>
     <use xlink:href="#mf2e7f1c06b" x="692.543124" y="63.070122" style="fill: #0366d6; stroke: #ffffff; stroke-width: 1.5"/>
     <use xlink:href="#mf2e7f1c06b" x="702.498915" y="61.625194" style="fill: #0366d6; stroke: #ffffff; stroke-width: 1.5"/>
     <use xlink:href="#mf2e7f1c06b" x="712.454706" y="60.180266" style="fill: #0366d6; stroke: #ffffff; stroke-width: 1.5"/>
     <use xlink:href="#mf2e7f1c06b" x="722.410497" y="58.735338" style="fill: #0366d6; stroke: #ffffff; stroke-width: 1.5"/>
     <use xlink:href="#mf2e7f1c06b" x="732.366287" y="57.29041" style="fill: #0366d6; stroke: #ffffff; stroke-width: 1.5"/>
     <use xlink:href="#mf2e7f1c06b" x="742.322078" y="55.845482" style="fill: #0366d6; stroke: #ffffff; stroke-width: 1.5"/>
     <use xlink:href="#mf2e7f1c06b" x="752.277869" y="48.620842" style="fill: #0366d6; stroke: #ffffff; stroke-width: 1.5"/>
     <use xlink:href="#mf2e7f1c06b" x="762.23366" y="47.175914" style="fill: #0366d6; stroke: #ffffff; stroke-width: 1.5"/>
     <use xlink:href="#mf2e7f1c06b" x="772.18945" y="45.730986" style="fill: #0366d6; stroke: #ffffff; stroke-width: 1.5"/>
     <use xlink:href="#mf2e7f1c06b" x="782.145241" y="44.286057" style="fill: #0366d6; stroke: #ffffff; stroke-width: 1.5"/>
     <use xlink:href="#mf2e7f1c06b" x="792.101032" y="42.841129" style="fill: #0366d6; stroke: #ffffff; stroke-width: 1.5"/>
     <use xlink:href="#mf2e7f1c06b" x="802.056823" y="41.396201" style="fill: #0366d6; stroke: #ffffff; stroke-width: 1.5"/>
     <use xlink:href="#mf2e7f1c06b" x="812.012614" y="39.951273" style="fill: #0366d6; stroke: #ffffff; stroke-width: 1.5"/>
    </g>
   </g>
   <g id="patch_3">
    <path d="M 48.90125 346.420513 
L 48.90125 25.3575 
" style="fill: none; stroke: #000000; stroke-width: 0.8; stroke-linejoin: miter; stroke-linecap: square"/>
   </g>
   <g id="patch_4">
    <path d="M 848.35125 346.420513 
L 848.35125 25.3575 
" style="fill: none; stroke: #000000; stroke-width: 0.8; stroke-linejoin: miter; stroke-linecap: square"/>
   </g>
   <g id="patch_5">
    <path d="M 48.90125 346.420513 
L 848.35125 346.420513 
" style="fill: none; stroke: #000000; stroke-width: 0.8; stroke-linejoin: miter; stroke-linecap: square"/>
   </g>
   <g id="patch_6">
    <path d="M 48.90125 25.3575 
L 848.35125 25.3575 
" style="fill: none; stroke: #000000; stroke-width: 0.8; stroke-linejoin: miter; stroke-linecap: square"/>
   </g>
   <g id="text_17">
    <g id="patch_7">
     <path d="M 669.9085 46.99251 
L 832.36225 46.99251 
Q 835.96225 46.99251 835.96225 43.39251 
L 835.96225 31.77876 
Q 835.96225 28.17876 832.36225 28.17876 
L 669.9085 28.17876 
Q 666.3085 28.17876 666.3085 31.77876 
L 666.3085 43.39251 
Q 666.3085 46.99251 669.9085 46.99251 
z
" style="fill: #ffffff; opacity: 0.8; stroke: #000000; stroke-linejoin: miter"/>
    </g>
    <!-- Current: 202 downloads -->
    <g transform="translate(669.9085 40.896885) scale(0.12 -0.12)">
     <defs>
      <path id="DejaVuSans-Bold-43" d="M 4288 256 
Q 3956 84 3597 -3 
Q 3238 -91 2847 -91 
Q 1681 -91 1000 561 
Q 319 1213 319 2328 
Q 319 3447 1000 4098 
Q 1681 4750 2847 4750 
Q 3238 4750 3597 4662 
Q 3956 4575 4288 4403 
L 4288 3438 
Q 3953 3666 3628 3772 
Q 3303 3878 2944 3878 
Q 2300 3878 1931 3465 
Q 1563 3053 1563 2328 
Q 1563 1606 1931 1193 
Q 2300 781 2944 781 
Q 3303 781 3628 887 
Q 3953 994 4288 1222 
L 4288 256 
z
" transform="scale(0.015625)"/>
      <path id="DejaVuSans-Bold-75" d="M 500 1363 
L 500 3500 
L 1625 3500 
L 1625 3150 
Q 1625 2866 1622 2436 
Q 1619 2006 1619 1863 
Q 1619 1441 1641 1255 
Q 1663 1069 1716 984 
Q 1784 875 1895 815 
Q 2006 756 2150 756 
Q 2500 756 2700 1025 
Q 2900 1294 2900 1772 
L 2900 3500 
L 4019 3500 
L 4019 0 
L 2900 0 
L 2900 506 
Q 2647 200 2364 54 
Q 2081 -91 1741 -91 
Q 1134 -91 817 281 
Q 500 653 500 1363 
z
" transform="scale(0.015625)"/>
      <path id="DejaVuSans-Bold-72" d="M 3138 2547 
Q 2991 2616 2845 2648 
Q 2700 2681 2553 2681 
Q 2122 2681 1889 2404 
Q 1656 2128 1656 1613 
L 1656 0 
L 538 0 
L 538 3500 
L 1656 3500 
L 1656 2925 
Q 1872 3269 2151 3426 
Q 2431 3584 2822 3584 
Q 2878 3584 2943 3579 
Q 3009 3575 3134 3559 
L 3138 2547 
z
" transform="scale(0.015625)"/>
      <path id="DejaVuSans-Bold-65" d="M 4031 1759 
L 4031 1441 
L 1416 1441 
Q 1456 1047 1700 850 
Q 1944 653 2381 653 
Q 2734 653 3104 758 
Q 3475 863 3866 1075 
L 3866 213 
Q 3469 63 3072 -14 
Q 2675 -91 2278 -91 
Q 1328 -91 801 392 
Q 275 875 275 1747 
Q 275 2603 792 3093 
Q 1309 3584 2216 3584 
Q 3041 3584 3536 3087 
Q 4031 2591 4031 1759 
z
M 2881 2131 
Q 2881 2450 2695 2645 
Q 2509 2841 2209 2841 
Q 1884 2841 1681 2658 
Q 1478 2475 1428 2131 
L 2881 2131 
z
" transform="scale(0.015625)"/>
      <path id="DejaVuSans-Bold-6e" d="M 4056 2131 
L 4056 0 
L 2931 0 
L 2931 347 
L 2931 1631 
Q 2931 2084 2911 2256 
Q 2891 2428 2841 2509 
Q 2775 2619 2662 2680 
Q 2550 2741 2406 2741 
Q 2056 2741 1856 2470 
Q 1656 2200 1656 1722 
L 1656 0 
L 538 0 
L 538 3500 
L 1656 3500 
L 1656 2988 
Q 1909 3294 2193 3439 
Q 2478 3584 2822 3584 
Q 3428 3584 3742 3212 
Q 4056 2841 4056 2131 
z
" transform="scale(0.015625)"/>
      <path id="DejaVuSans-Bold-74" d="M 1759 4494 
L 1759 3500 
L 2913 3500 
L 2913 2700 
L 1759 2700 
L 1759 1216 
Q 1759 972 1856 886 
Q 1953 800 2241 800 
L 2816 800 
L 2816 0 
L 1856 0 
Q 1194 0 917 276 
Q 641 553 641 1216 
L 641 2700 
L 84 2700 
L 84 3500 
L 641 3500 
L 641 4494 
L 1759 4494 
z
" transform="scale(0.015625)"/>
      <path id="DejaVuSans-Bold-3a" d="M 716 3500 
L 1844 3500 
L 1844 2291 
L 716 2291 
L 716 3500 
z
M 716 1209 
L 1844 1209 
L 1844 0 
L 716 0 
L 716 1209 
z
" transform="scale(0.015625)"/>
      <path id="DejaVuSans-Bold-20" transform="scale(0.015625)"/>
      <path id="DejaVuSans-Bold-32" d="M 1844 884 
L 3897 884 
L 3897 0 
L 506 0 
L 506 884 
L 2209 2388 
Q 2438 2594 2547 2791 
Q 2656 2988 2656 3200 
Q 2656 3528 2436 3728 
Q 2216 3928 1850 3928 
Q 1569 3928 1234 3808 
Q 900 3688 519 3450 
L 519 4475 
Q 925 4609 1322 4679 
Q 1719 4750 2100 4750 
Q 2938 4750 3402 4381 
Q 3866 4013 3866 3353 
Q 3866 2972 3669 2642 
Q 3472 2313 2841 1759 
L 1844 884 
z
" transform="scale(0.015625)"/>
      <path id="DejaVuSans-Bold-30" d="M 2944 2338 
Q 2944 3213 2780 3570 
Q 2616 3928 2228 3928 
Q 1841 3928 1675 3570 
Q 1509 3213 1509 2338 
Q 1509 1453 1675 1090 
Q 1841 728 2228 728 
Q 2613 728 2778 1090 
Q 2944 1453 2944 2338 
z
M 4147 2328 
Q 4147 1169 3647 539 
Q 3147 -91 2228 -91 
Q 1306 -91 806 539 
Q 306 1169 306 2328 
Q 306 3491 806 4120 
Q 1306 4750 2228 4750 
Q 3147 4750 3647 4120 
Q 4147 3491 4147 2328 
z
" transform="scale(0.015625)"/>
      <path id="DejaVuSans-Bold-64" d="M 2919 2988 
L 2919 4863 
L 4044 4863 
L 4044 0 
L 2919 0 
L 2919 506 
Q 2688 197 2409 53 
Q 2131 -91 1766 -91 
Q 1119 -91 703 423 
Q 288 938 288 1747 
Q 288 2556 703 3070 
Q 1119 3584 1766 3584 
Q 2128 3584 2408 3439 
Q 2688 3294 2919 2988 
z
M 2181 722 
Q 2541 722 2730 984 
Q 2919 1247 2919 1747 
Q 2919 2247 2730 2509 
Q 2541 2772 2181 2772 
Q 1825 2772 1636 2509 
Q 1447 2247 1447 1747 
Q 1447 1247 1636 984 
Q 1825 722 2181 722 
z
" transform="scale(0.015625)"/>
      <path id="DejaVuSans-Bold-6f" d="M 2203 2784 
Q 1831 2784 1636 2517 
Q 1441 2250 1441 1747 
Q 1441 1244 1636 976 
Q 1831 709 2203 709 
Q 2569 709 2762 976 
Q 2956 1244 2956 1747 
Q 2956 2250 2762 2517 
Q 2569 2784 2203 2784 
z
M 2203 3584 
Q 3106 3584 3614 3096 
Q 4122 2609 4122 1747 
Q 4122 884 3614 396 
Q 3106 -91 2203 -91 
Q 1297 -91 786 396 
Q 275 884 275 1747 
Q 275 2609 786 3096 
Q 1297 3584 2203 3584 
z
" transform="scale(0.015625)"/>
      <path id="DejaVuSans-Bold-77" d="M 225 3500 
L 1313 3500 
L 1900 1088 
L 2491 3500 
L 3425 3500 
L 4013 1113 
L 4603 3500 
L 5691 3500 
L 4769 0 
L 3547 0 
L 2956 2406 
L 2369 0 
L 1147 0 
L 225 3500 
z
" transform="scale(0.015625)"/>
      <path id="DejaVuSans-Bold-6c" d="M 538 4863 
L 1656 4863 
L 1656 0 
L 538 0 
L 538 4863 
z
" transform="scale(0.015625)"/>
      <path id="DejaVuSans-Bold-61" d="M 2106 1575 
Q 1756 1575 1579 1456 
Q 1403 1338 1403 1106 
Q 1403 894 1545 773 
Q 1688 653 1941 653 
Q 2256 653 2472 879 
Q 2688 1106 2688 1447 
L 2688 1575 
L 2106 1575 
z
M 3816 1997 
L 3816 0 
L 2688 0 
L 2688 519 
Q 2463 200 2181 54 
Q 1900 -91 1497 -91 
Q 953 -91 614 226 
Q 275 544 275 1050 
Q 275 1666 698 1953 
Q 1122 2241 2028 2241 
L 2688 2241 
L 2688 2328 
Q 2688 2594 2478 2717 
Q 2269 2841 1825 2841 
Q 1466 2841 1156 2769 
Q 847 2697 581 2553 
L 581 3406 
Q 941 3494 1303 3539 
Q 1666 3584 2028 3584 
Q 2975 3584 3395 3211 
Q 3816 2838 3816 1997 
z
" transform="scale(0.015625)"/>
      <path id="DejaVuSans-Bold-73" d="M 3272 3391 
L 3272 2541 
Q 2913 2691 2578 2766 
Q 2244 2841 1947 2841 
Q 1628 2841 1473 2761 
Q 1319 2681 1319 2516 
Q 1319 2381 1436 2309 
Q 1553 2238 1856 2203 
L 2053 2175 
Q 2913 2066 3209 1816 
Q 3506 1566 3506 1031 
Q 3506 472 3093 190 
Q 2681 -91 1863 -91 
Q 1516 -91 1145 -36 
Q 775 19 384 128 
L 384 978 
Q 719 816 1070 734 
Q 1422 653 1784 653 
Q 2113 653 2278 743 
Q 2444 834 2444 1013 
Q 2444 1163 2330 1236 
Q 2216 1309 1875 1350 
L 1678 1375 
Q 931 1469 631 1722 
Q 331 1975 331 2491 
Q 331 3047 712 3315 
Q 1094 3584 1881 3584 
Q 2191 3584 2531 3537 
Q 2872 3491 3272 3391 
z
" transform="scale(0.015625)"/>
     </defs>
     <use xlink:href="#DejaVuSans-Bold-43"/>
     <use xlink:href="#DejaVuSans-Bold-75" transform="translate(73.388672 0)"/>
     <use xlink:href="#DejaVuSans-Bold-72" transform="translate(144.580078 0)"/>
     <use xlink:href="#DejaVuSans-Bold-72" transform="translate(193.896484 0)"/>
     <use xlink:href="#DejaVuSans-Bold-65" transform="translate(243.212891 0)"/>
     <use xlink:href="#DejaVuSans-Bold-6e" transform="translate(311.035156 0)"/>
     <use xlink:href="#DejaVuSans-Bold-74" transform="translate(382.226562 0)"/>
     <use xlink:href="#DejaVuSans-Bold-3a" transform="translate(430.029297 0)"/>
     <use xlink:href="#DejaVuSans-Bold-20" transform="translate(470.019531 0)"/>
     <use xlink:href="#DejaVuSans-Bold-32" transform="translate(504.833984 0)"/>
     <use xlink:href="#DejaVuSans-Bold-30" transform="translate(574.414062 0)"/>
     <use xlink:href="#DejaVuSans-Bold-32" transform="translate(643.994141 0)"/>
     <use xlink:href="#DejaVuSans-Bold-20" transform="translate(713.574219 0)"/>
     <use xlink:href="#DejaVuSans-Bold-64" transform="translate(748.388672 0)"/>
     <use xlink:href="#DejaVuSans-Bold-6f" transform="translate(819.970703 0)"/>
     <use xlink:href="#DejaVuSans-Bold-77" transform="translate(888.671875 0)"/>
     <use xlink:href="#DejaVuSans-Bold-6e" transform="translate(981.054688 0)"/>
     <use xlink:href="#DejaVuSans-Bold-6c" transform="translate(1052.246094 0)"/>
     <use xlink:href="#DejaVuSans-Bold-6f" transform="translate(1086.523438 0)"/>
     <use xlink:href="#DejaVuSans-Bold-61" transform="translate(1155.224609 0)"/>
     <use xlink:href="#DejaVuSans-Bold-64" transform="translate(1222.705078 0)"/>
     <use xlink:href="#DejaVuSans-Bold-73" transform="translate(1294.287109 0)"/>
    </g>
   </g>
   <g id="text_18">
    <!-- FleetDM-PowerShell - PowerShell Gallery Downloads -->
    <g transform="translate(210.995 19.3575) scale(0.16 -0.16)">
     <defs>
      <path id="DejaVuSans-Bold-46" d="M 588 4666 
L 3834 4666 
L 3834 3756 
L 1791 3756 
L 1791 2888 
L 3713 2888 
L 3713 1978 
L 1791 1978 
L 1791 0 
L 588 0 
L 588 4666 
z
" transform="scale(0.015625)"/>
      <path id="DejaVuSans-Bold-44" d="M 1791 3756 
L 1791 909 
L 2222 909 
Q 2959 909 3348 1275 
Q 3738 1641 3738 2338 
Q 3738 3031 3350 3393 
Q 2963 3756 2222 3756 
L 1791 3756 
z
M 588 4666 
L 1856 4666 
Q 2919 4666 3439 4514 
Q 3959 4363 4331 4000 
Q 4659 3684 4818 3271 
Q 4978 2859 4978 2338 
Q 4978 1809 4818 1395 
Q 4659 981 4331 666 
Q 3956 303 3431 151 
Q 2906 0 1856 0 
L 588 0 
L 588 4666 
z
" transform="scale(0.015625)"/>
      <path id="DejaVuSans-Bold-4d" d="M 588 4666 
L 2119 4666 
L 3181 2169 
L 4250 4666 
L 5778 4666 
L 5778 0 
L 4641 0 
L 4641 3413 
L 3566 897 
L 2803 897 
L 1728 3413 
L 1728 0 
L 588 0 
L 588 4666 
z
" transform="scale(0.015625)"/>
      <path id="DejaVuSans-Bold-2d" d="M 347 2297 
L 2309 2297 
L 2309 1388 
L 347 1388 
L 347 2297 
z
" transform="scale(0.015625)"/>
      <path id="DejaVuSans-Bold-50" d="M 588 4666 
L 2584 4666 
Q 3475 4666 3951 4270 
Q 4428 3875 4428 3144 
Q 4428 2409 3951 2014 
Q 3475 1619 2584 1619 
L 1791 1619 
L 1791 0 
L 588 0 
L 588 4666 
z
M 1791 3794 
L 1791 2491 
L 2456 2491 
Q 2806 2491 2997 2661 
Q 3188 2831 3188 3144 
Q 3188 3456 2997 3625 
Q 2806 3794 2456 3794 
L 1791 3794 
z
" transform="scale(0.015625)"/>
      <path id="DejaVuSans-Bold-53" d="M 3834 4519 
L 3834 3531 
Q 3450 3703 3084 3790 
Q 2719 3878 2394 3878 
Q 1963 3878 1756 3759 
Q 1550 3641 1550 3391 
Q 1550 3203 1689 3098 
Q 1828 2994 2194 2919 
L 2706 2816 
Q 3484 2659 3812 2340 
Q 4141 2022 4141 1434 
Q 4141 663 3683 286 
Q 3225 -91 2284 -91 
Q 1841 -91 1394 -6 
Q 947 78 500 244 
L 500 1259 
Q 947 1022 1364 901 
Q 1781 781 2169 781 
Q 2563 781 2772 912 
Q 2981 1044 2981 1288 
Q 2981 1506 2839 1625 
Q 2697 1744 2272 1838 
L 1806 1941 
Q 1106 2091 782 2419 
Q 459 2747 459 3303 
Q 459 4000 909 4375 
Q 1359 4750 2203 4750 
Q 2588 4750 2994 4692 
Q 3400 4634 3834 4519 
z
" transform="scale(0.015625)"/>
      <path id="DejaVuSans-Bold-68" d="M 4056 2131 
L 4056 0 
L 2931 0 
L 2931 347 
L 2931 1625 
Q 2931 2084 2911 2256 
Q 2891 2428 2841 2509 
Q 2775 2619 2662 2680 
Q 2550 2741 2406 2741 
Q 2056 2741 1856 2470 
Q 1656 2200 1656 1722 
L 1656 0 
L 538 0 
L 538 4863 
L 1656 4863 
L 1656 2988 
Q 1909 3294 2193 3439 
Q 2478 3584 2822 3584 
Q 3428 3584 3742 3212 
Q 4056 2841 4056 2131 
z
" transform="scale(0.015625)"/>
      <path id="DejaVuSans-Bold-47" d="M 4781 347 
Q 4331 128 3847 18 
Q 3363 -91 2847 -91 
Q 1681 -91 1000 561 
Q 319 1213 319 2328 
Q 319 3456 1012 4103 
Q 1706 4750 2913 4750 
Q 3378 4750 3804 4662 
Q 4231 4575 4609 4403 
L 4609 3438 
Q 4219 3659 3833 3768 
Q 3447 3878 3059 3878 
Q 2341 3878 1952 3476 
Q 1563 3075 1563 2328 
Q 1563 1588 1938 1184 
Q 2313 781 3003 781 
Q 3191 781 3352 804 
Q 3513 828 3641 878 
L 3641 1784 
L 2906 1784 
L 2906 2591 
L 4781 2591 
L 4781 347 
z
" transform="scale(0.015625)"/>
      <path id="DejaVuSans-Bold-79" d="M 78 3500 
L 1197 3500 
L 2138 1125 
L 2938 3500 
L 4056 3500 
L 2584 -331 
Q 2363 -916 2067 -1148 
Q 1772 -1381 1288 -1381 
L 641 -1381 
L 641 -647 
L 991 -647 
Q 1275 -647 1404 -556 
Q 1534 -466 1606 -231 
L 1638 -134 
L 78 3500 
z
" transform="scale(0.015625)"/>
     </defs>
     <use xlink:href="#DejaVuSans-Bold-46"/>
     <use xlink:href="#DejaVuSans-Bold-6c" transform="translate(68.310547 0)"/>
     <use xlink:href="#DejaVuSans-Bold-65" transform="translate(102.587891 0)"/>
     <use xlink:href="#DejaVuSans-Bold-65" transform="translate(170.410156 0)"/>
     <use xlink:href="#DejaVuSans-Bold-74" transform="translate(238.232422 0)"/>
     <use xlink:href="#DejaVuSans-Bold-44" transform="translate(286.035156 0)"/>
     <use xlink:href="#DejaVuSans-Bold-4d" transform="translate(369.042969 0)"/>
     <use xlink:href="#DejaVuSans-Bold-2d" transform="translate(468.554688 0)"/>
     <use xlink:href="#DejaVuSans-Bold-50" transform="translate(510.058594 0)"/>
     <use xlink:href="#DejaVuSans-Bold-6f" transform="translate(583.349609 0)"/>
     <use xlink:href="#DejaVuSans-Bold-77" transform="translate(652.050781 0)"/>
     <use xlink:href="#DejaVuSans-Bold-65" transform="translate(744.433594 0)"/>
     <use xlink:href="#DejaVuSans-Bold-72" transform="translate(812.255859 0)"/>
     <use xlink:href="#DejaVuSans-Bold-53" transform="translate(861.572266 0)"/>
     <use xlink:href="#DejaVuSans-Bold-68" transform="translate(933.59375 0)"/>
     <use xlink:href="#DejaVuSans-Bold-65" transform="translate(1004.785156 0)"/>
     <use xlink:href="#DejaVuSans-Bold-6c" transform="translate(1072.607422 0)"/>
     <use xlink:href="#DejaVuSans-Bold-6c" transform="translate(1106.884766 0)"/>
     <use xlink:href="#DejaVuSans-Bold-20" transform="translate(1141.162109 0)"/>
     <use xlink:href="#DejaVuSans-Bold-2d" transform="translate(1175.976562 0)"/>
     <use xlink:href="#DejaVuSans-Bold-20" transform="translate(1217.480469 0)"/>
     <use xlink:href="#DejaVuSans-Bold-50" transform="translate(1252.294922 0)"/>
     <use xlink:href="#DejaVuSans-Bold-6f" transform="translate(1325.585938 0)"/>
     <use xlink:href="#DejaVuSans-Bold-77" transform="translate(1394.287109 0)"/>
     <use xlink:href="#DejaVuSans-Bold-65" transform="translate(1486.669922 0)"/>
     <use xlink:href="#DejaVuSans-Bold-72" transform="translate(1554.492188 0)"/>
     <use xlink:href="#DejaVuSans-Bold-53" transform="translate(1603.808594 0)"/>
     <use xlink:href="#DejaVuSans-Bold-68" transform="translate(1675.830078 0)"/>
     <use xlink:href="#DejaVuSans-Bold-65" transform="translate(1747.021484 0)"/>
     <use xlink:href="#DejaVuSans-Bold-6c" transform="translate(1814.84375 0)"/>
     <use xlink:href="#DejaVuSans-Bold-6c" transform="translate(1849.121094 0)"/>
     <use xlink:href="#DejaVuSans-Bold-20" transform="translate(1883.398438 0)"/>
     <use xlink:href="#DejaVuSans-Bold-47" transform="translate(1918.212891 0)"/>
     <use xlink:href="#DejaVuSans-Bold-61" transform="translate(2000.292969 0)"/>
     <use xlink:href="#DejaVuSans-Bold-6c" transform="translate(2067.773438 0)"/>
     <use xlink:href="#DejaVuSans-Bold-6c" transform="translate(2102.050781 0)"/>
     <use xlink:href="#DejaVuSans-Bold-65" transform="translate(2136.328125 0)"/>
     <use xlink:href="#DejaVuSans-Bold-72" transform="translate(2204.150391 0)"/>
     <use xlink:href="#DejaVuSans-Bold-79" transform="translate(2253.466797 0)"/>
     <use xlink:href="#DejaVuSans-Bold-20" transform="translate(2318.652344 0)"/>
     <use xlink:href="#DejaVuSans-Bold-44" transform="translate(2353.466797 0)"/>
     <use xlink:href="#DejaVuSans-Bold-6f" transform="translate(2436.474609 0)"/>
     <use xlink:href="#DejaVuSans-Bold-77" transform="translate(2505.175781 0)"/>
     <use xlink:href="#DejaVuSans-Bold-6e" transform="translate(2597.558594 0)"/>
     <use xlink:href="#DejaVuSans-Bold-6c" transform="translate(2668.75 0)"/>
     <use xlink:href="#DejaVuSans-Bold-6f" transform="translate(2703.027344 0)"/>
     <use xlink:href="#DejaVuSans-Bold-61" transform="translate(2771.728516 0)"/>
     <use xlink:href="#DejaVuSans-Bold-64" transform="translate(2839.208984 0)"/>
     <use xlink:href="#DejaVuSans-Bold-73" transform="translate(2910.791016 0)"/>
    </g>
   </g>
  </g>
 </g>
 <defs>
  <clipPath id="pe2afd26e03">
   <rect x="48.90125" y="25.3575" width="799.45" height="321.063013"/>
  </clipPath>
 </defs>
</svg>
