<?xml version="1.0" encoding="utf-8" standalone="no"?>
<!DOCTYPE svg PUBLIC "-//W3C//DTD SVG 1.1//EN"
  "http://www.w3.org/Graphics/SVG/1.1/DTD/svg11.dtd">
<svg xmlns:xlink="http://www.w3.org/1999/xlink" width="855.55125pt" height="424.171683pt" viewBox="0 0 855.55125 424.171683" xmlns="http://www.w3.org/2000/svg" version="1.1">
 <metadata>
  <rdf:RDF xmlns:dc="http://purl.org/dc/elements/1.1/" xmlns:cc="http://creativecommons.org/ns#" xmlns:rdf="http://www.w3.org/1999/02/22-rdf-syntax-ns#">
   <cc:Work>
    <dc:type rdf:resource="http://purl.org/dc/dcmitype/StillImage"/>
    <dc:date>2025-10-27T00:08:03.298568</dc:date>
    <dc:format>image/svg+xml</dc:format>
    <dc:creator>
     <cc:Agent>
      <dc:title>Matplotlib v3.10.7, https://matplotlib.org/</dc:title>
     </cc:Agent>
    </dc:creator>
   </cc:Work>
  </rdf:RDF>
 </metadata>
 <defs>
  <style type="text/css">*{stroke-linejoin: round; stroke-linecap: butt}</style>
 </defs>
 <g id="figure_1">
  <g id="patch_1">
   <path d="M 0 424.171683 
L 855.55125 424.171683 
L 855.55125 0 
L 0 0 
z
" style="fill: #ffffff"/>
  </g>
  <g id="axes_1">
   <g id="patch_2">
    <path d="M 48.90125 346.420513 
L 848.35125 346.420513 
L 848.35125 25.3575 
L 48.90125 25.3575 
z
" style="fill: #f6f8fa"/>
   </g>
   <g id="FillBetweenPolyCollection_1">
    <defs>
     <path id="md0f08ee87e" d="M 85.239886 -92.344944 
L 85.239886 -222.697094 
L 94.678493 -248.200775 
L 104.1171 -249.617646 
L 113.555707 -251.034518 
L 122.994314 -252.451389 
L 132.432921 -255.285131 
L 141.871527 -256.702002 
L 151.310134 -258.118874 
L 160.748741 -259.535745 
L 170.187348 -260.952616 
L 179.625955 -262.369487 
L 189.064562 -263.786358 
L 198.503169 -265.20323 
L 207.941775 -266.620101 
L 217.380382 -268.036972 
L 226.818989 -269.453843 
L 236.257596 -270.870714 
L 245.696203 -272.287586 
L 255.13481 -275.121328 
L 264.573416 -276.538199 
L 274.012023 -277.95507 
L 283.45063 -280.788813 
L 292.889237 -282.205684 
L 302.327844 -283.622555 
L 311.766451 -293.540654 
L 321.205058 -294.957525 
L 330.643664 -296.374396 
L 340.082271 -297.791267 
L 349.520878 -299.208138 
L 358.959485 -300.62501 
L 368.398092 -302.041881 
L 377.836699 -303.458752 
L 387.275305 -304.875623 
L 396.713912 -306.292494 
L 406.152519 -307.709365 
L 415.591126 -309.126237 
L 425.029733 -310.543108 
L 434.46834 -311.959979 
L 443.906947 -313.37685 
L 453.345553 -314.793721 
L 462.78416 -316.210593 
L 472.222767 -317.627464 
L 481.661374 -319.044335 
L 491.099981 -320.461206 
L 500.538588 -321.878077 
L 509.977195 -323.294949 
L 519.415801 -324.71182 
L 528.854408 -326.128691 
L 538.293015 -327.545562 
L 547.731622 -330.379305 
L 557.170229 -331.796176 
L 566.608836 -333.213047 
L 576.047442 -334.629918 
L 585.486049 -336.046789 
L 594.924656 -337.463661 
L 604.363263 -338.880532 
L 613.80187 -340.297403 
L 623.240477 -341.714274 
L 632.679084 -343.131145 
L 642.11769 -344.548017 
L 651.556297 -354.466115 
L 660.994904 -355.882986 
L 670.433511 -357.299857 
L 679.872118 -358.716729 
L 689.310725 -360.1336 
L 698.749331 -361.550471 
L 708.187938 -362.967342 
L 717.626545 -370.051698 
L 727.065152 -371.468569 
L 736.503759 -372.885441 
L 745.942366 -374.302312 
L 755.380973 -375.719183 
L 764.819579 -377.136054 
L 774.258186 -378.552925 
L 783.696793 -379.969796 
L 793.1354 -381.386668 
L 802.574007 -382.803539 
L 812.012614 -384.22041 
L 812.012614 -92.344944 
L 812.012614 -92.344944 
L 802.574007 -92.344944 
L 793.1354 -92.344944 
L 783.696793 -92.344944 
L 774.258186 -92.344944 
L 764.819579 -92.344944 
L 755.380973 -92.344944 
L 745.942366 -92.344944 
L 736.503759 -92.344944 
L 727.065152 -92.344944 
L 717.626545 -92.344944 
L 708.187938 -92.344944 
L 698.749331 -92.344944 
L 689.310725 -92.344944 
L 679.872118 -92.344944 
L 670.433511 -92.344944 
L 660.994904 -92.344944 
L 651.556297 -92.344944 
L 642.11769 -92.344944 
L 632.679084 -92.344944 
L 623.240477 -92.344944 
L 613.80187 -92.344944 
L 604.363263 -92.344944 
L 594.924656 -92.344944 
L 585.486049 -92.344944 
L 576.047442 -92.344944 
L 566.608836 -92.344944 
L 557.170229 -92.344944 
L 547.731622 -92.344944 
L 538.293015 -92.344944 
L 528.854408 -92.344944 
L 519.415801 -92.344944 
L 509.977195 -92.344944 
L 500.538588 -92.344944 
L 491.099981 -92.344944 
L 481.661374 -92.344944 
L 472.222767 -92.344944 
L 462.78416 -92.344944 
L 453.345553 -92.344944 
L 443.906947 -92.344944 
L 434.46834 -92.344944 
L 425.029733 -92.344944 
L 415.591126 -92.344944 
L 406.152519 -92.344944 
L 396.713912 -92.344944 
L 387.275305 -92.344944 
L 377.836699 -92.344944 
L 368.398092 -92.344944 
L 358.959485 -92.344944 
L 349.520878 -92.344944 
L 340.082271 -92.344944 
L 330.643664 -92.344944 
L 321.205058 -92.344944 
L 311.766451 -92.344944 
L 302.327844 -92.344944 
L 292.889237 -92.344944 
L 283.45063 -92.344944 
L 274.012023 -92.344944 
L 264.573416 -92.344944 
L 255.13481 -92.344944 
L 245.696203 -92.344944 
L 236.257596 -92.344944 
L 226.818989 -92.344944 
L 217.380382 -92.344944 
L 207.941775 -92.344944 
L 198.503169 -92.344944 
L 189.064562 -92.344944 
L 179.625955 -92.344944 
L 170.187348 -92.344944 
L 160.748741 -92.344944 
L 151.310134 -92.344944 
L 141.871527 -92.344944 
L 132.432921 -92.344944 
L 122.994314 -92.344944 
L 113.555707 -92.344944 
L 104.1171 -92.344944 
L 94.678493 -92.344944 
L 85.239886 -92.344944 
z
" style="stroke: #0366d6; stroke-opacity: 0.1"/>
    </defs>
    <g clip-path="url(#pf47690df9a)">
     <use xlink:href="#md0f08ee87e" x="0" y="424.171683" style="fill: #0366d6; fill-opacity: 0.1; stroke: #0366d6; stroke-opacity: 0.1"/>
    </g>
   </g>
   <g id="matplotlib.axis_1">
    <g id="xtick_1">
     <g id="line2d_1">
      <path d="M 122.994314 346.420513 
L 122.994314 25.3575 
" clip-path="url(#pf47690df9a)" style="fill: none; stroke-dasharray: 2.96,1.28; stroke-dashoffset: 0; stroke: #b0b0b0; stroke-opacity: 0.3; stroke-width: 0.8"/>
     </g>
     <g id="line2d_2">
      <defs>
       <path id="m6e5e8bf227" d="M 0 0 
L 0 3.5 
" style="stroke: #000000; stroke-width: 0.8"/>
      </defs>
      <g>
       <use xlink:href="#m6e5e8bf227" x="122.994314" y="346.420513" style="stroke: #000000; stroke-width: 0.8"/>
      </g>
     </g>
     <g id="text_1">
      <!-- 2025-08-15 -->
      <g transform="translate(80.4298 399.887372) rotate(-45) scale(0.1 -0.1)">
       <defs>
        <path id="DejaVuSans-32" d="M 1228 531 
L 3431 531 
L 3431 0 
L 469 0 
L 469 531 
Q 828 903 1448 1529 
Q 2069 2156 2228 2338 
Q 2531 2678 2651 2914 
Q 2772 3150 2772 3378 
Q 2772 3750 2511 3984 
Q 2250 4219 1831 4219 
Q 1534 4219 1204 4116 
Q 875 4013 500 3803 
L 500 4441 
Q 881 4594 1212 4672 
Q 1544 4750 1819 4750 
Q 2544 4750 2975 4387 
Q 3406 4025 3406 3419 
Q 3406 3131 3298 2873 
Q 3191 2616 2906 2266 
Q 2828 2175 2409 1742 
Q 1991 1309 1228 531 
z
" transform="scale(0.015625)"/>
        <path id="DejaVuSans-30" d="M 2034 4250 
Q 1547 4250 1301 3770 
Q 1056 3291 1056 2328 
Q 1056 1369 1301 889 
Q 1547 409 2034 409 
Q 2525 409 2770 889 
Q 3016 1369 3016 2328 
Q 3016 3291 2770 3770 
Q 2525 4250 2034 4250 
z
M 2034 4750 
Q 2819 4750 3233 4129 
Q 3647 3509 3647 2328 
Q 3647 1150 3233 529 
Q 2819 -91 2034 -91 
Q 1250 -91 836 529 
Q 422 1150 422 2328 
Q 422 3509 836 4129 
Q 1250 4750 2034 4750 
z
" transform="scale(0.015625)"/>
        <path id="DejaVuSans-35" d="M 691 4666 
L 3169 4666 
L 3169 4134 
L 1269 4134 
L 1269 2991 
Q 1406 3038 1543 3061 
Q 1681 3084 1819 3084 
Q 2600 3084 3056 2656 
Q 3513 2228 3513 1497 
Q 3513 744 3044 326 
Q 2575 -91 1722 -91 
Q 1428 -91 1123 -41 
Q 819 9 494 109 
L 494 744 
Q 775 591 1075 516 
Q 1375 441 1709 441 
Q 2250 441 2565 725 
Q 2881 1009 2881 1497 
Q 2881 1984 2565 2268 
Q 2250 2553 1709 2553 
Q 1456 2553 1204 2497 
Q 953 2441 691 2322 
L 691 4666 
z
" transform="scale(0.015625)"/>
        <path id="DejaVuSans-2d" d="M 313 2009 
L 1997 2009 
L 1997 1497 
L 313 1497 
L 313 2009 
z
" transform="scale(0.015625)"/>
        <path id="DejaVuSans-38" d="M 2034 2216 
Q 1584 2216 1326 1975 
Q 1069 1734 1069 1313 
Q 1069 891 1326 650 
Q 1584 409 2034 409 
Q 2484 409 2743 651 
Q 3003 894 3003 1313 
Q 3003 1734 2745 1975 
Q 2488 2216 2034 2216 
z
M 1403 2484 
Q 997 2584 770 2862 
Q 544 3141 544 3541 
Q 544 4100 942 4425 
Q 1341 4750 2034 4750 
Q 2731 4750 3128 4425 
Q 3525 4100 3525 3541 
Q 3525 3141 3298 2862 
Q 3072 2584 2669 2484 
Q 3125 2378 3379 2068 
Q 3634 1759 3634 1313 
Q 3634 634 3220 271 
Q 2806 -91 2034 -91 
Q 1263 -91 848 271 
Q 434 634 434 1313 
Q 434 1759 690 2068 
Q 947 2378 1403 2484 
z
M 1172 3481 
Q 1172 3119 1398 2916 
Q 1625 2713 2034 2713 
Q 2441 2713 2670 2916 
Q 2900 3119 2900 3481 
Q 2900 3844 2670 4047 
Q 2441 4250 2034 4250 
Q 1625 4250 1398 4047 
Q 1172 3844 1172 3481 
z
" transform="scale(0.015625)"/>
        <path id="DejaVuSans-31" d="M 794 531 
L 1825 531 
L 1825 4091 
L 703 3866 
L 703 4441 
L 1819 4666 
L 2450 4666 
L 2450 531 
L 3481 531 
L 3481 0 
L 794 0 
L 794 531 
z
" transform="scale(0.015625)"/>
       </defs>
       <use xlink:href="#DejaVuSans-32"/>
       <use xlink:href="#DejaVuSans-30" transform="translate(63.623047 0)"/>
       <use xlink:href="#DejaVuSans-32" transform="translate(127.246094 0)"/>
       <use xlink:href="#DejaVuSans-35" transform="translate(190.869141 0)"/>
       <use xlink:href="#DejaVuSans-2d" transform="translate(254.492188 0)"/>
       <use xlink:href="#DejaVuSans-30" transform="translate(290.576172 0)"/>
       <use xlink:href="#DejaVuSans-38" transform="translate(354.199219 0)"/>
       <use xlink:href="#DejaVuSans-2d" transform="translate(417.822266 0)"/>
       <use xlink:href="#DejaVuSans-31" transform="translate(453.90625 0)"/>
       <use xlink:href="#DejaVuSans-35" transform="translate(517.529297 0)"/>
      </g>
     </g>
    </g>
    <g id="xtick_2">
     <g id="line2d_3">
      <path d="M 283.45063 346.420513 
L 283.45063 25.3575 
" clip-path="url(#pf47690df9a)" style="fill: none; stroke-dasharray: 2.96,1.28; stroke-dashoffset: 0; stroke: #b0b0b0; stroke-opacity: 0.3; stroke-width: 0.8"/>
     </g>
     <g id="line2d_4">
      <g>
       <use xlink:href="#m6e5e8bf227" x="283.45063" y="346.420513" style="stroke: #000000; stroke-width: 0.8"/>
      </g>
     </g>
     <g id="text_2">
      <!-- 2025-09-01 -->
      <g transform="translate(240.886117 399.887372) rotate(-45) scale(0.1 -0.1)">
       <defs>
        <path id="DejaVuSans-39" d="M 703 97 
L 703 672 
Q 941 559 1184 500 
Q 1428 441 1663 441 
Q 2288 441 2617 861 
Q 2947 1281 2994 2138 
Q 2813 1869 2534 1725 
Q 2256 1581 1919 1581 
Q 1219 1581 811 2004 
Q 403 2428 403 3163 
Q 403 3881 828 4315 
Q 1253 4750 1959 4750 
Q 2769 4750 3195 4129 
Q 3622 3509 3622 2328 
Q 3622 1225 3098 567 
Q 2575 -91 1691 -91 
Q 1453 -91 1209 -44 
Q 966 3 703 97 
z
M 1959 2075 
Q 2384 2075 2632 2365 
Q 2881 2656 2881 3163 
Q 2881 3666 2632 3958 
Q 2384 4250 1959 4250 
Q 1534 4250 1286 3958 
Q 1038 3666 1038 3163 
Q 1038 2656 1286 2365 
Q 1534 2075 1959 2075 
z
" transform="scale(0.015625)"/>
       </defs>
       <use xlink:href="#DejaVuSans-32"/>
       <use xlink:href="#DejaVuSans-30" transform="translate(63.623047 0)"/>
       <use xlink:href="#DejaVuSans-32" transform="translate(127.246094 0)"/>
       <use xlink:href="#DejaVuSans-35" transform="translate(190.869141 0)"/>
       <use xlink:href="#DejaVuSans-2d" transform="translate(254.492188 0)"/>
       <use xlink:href="#DejaVuSans-30" transform="translate(290.576172 0)"/>
       <use xlink:href="#DejaVuSans-39" transform="translate(354.199219 0)"/>
       <use xlink:href="#DejaVuSans-2d" transform="translate(417.822266 0)"/>
       <use xlink:href="#DejaVuSans-30" transform="translate(453.90625 0)"/>
       <use xlink:href="#DejaVuSans-31" transform="translate(517.529297 0)"/>
      </g>
     </g>
    </g>
    <g id="xtick_3">
     <g id="line2d_5">
      <path d="M 415.591126 346.420513 
L 415.591126 25.3575 
" clip-path="url(#pf47690df9a)" style="fill: none; stroke-dasharray: 2.96,1.28; stroke-dashoffset: 0; stroke: #b0b0b0; stroke-opacity: 0.3; stroke-width: 0.8"/>
     </g>
     <g id="line2d_6">
      <g>
       <use xlink:href="#m6e5e8bf227" x="415.591126" y="346.420513" style="stroke: #000000; stroke-width: 0.8"/>
      </g>
     </g>
     <g id="text_3">
      <!-- 2025-09-15 -->
      <g transform="translate(373.026612 399.887372) rotate(-45) scale(0.1 -0.1)">
       <use xlink:href="#DejaVuSans-32"/>
       <use xlink:href="#DejaVuSans-30" transform="translate(63.623047 0)"/>
       <use xlink:href="#DejaVuSans-32" transform="translate(127.246094 0)"/>
       <use xlink:href="#DejaVuSans-35" transform="translate(190.869141 0)"/>
       <use xlink:href="#DejaVuSans-2d" transform="translate(254.492188 0)"/>
       <use xlink:href="#DejaVuSans-30" transform="translate(290.576172 0)"/>
       <use xlink:href="#DejaVuSans-39" transform="translate(354.199219 0)"/>
       <use xlink:href="#DejaVuSans-2d" transform="translate(417.822266 0)"/>
       <use xlink:href="#DejaVuSans-31" transform="translate(453.90625 0)"/>
       <use xlink:href="#DejaVuSans-35" transform="translate(517.529297 0)"/>
      </g>
     </g>
    </g>
    <g id="xtick_4">
     <g id="line2d_7">
      <path d="M 566.608836 346.420513 
L 566.608836 25.3575 
" clip-path="url(#pf47690df9a)" style="fill: none; stroke-dasharray: 2.96,1.28; stroke-dashoffset: 0; stroke: #b0b0b0; stroke-opacity: 0.3; stroke-width: 0.8"/>
     </g>
     <g id="line2d_8">
      <g>
       <use xlink:href="#m6e5e8bf227" x="566.608836" y="346.420513" style="stroke: #000000; stroke-width: 0.8"/>
      </g>
     </g>
     <g id="text_4">
      <!-- 2025-10-01 -->
      <g transform="translate(524.044322 399.887372) rotate(-45) scale(0.1 -0.1)">
       <use xlink:href="#DejaVuSans-32"/>
       <use xlink:href="#DejaVuSans-30" transform="translate(63.623047 0)"/>
       <use xlink:href="#DejaVuSans-32" transform="translate(127.246094 0)"/>
       <use xlink:href="#DejaVuSans-35" transform="translate(190.869141 0)"/>
       <use xlink:href="#DejaVuSans-2d" transform="translate(254.492188 0)"/>
       <use xlink:href="#DejaVuSans-31" transform="translate(290.576172 0)"/>
       <use xlink:href="#DejaVuSans-30" transform="translate(354.199219 0)"/>
       <use xlink:href="#DejaVuSans-2d" transform="translate(417.822266 0)"/>
       <use xlink:href="#DejaVuSans-30" transform="translate(453.90625 0)"/>
       <use xlink:href="#DejaVuSans-31" transform="translate(517.529297 0)"/>
      </g>
     </g>
    </g>
    <g id="xtick_5">
     <g id="line2d_9">
      <path d="M 698.749331 346.420513 
L 698.749331 25.3575 
" clip-path="url(#pf47690df9a)" style="fill: none; stroke-dasharray: 2.96,1.28; stroke-dashoffset: 0; stroke: #b0b0b0; stroke-opacity: 0.3; stroke-width: 0.8"/>
     </g>
     <g id="line2d_10">
      <g>
       <use xlink:href="#m6e5e8bf227" x="698.749331" y="346.420513" style="stroke: #000000; stroke-width: 0.8"/>
      </g>
     </g>
     <g id="text_5">
      <!-- 2025-10-15 -->
      <g transform="translate(656.184818 399.887372) rotate(-45) scale(0.1 -0.1)">
       <use xlink:href="#DejaVuSans-32"/>
       <use xlink:href="#DejaVuSans-30" transform="translate(63.623047 0)"/>
       <use xlink:href="#DejaVuSans-32" transform="translate(127.246094 0)"/>
       <use xlink:href="#DejaVuSans-35" transform="translate(190.869141 0)"/>
       <use xlink:href="#DejaVuSans-2d" transform="translate(254.492188 0)"/>
       <use xlink:href="#DejaVuSans-31" transform="translate(290.576172 0)"/>
       <use xlink:href="#DejaVuSans-30" transform="translate(354.199219 0)"/>
       <use xlink:href="#DejaVuSans-2d" transform="translate(417.822266 0)"/>
       <use xlink:href="#DejaVuSans-31" transform="translate(453.90625 0)"/>
       <use xlink:href="#DejaVuSans-35" transform="translate(517.529297 0)"/>
      </g>
     </g>
    </g>
    <g id="text_6">
     <!-- Date -->
     <g transform="translate(434.285312 414.476058) scale(0.12 -0.12)">
      <defs>
       <path id="DejaVuSans-44" d="M 1259 4147 
L 1259 519 
L 2022 519 
Q 2988 519 3436 956 
Q 3884 1394 3884 2338 
Q 3884 3275 3436 3711 
Q 2988 4147 2022 4147 
L 1259 4147 
z
M 628 4666 
L 1925 4666 
Q 3281 4666 3915 4102 
Q 4550 3538 4550 2338 
Q 4550 1131 3912 565 
Q 3275 0 1925 0 
L 628 0 
L 628 4666 
z
" transform="scale(0.015625)"/>
       <path id="DejaVuSans-61" d="M 2194 1759 
Q 1497 1759 1228 1600 
Q 959 1441 959 1056 
Q 959 750 1161 570 
Q 1363 391 1709 391 
Q 2188 391 2477 730 
Q 2766 1069 2766 1631 
L 2766 1759 
L 2194 1759 
z
M 3341 1997 
L 3341 0 
L 2766 0 
L 2766 531 
Q 2569 213 2275 61 
Q 1981 -91 1556 -91 
Q 1019 -91 701 211 
Q 384 513 384 1019 
Q 384 1609 779 1909 
Q 1175 2209 1959 2209 
L 2766 2209 
L 2766 2266 
Q 2766 2663 2505 2880 
Q 2244 3097 1772 3097 
Q 1472 3097 1187 3025 
Q 903 2953 641 2809 
L 641 3341 
Q 956 3463 1253 3523 
Q 1550 3584 1831 3584 
Q 2591 3584 2966 3190 
Q 3341 2797 3341 1997 
z
" transform="scale(0.015625)"/>
       <path id="DejaVuSans-74" d="M 1172 4494 
L 1172 3500 
L 2356 3500 
L 2356 3053 
L 1172 3053 
L 1172 1153 
Q 1172 725 1289 603 
Q 1406 481 1766 481 
L 2356 481 
L 2356 0 
L 1766 0 
Q 1100 0 847 248 
Q 594 497 594 1153 
L 594 3053 
L 172 3053 
L 172 3500 
L 594 3500 
L 594 4494 
L 1172 4494 
z
" transform="scale(0.015625)"/>
       <path id="DejaVuSans-65" d="M 3597 1894 
L 3597 1613 
L 953 1613 
Q 991 1019 1311 708 
Q 1631 397 2203 397 
Q 2534 397 2845 478 
Q 3156 559 3463 722 
L 3463 178 
Q 3153 47 2828 -22 
Q 2503 -91 2169 -91 
Q 1331 -91 842 396 
Q 353 884 353 1716 
Q 353 2575 817 3079 
Q 1281 3584 2069 3584 
Q 2775 3584 3186 3129 
Q 3597 2675 3597 1894 
z
M 3022 2063 
Q 3016 2534 2758 2815 
Q 2500 3097 2075 3097 
Q 1594 3097 1305 2825 
Q 1016 2553 972 2059 
L 3022 2063 
z
" transform="scale(0.015625)"/>
      </defs>
      <use xlink:href="#DejaVuSans-44"/>
      <use xlink:href="#DejaVuSans-61" transform="translate(77.001953 0)"/>
      <use xlink:href="#DejaVuSans-74" transform="translate(138.28125 0)"/>
      <use xlink:href="#DejaVuSans-65" transform="translate(177.490234 0)"/>
     </g>
    </g>
   </g>
   <g id="matplotlib.axis_2">
    <g id="ytick_1">
     <g id="line2d_11">
      <path d="M 48.90125 331.82674 
L 848.35125 331.82674 
" clip-path="url(#pf47690df9a)" style="fill: none; stroke-dasharray: 2.96,1.28; stroke-dashoffset: 0; stroke: #b0b0b0; stroke-opacity: 0.3; stroke-width: 0.8"/>
     </g>
     <g id="line2d_12">
      <defs>
       <path id="mbcd8596086" d="M 0 0 
L -3.5 0 
" style="stroke: #000000; stroke-width: 0.8"/>
      </defs>
      <g>
       <use xlink:href="#mbcd8596086" x="48.90125" y="331.82674" style="stroke: #000000; stroke-width: 0.8"/>
      </g>
     </g>
     <g id="text_7">
      <!-- 0 -->
      <g transform="translate(35.53875 335.625958) scale(0.1 -0.1)">
       <use xlink:href="#DejaVuSans-30"/>
      </g>
     </g>
    </g>
    <g id="ytick_2">
     <g id="line2d_13">
      <path d="M 48.90125 260.98318 
L 848.35125 260.98318 
" clip-path="url(#pf47690df9a)" style="fill: none; stroke-dasharray: 2.96,1.28; stroke-dashoffset: 0; stroke: #b0b0b0; stroke-opacity: 0.3; stroke-width: 0.8"/>
     </g>
     <g id="line2d_14">
      <g>
       <use xlink:href="#mbcd8596086" x="48.90125" y="260.98318" style="stroke: #000000; stroke-width: 0.8"/>
      </g>
     </g>
     <g id="text_8">
      <!-- 50 -->
      <g transform="translate(29.17625 264.782399) scale(0.1 -0.1)">
       <use xlink:href="#DejaVuSans-35"/>
       <use xlink:href="#DejaVuSans-30" transform="translate(63.623047 0)"/>
      </g>
     </g>
    </g>
    <g id="ytick_3">
     <g id="line2d_15">
      <path d="M 48.90125 190.13962 
L 848.35125 190.13962 
" clip-path="url(#pf47690df9a)" style="fill: none; stroke-dasharray: 2.96,1.28; stroke-dashoffset: 0; stroke: #b0b0b0; stroke-opacity: 0.3; stroke-width: 0.8"/>
     </g>
     <g id="line2d_16">
      <g>
       <use xlink:href="#mbcd8596086" x="48.90125" y="190.13962" style="stroke: #000000; stroke-width: 0.8"/>
      </g>
     </g>
     <g id="text_9">
      <!-- 100 -->
      <g transform="translate(22.81375 193.938839) scale(0.1 -0.1)">
       <use xlink:href="#DejaVuSans-31"/>
       <use xlink:href="#DejaVuSans-30" transform="translate(63.623047 0)"/>
       <use xlink:href="#DejaVuSans-30" transform="translate(127.246094 0)"/>
      </g>
     </g>
    </g>
    <g id="ytick_4">
     <g id="line2d_17">
      <path d="M 48.90125 119.29606 
L 848.35125 119.29606 
" clip-path="url(#pf47690df9a)" style="fill: none; stroke-dasharray: 2.96,1.28; stroke-dashoffset: 0; stroke: #b0b0b0; stroke-opacity: 0.3; stroke-width: 0.8"/>
     </g>
     <g id="line2d_18">
      <g>
       <use xlink:href="#mbcd8596086" x="48.90125" y="119.29606" style="stroke: #000000; stroke-width: 0.8"/>
      </g>
     </g>
     <g id="text_10">
      <!-- 150 -->
      <g transform="translate(22.81375 123.095279) scale(0.1 -0.1)">
       <use xlink:href="#DejaVuSans-31"/>
       <use xlink:href="#DejaVuSans-35" transform="translate(63.623047 0)"/>
       <use xlink:href="#DejaVuSans-30" transform="translate(127.246094 0)"/>
      </g>
     </g>
    </g>
    <g id="ytick_5">
     <g id="line2d_19">
      <path d="M 48.90125 48.4525 
L 848.35125 48.4525 
" clip-path="url(#pf47690df9a)" style="fill: none; stroke-dasharray: 2.96,1.28; stroke-dashoffset: 0; stroke: #b0b0b0; stroke-opacity: 0.3; stroke-width: 0.8"/>
     </g>
     <g id="line2d_20">
      <g>
       <use xlink:href="#mbcd8596086" x="48.90125" y="48.4525" style="stroke: #000000; stroke-width: 0.8"/>
      </g>
     </g>
     <g id="text_11">
      <!-- 200 -->
      <g transform="translate(22.81375 52.251719) scale(0.1 -0.1)">
       <use xlink:href="#DejaVuSans-32"/>
       <use xlink:href="#DejaVuSans-30" transform="translate(63.623047 0)"/>
       <use xlink:href="#DejaVuSans-30" transform="translate(127.246094 0)"/>
      </g>
     </g>
    </g>
    <g id="text_12">
     <!-- Total Downloads -->
     <g transform="translate(16.318125 234.758069) rotate(-90) scale(0.12 -0.12)">
      <defs>
       <path id="DejaVuSans-54" d="M -19 4666 
L 3928 4666 
L 3928 4134 
L 2272 4134 
L 2272 0 
L 1638 0 
L 1638 4134 
L -19 4134 
L -19 4666 
z
" transform="scale(0.015625)"/>
       <path id="DejaVuSans-6f" d="M 1959 3097 
Q 1497 3097 1228 2736 
Q 959 2375 959 1747 
Q 959 1119 1226 758 
Q 1494 397 1959 397 
Q 2419 397 2687 759 
Q 2956 1122 2956 1747 
Q 2956 2369 2687 2733 
Q 2419 3097 1959 3097 
z
M 1959 3584 
Q 2709 3584 3137 3096 
Q 3566 2609 3566 1747 
Q 3566 888 3137 398 
Q 2709 -91 1959 -91 
Q 1206 -91 779 398 
Q 353 888 353 1747 
Q 353 2609 779 3096 
Q 1206 3584 1959 3584 
z
" transform="scale(0.015625)"/>
       <path id="DejaVuSans-6c" d="M 603 4863 
L 1178 4863 
L 1178 0 
L 603 0 
L 603 4863 
z
" transform="scale(0.015625)"/>
       <path id="DejaVuSans-20" transform="scale(0.015625)"/>
       <path id="DejaVuSans-77" d="M 269 3500 
L 844 3500 
L 1563 769 
L 2278 3500 
L 2956 3500 
L 3675 769 
L 4391 3500 
L 4966 3500 
L 4050 0 
L 3372 0 
L 2619 2869 
L 1863 0 
L 1184 0 
L 269 3500 
z
" transform="scale(0.015625)"/>
       <path id="DejaVuSans-6e" d="M 3513 2113 
L 3513 0 
L 2938 0 
L 2938 2094 
Q 2938 2591 2744 2837 
Q 2550 3084 2163 3084 
Q 1697 3084 1428 2787 
Q 1159 2491 1159 1978 
L 1159 0 
L 581 0 
L 581 3500 
L 1159 3500 
L 1159 2956 
Q 1366 3272 1645 3428 
Q 1925 3584 2291 3584 
Q 2894 3584 3203 3211 
Q 3513 2838 3513 2113 
z
" transform="scale(0.015625)"/>
       <path id="DejaVuSans-64" d="M 2906 2969 
L 2906 4863 
L 3481 4863 
L 3481 0 
L 2906 0 
L 2906 525 
Q 2725 213 2448 61 
Q 2172 -91 1784 -91 
Q 1150 -91 751 415 
Q 353 922 353 1747 
Q 353 2572 751 3078 
Q 1150 3584 1784 3584 
Q 2172 3584 2448 3432 
Q 2725 3281 2906 2969 
z
M 947 1747 
Q 947 1113 1208 752 
Q 1469 391 1925 391 
Q 2381 391 2643 752 
Q 2906 1113 2906 1747 
Q 2906 2381 2643 2742 
Q 2381 3103 1925 3103 
Q 1469 3103 1208 2742 
Q 947 2381 947 1747 
z
" transform="scale(0.015625)"/>
       <path id="DejaVuSans-73" d="M 2834 3397 
L 2834 2853 
Q 2591 2978 2328 3040 
Q 2066 3103 1784 3103 
Q 1356 3103 1142 2972 
Q 928 2841 928 2578 
Q 928 2378 1081 2264 
Q 1234 2150 1697 2047 
L 1894 2003 
Q 2506 1872 2764 1633 
Q 3022 1394 3022 966 
Q 3022 478 2636 193 
Q 2250 -91 1575 -91 
Q 1294 -91 989 -36 
Q 684 19 347 128 
L 347 722 
Q 666 556 975 473 
Q 1284 391 1588 391 
Q 1994 391 2212 530 
Q 2431 669 2431 922 
Q 2431 1156 2273 1281 
Q 2116 1406 1581 1522 
L 1381 1569 
Q 847 1681 609 1914 
Q 372 2147 372 2553 
Q 372 3047 722 3315 
Q 1072 3584 1716 3584 
Q 2034 3584 2315 3537 
Q 2597 3491 2834 3397 
z
" transform="scale(0.015625)"/>
      </defs>
      <use xlink:href="#DejaVuSans-54"/>
      <use xlink:href="#DejaVuSans-6f" transform="translate(44.083984 0)"/>
      <use xlink:href="#DejaVuSans-74" transform="translate(105.265625 0)"/>
      <use xlink:href="#DejaVuSans-61" transform="translate(144.474609 0)"/>
      <use xlink:href="#DejaVuSans-6c" transform="translate(205.753906 0)"/>
      <use xlink:href="#DejaVuSans-20" transform="translate(233.537109 0)"/>
      <use xlink:href="#DejaVuSans-44" transform="translate(265.324219 0)"/>
      <use xlink:href="#DejaVuSans-6f" transform="translate(342.326172 0)"/>
      <use xlink:href="#DejaVuSans-77" transform="translate(403.507812 0)"/>
      <use xlink:href="#DejaVuSans-6e" transform="translate(485.294922 0)"/>
      <use xlink:href="#DejaVuSans-6c" transform="translate(548.673828 0)"/>
      <use xlink:href="#DejaVuSans-6f" transform="translate(576.457031 0)"/>
      <use xlink:href="#DejaVuSans-61" transform="translate(637.638672 0)"/>
      <use xlink:href="#DejaVuSans-64" transform="translate(698.917969 0)"/>
      <use xlink:href="#DejaVuSans-73" transform="translate(762.394531 0)"/>
     </g>
    </g>
   </g>
   <g id="line2d_21">
    <path d="M 85.239886 201.47459 
L 94.678493 175.970908 
L 104.1171 174.554037 
L 113.555707 173.137166 
L 122.994314 171.720295 
L 132.432921 168.886552 
L 141.871527 167.469681 
L 151.310134 166.05281 
L 160.748741 164.635939 
L 170.187348 163.219067 
L 179.625955 161.802196 
L 189.064562 160.385325 
L 198.503169 158.968454 
L 207.941775 157.551583 
L 217.380382 156.134711 
L 226.818989 154.71784 
L 236.257596 153.300969 
L 245.696203 151.884098 
L 255.13481 149.050355 
L 264.573416 147.633484 
L 274.012023 146.216613 
L 283.45063 143.382871 
L 292.889237 141.965999 
L 302.327844 140.549128 
L 311.766451 130.63103 
L 321.205058 129.214159 
L 330.643664 127.797287 
L 340.082271 126.380416 
L 349.520878 124.963545 
L 358.959485 123.546674 
L 368.398092 122.129803 
L 377.836699 120.712932 
L 387.275305 119.29606 
L 396.713912 117.879189 
L 406.152519 116.462318 
L 415.591126 115.045447 
L 425.029733 113.628576 
L 434.46834 112.211704 
L 443.906947 110.794833 
L 453.345553 109.377962 
L 462.78416 107.961091 
L 472.222767 106.54422 
L 481.661374 105.127348 
L 491.099981 103.710477 
L 500.538588 102.293606 
L 509.977195 100.876735 
L 519.415801 99.459864 
L 528.854408 98.042992 
L 538.293015 96.626121 
L 547.731622 93.792379 
L 557.170229 92.375508 
L 566.608836 90.958636 
L 576.047442 89.541765 
L 585.486049 88.124894 
L 594.924656 86.708023 
L 604.363263 85.291152 
L 613.80187 83.87428 
L 623.240477 82.457409 
L 632.679084 81.040538 
L 642.11769 79.623667 
L 651.556297 69.705568 
L 660.994904 68.288697 
L 670.433511 66.871826 
L 679.872118 65.454955 
L 689.310725 64.038084 
L 698.749331 62.621212 
L 708.187938 61.204341 
L 717.626545 54.119985 
L 727.065152 52.703114 
L 736.503759 51.286243 
L 745.942366 49.869372 
L 755.380973 48.4525 
L 764.819579 47.035629 
L 774.258186 45.618758 
L 783.696793 44.201887 
L 793.1354 42.785016 
L 802.574007 41.368145 
L 812.012614 39.951273 
" clip-path="url(#pf47690df9a)" style="fill: none; stroke: #0366d6; stroke-width: 2; stroke-linecap: square"/>
    <defs>
     <path id="m77f3ba8866" d="M 0 3 
C 0.795609 3 1.55874 2.683901 2.12132 2.12132 
C 2.683901 1.55874 3 0.795609 3 0 
C 3 -0.795609 2.683901 -1.55874 2.12132 -2.12132 
C 1.55874 -2.683901 0.795609 -3 0 -3 
C -0.795609 -3 -1.55874 -2.683901 -2.12132 -2.12132 
C -2.683901 -1.55874 -3 -0.795609 -3 0 
C -3 0.795609 -2.683901 1.55874 -2.12132 2.12132 
C -1.55874 2.683901 -0.795609 3 0 3 
z
" style="stroke: #ffffff; stroke-width: 1.5"/>
    </defs>
    <g clip-path="url(#pf47690df9a)">
     <use xlink:href="#m77f3ba8866" x="85.239886" y="201.47459" style="fill: #0366d6; stroke: #ffffff; stroke-width: 1.5"/>
     <use xlink:href="#m77f3ba8866" x="94.678493" y="175.970908" style="fill: #0366d6; stroke: #ffffff; stroke-width: 1.5"/>
     <use xlink:href="#m77f3ba8866" x="104.1171" y="174.554037" style="fill: #0366d6; stroke: #ffffff; stroke-width: 1.5"/>
     <use xlink:href="#m77f3ba8866" x="113.555707" y="173.137166" style="fill: #0366d6; stroke: #ffffff; stroke-width: 1.5"/>
     <use xlink:href="#m77f3ba8866" x="122.994314" y="171.720295" style="fill: #0366d6; stroke: #ffffff; stroke-width: 1.5"/>
     <use xlink:href="#m77f3ba8866" x="132.432921" y="168.886552" style="fill: #0366d6; stroke: #ffffff; stroke-width: 1.5"/>
     <use xlink:href="#m77f3ba8866" x="141.871527" y="167.469681" style="fill: #0366d6; stroke: #ffffff; stroke-width: 1.5"/>
     <use xlink:href="#m77f3ba8866" x="151.310134" y="166.05281" style="fill: #0366d6; stroke: #ffffff; stroke-width: 1.5"/>
     <use xlink:href="#m77f3ba8866" x="160.748741" y="164.635939" style="fill: #0366d6; stroke: #ffffff; stroke-width: 1.5"/>
     <use xlink:href="#m77f3ba8866" x="170.187348" y="163.219067" style="fill: #0366d6; stroke: #ffffff; stroke-width: 1.5"/>
     <use xlink:href="#m77f3ba8866" x="179.625955" y="161.802196" style="fill: #0366d6; stroke: #ffffff; stroke-width: 1.5"/>
     <use xlink:href="#m77f3ba8866" x="189.064562" y="160.385325" style="fill: #0366d6; stroke: #ffffff; stroke-width: 1.5"/>
     <use xlink:href="#m77f3ba8866" x="198.503169" y="158.968454" style="fill: #0366d6; stroke: #ffffff; stroke-width: 1.5"/>
     <use xlink:href="#m77f3ba8866" x="207.941775" y="157.551583" style="fill: #0366d6; stroke: #ffffff; stroke-width: 1.5"/>
     <use xlink:href="#m77f3ba8866" x="217.380382" y="156.134711" style="fill: #0366d6; stroke: #ffffff; stroke-width: 1.5"/>
     <use xlink:href="#m77f3ba8866" x="226.818989" y="154.71784" style="fill: #0366d6; stroke: #ffffff; stroke-width: 1.5"/>
     <use xlink:href="#m77f3ba8866" x="236.257596" y="153.300969" style="fill: #0366d6; stroke: #ffffff; stroke-width: 1.5"/>
     <use xlink:href="#m77f3ba8866" x="245.696203" y="151.884098" style="fill: #0366d6; stroke: #ffffff; stroke-width: 1.5"/>
     <use xlink:href="#m77f3ba8866" x="255.13481" y="149.050355" style="fill: #0366d6; stroke: #ffffff; stroke-width: 1.5"/>
     <use xlink:href="#m77f3ba8866" x="264.573416" y="147.633484" style="fill: #0366d6; stroke: #ffffff; stroke-width: 1.5"/>
     <use xlink:href="#m77f3ba8866" x="274.012023" y="146.216613" style="fill: #0366d6; stroke: #ffffff; stroke-width: 1.5"/>
     <use xlink:href="#m77f3ba8866" x="283.45063" y="143.382871" style="fill: #0366d6; stroke: #ffffff; stroke-width: 1.5"/>
     <use xlink:href="#m77f3ba8866" x="292.889237" y="141.965999" style="fill: #0366d6; stroke: #ffffff; stroke-width: 1.5"/>
     <use xlink:href="#m77f3ba8866" x="302.327844" y="140.549128" style="fill: #0366d6; stroke: #ffffff; stroke-width: 1.5"/>
     <use xlink:href="#m77f3ba8866" x="311.766451" y="130.63103" style="fill: #0366d6; stroke: #ffffff; stroke-width: 1.5"/>
     <use xlink:href="#m77f3ba8866" x="321.205058" y="129.214159" style="fill: #0366d6; stroke: #ffffff; stroke-width: 1.5"/>
     <use xlink:href="#m77f3ba8866" x="330.643664" y="127.797287" style="fill: #0366d6; stroke: #ffffff; stroke-width: 1.5"/>
     <use xlink:href="#m77f3ba8866" x="340.082271" y="126.380416" style="fill: #0366d6; stroke: #ffffff; stroke-width: 1.5"/>
     <use xlink:href="#m77f3ba8866" x="349.520878" y="124.963545" style="fill: #0366d6; stroke: #ffffff; stroke-width: 1.5"/>
     <use xlink:href="#m77f3ba8866" x="358.959485" y="123.546674" style="fill: #0366d6; stroke: #ffffff; stroke-width: 1.5"/>
     <use xlink:href="#m77f3ba8866" x="368.398092" y="122.129803" style="fill: #0366d6; stroke: #ffffff; stroke-width: 1.5"/>
     <use xlink:href="#m77f3ba8866" x="377.836699" y="120.712932" style="fill: #0366d6; stroke: #ffffff; stroke-width: 1.5"/>
     <use xlink:href="#m77f3ba8866" x="387.275305" y="119.29606" style="fill: #0366d6; stroke: #ffffff; stroke-width: 1.5"/>
     <use xlink:href="#m77f3ba8866" x="396.713912" y="117.879189" style="fill: #0366d6; stroke: #ffffff; stroke-width: 1.5"/>
     <use xlink:href="#m77f3ba8866" x="406.152519" y="116.462318" style="fill: #0366d6; stroke: #ffffff; stroke-width: 1.5"/>
     <use xlink:href="#m77f3ba8866" x="415.591126" y="115.045447" style="fill: #0366d6; stroke: #ffffff; stroke-width: 1.5"/>
     <use xlink:href="#m77f3ba8866" x="425.029733" y="113.628576" style="fill: #0366d6; stroke: #ffffff; stroke-width: 1.5"/>
     <use xlink:href="#m77f3ba8866" x="434.46834" y="112.211704" style="fill: #0366d6; stroke: #ffffff; stroke-width: 1.5"/>
     <use xlink:href="#m77f3ba8866" x="443.906947" y="110.794833" style="fill: #0366d6; stroke: #ffffff; stroke-width: 1.5"/>
     <use xlink:href="#m77f3ba8866" x="453.345553" y="109.377962" style="fill: #0366d6; stroke: #ffffff; stroke-width: 1.5"/>
     <use xlink:href="#m77f3ba8866" x="462.78416" y="107.961091" style="fill: #0366d6; stroke: #ffffff; stroke-width: 1.5"/>
     <use xlink:href="#m77f3ba8866" x="472.222767" y="106.54422" style="fill: #0366d6; stroke: #ffffff; stroke-width: 1.5"/>
     <use xlink:href="#m77f3ba8866" x="481.661374" y="105.127348" style="fill: #0366d6; stroke: #ffffff; stroke-width: 1.5"/>
     <use xlink:href="#m77f3ba8866" x="491.099981" y="103.710477" style="fill: #0366d6; stroke: #ffffff; stroke-width: 1.5"/>
     <use xlink:href="#m77f3ba8866" x="500.538588" y="102.293606" style="fill: #0366d6; stroke: #ffffff; stroke-width: 1.5"/>
     <use xlink:href="#m77f3ba8866" x="509.977195" y="100.876735" style="fill: #0366d6; stroke: #ffffff; stroke-width: 1.5"/>
     <use xlink:href="#m77f3ba8866" x="519.415801" y="99.459864" style="fill: #0366d6; stroke: #ffffff; stroke-width: 1.5"/>
     <use xlink:href="#m77f3ba8866" x="528.854408" y="98.042992" style="fill: #0366d6; stroke: #ffffff; stroke-width: 1.5"/>
     <use xlink:href="#m77f3ba8866" x="538.293015" y="96.626121" style="fill: #0366d6; stroke: #ffffff; stroke-width: 1.5"/>
     <use xlink:href="#m77f3ba8866" x="547.731622" y="93.792379" style="fill: #0366d6; stroke: #ffffff; stroke-width: 1.5"/>
     <use xlink:href="#m77f3ba8866" x="557.170229" y="92.375508" style="fill: #0366d6; stroke: #ffffff; stroke-width: 1.5"/>
     <use xlink:href="#m77f3ba8866" x="566.608836" y="90.958636" style="fill: #0366d6; stroke: #ffffff; stroke-width: 1.5"/>
     <use xlink:href="#m77f3ba8866" x="576.047442" y="89.541765" style="fill: #0366d6; stroke: #ffffff; stroke-width: 1.5"/>
     <use xlink:href="#m77f3ba8866" x="585.486049" y="88.124894" style="fill: #0366d6; stroke: #ffffff; stroke-width: 1.5"/>
     <use xlink:href="#m77f3ba8866" x="594.924656" y="86.708023" style="fill: #0366d6; stroke: #ffffff; stroke-width: 1.5"/>
     <use xlink:href="#m77f3ba8866" x="604.363263" y="85.291152" style="fill: #0366d6; stroke: #ffffff; stroke-width: 1.5"/>
     <use xlink:href="#m77f3ba8866" x="613.80187" y="83.87428" style="fill: #0366d6; stroke: #ffffff; stroke-width: 1.5"/>
     <use xlink:href="#m77f3ba8866" x="623.240477" y="82.457409" style="fill: #0366d6; stroke: #ffffff; stroke-width: 1.5"/>
     <use xlink:href="#m77f3ba8866" x="632.679084" y="81.040538" style="fill: #0366d6; stroke: #ffffff; stroke-width: 1.5"/>
     <use xlink:href="#m77f3ba8866" x="642.11769" y="79.623667" style="fill: #0366d6; stroke: #ffffff; stroke-width: 1.5"/>
     <use xlink:href="#m77f3ba8866" x="651.556297" y="69.705568" style="fill: #0366d6; stroke: #ffffff; stroke-width: 1.5"/>
     <use xlink:href="#m77f3ba8866" x="660.994904" y="68.288697" style="fill: #0366d6; stroke: #ffffff; stroke-width: 1.5"/>
     <use xlink:href="#m77f3ba8866" x="670.433511" y="66.871826" style="fill: #0366d6; stroke: #ffffff; stroke-width: 1.5"/>
     <use xlink:href="#m77f3ba8866" x="679.872118" y="65.454955" style="fill: #0366d6; stroke: #ffffff; stroke-width: 1.5"/>
     <use xlink:href="#m77f3ba8866" x="689.310725" y="64.038084" style="fill: #0366d6; stroke: #ffffff; stroke-width: 1.5"/>
     <use xlink:href="#m77f3ba8866" x="698.749331" y="62.621212" style="fill: #0366d6; stroke: #ffffff; stroke-width: 1.5"/>
     <use xlink:href="#m77f3ba8866" x="708.187938" y="61.204341" style="fill: #0366d6; stroke: #ffffff; stroke-width: 1.5"/>
     <use xlink:href="#m77f3ba8866" x="717.626545" y="54.119985" style="fill: #0366d6; stroke: #ffffff; stroke-width: 1.5"/>
     <use xlink:href="#m77f3ba8866" x="727.065152" y="52.703114" style="fill: #0366d6; stroke: #ffffff; stroke-width: 1.5"/>
     <use xlink:href="#m77f3ba8866" x="736.503759" y="51.286243" style="fill: #0366d6; stroke: #ffffff; stroke-width: 1.5"/>
     <use xlink:href="#m77f3ba8866" x="745.942366" y="49.869372" style="fill: #0366d6; stroke: #ffffff; stroke-width: 1.5"/>
     <use xlink:href="#m77f3ba8866" x="755.380973" y="48.4525" style="fill: #0366d6; stroke: #ffffff; stroke-width: 1.5"/>
     <use xlink:href="#m77f3ba8866" x="764.819579" y="47.035629" style="fill: #0366d6; stroke: #ffffff; stroke-width: 1.5"/>
     <use xlink:href="#m77f3ba8866" x="774.258186" y="45.618758" style="fill: #0366d6; stroke: #ffffff; stroke-width: 1.5"/>
     <use xlink:href="#m77f3ba8866" x="783.696793" y="44.201887" style="fill: #0366d6; stroke: #ffffff; stroke-width: 1.5"/>
     <use xlink:href="#m77f3ba8866" x="793.1354" y="42.785016" style="fill: #0366d6; stroke: #ffffff; stroke-width: 1.5"/>
     <use xlink:href="#m77f3ba8866" x="802.574007" y="41.368145" style="fill: #0366d6; stroke: #ffffff; stroke-width: 1.5"/>
     <use xlink:href="#m77f3ba8866" x="812.012614" y="39.951273" style="fill: #0366d6; stroke: #ffffff; stroke-width: 1.5"/>
    </g>
   </g>
   <g id="patch_3">
    <path d="M 48.90125 346.420513 
L 48.90125 25.3575 
" style="fill: none; stroke: #000000; stroke-width: 0.8; stroke-linejoin: miter; stroke-linecap: square"/>
   </g>
   <g id="patch_4">
    <path d="M 848.35125 346.420513 
L 848.35125 25.3575 
" style="fill: none; stroke: #000000; stroke-width: 0.8; stroke-linejoin: miter; stroke-linecap: square"/>
   </g>
   <g id="patch_5">
    <path d="M 48.90125 346.420513 
L 848.35125 346.420513 
" style="fill: none; stroke: #000000; stroke-width: 0.8; stroke-linejoin: miter; stroke-linecap: square"/>
   </g>
   <g id="patch_6">
    <path d="M 48.90125 25.3575 
L 848.35125 25.3575 
" style="fill: none; stroke: #000000; stroke-width: 0.8; stroke-linejoin: miter; stroke-linecap: square"/>
   </g>
   <g id="text_13">
    <g id="patch_7">
     <path d="M 669.9085 46.99251 
L 832.36225 46.99251 
Q 835.96225 46.99251 835.96225 43.39251 
L 835.96225 31.77876 
Q 835.96225 28.17876 832.36225 28.17876 
L 669.9085 28.17876 
Q 666.3085 28.17876 666.3085 31.77876 
L 666.3085 43.39251 
Q 666.3085 46.99251 669.9085 46.99251 
z
" style="fill: #ffffff; opacity: 0.8; stroke: #000000; stroke-linejoin: miter"/>
    </g>
    <!-- Current: 206 downloads -->
    <g transform="translate(669.9085 40.896885) scale(0.12 -0.12)">
     <defs>
      <path id="DejaVuSans-Bold-43" d="M 4288 256 
Q 3956 84 3597 -3 
Q 3238 -91 2847 -91 
Q 1681 -91 1000 561 
Q 319 1213 319 2328 
Q 319 3447 1000 4098 
Q 1681 4750 2847 4750 
Q 3238 4750 3597 4662 
Q 3956 4575 4288 4403 
L 4288 3438 
Q 3953 3666 3628 3772 
Q 3303 3878 2944 3878 
Q 2300 3878 1931 3465 
Q 1563 3053 1563 2328 
Q 1563 1606 1931 1193 
Q 2300 781 2944 781 
Q 3303 781 3628 887 
Q 3953 994 4288 1222 
L 4288 256 
z
" transform="scale(0.015625)"/>
      <path id="DejaVuSans-Bold-75" d="M 500 1363 
L 500 3500 
L 1625 3500 
L 1625 3150 
Q 1625 2866 1622 2436 
Q 1619 2006 1619 1863 
Q 1619 1441 1641 1255 
Q 1663 1069 1716 984 
Q 1784 875 1895 815 
Q 2006 756 2150 756 
Q 2500 756 2700 1025 
Q 2900 1294 2900 1772 
L 2900 3500 
L 4019 3500 
L 4019 0 
L 2900 0 
L 2900 506 
Q 2647 200 2364 54 
Q 2081 -91 1741 -91 
Q 1134 -91 817 281 
Q 500 653 500 1363 
z
" transform="scale(0.015625)"/>
      <path id="DejaVuSans-Bold-72" d="M 3138 2547 
Q 2991 2616 2845 2648 
Q 2700 2681 2553 2681 
Q 2122 2681 1889 2404 
Q 1656 2128 1656 1613 
L 1656 0 
L 538 0 
L 538 3500 
L 1656 3500 
L 1656 2925 
Q 1872 3269 2151 3426 
Q 2431 3584 2822 3584 
Q 2878 3584 2943 3579 
Q 3009 3575 3134 3559 
L 3138 2547 
z
" transform="scale(0.015625)"/>
      <path id="DejaVuSans-Bold-65" d="M 4031 1759 
L 4031 1441 
L 1416 1441 
Q 1456 1047 1700 850 
Q 1944 653 2381 653 
Q 2734 653 3104 758 
Q 3475 863 3866 1075 
L 3866 213 
Q 3469 63 3072 -14 
Q 2675 -91 2278 -91 
Q 1328 -91 801 392 
Q 275 875 275 1747 
Q 275 2603 792 3093 
Q 1309 3584 2216 3584 
Q 3041 3584 3536 3087 
Q 4031 2591 4031 1759 
z
M 2881 2131 
Q 2881 2450 2695 2645 
Q 2509 2841 2209 2841 
Q 1884 2841 1681 2658 
Q 1478 2475 1428 2131 
L 2881 2131 
z
" transform="scale(0.015625)"/>
      <path id="DejaVuSans-Bold-6e" d="M 4056 2131 
L 4056 0 
L 2931 0 
L 2931 347 
L 2931 1631 
Q 2931 2084 2911 2256 
Q 2891 2428 2841 2509 
Q 2775 2619 2662 2680 
Q 2550 2741 2406 2741 
Q 2056 2741 1856 2470 
Q 1656 2200 1656 1722 
L 1656 0 
L 538 0 
L 538 3500 
L 1656 3500 
L 1656 2988 
Q 1909 3294 2193 3439 
Q 2478 3584 2822 3584 
Q 3428 3584 3742 3212 
Q 4056 2841 4056 2131 
z
" transform="scale(0.015625)"/>
      <path id="DejaVuSans-Bold-74" d="M 1759 4494 
L 1759 3500 
L 2913 3500 
L 2913 2700 
L 1759 2700 
L 1759 1216 
Q 1759 972 1856 886 
Q 1953 800 2241 800 
L 2816 800 
L 2816 0 
L 1856 0 
Q 1194 0 917 276 
Q 641 553 641 1216 
L 641 2700 
L 84 2700 
L 84 3500 
L 641 3500 
L 641 4494 
L 1759 4494 
z
" transform="scale(0.015625)"/>
      <path id="DejaVuSans-Bold-3a" d="M 716 3500 
L 1844 3500 
L 1844 2291 
L 716 2291 
L 716 3500 
z
M 716 1209 
L 1844 1209 
L 1844 0 
L 716 0 
L 716 1209 
z
" transform="scale(0.015625)"/>
      <path id="DejaVuSans-Bold-20" transform="scale(0.015625)"/>
      <path id="DejaVuSans-Bold-32" d="M 1844 884 
L 3897 884 
L 3897 0 
L 506 0 
L 506 884 
L 2209 2388 
Q 2438 2594 2547 2791 
Q 2656 2988 2656 3200 
Q 2656 3528 2436 3728 
Q 2216 3928 1850 3928 
Q 1569 3928 1234 3808 
Q 900 3688 519 3450 
L 519 4475 
Q 925 4609 1322 4679 
Q 1719 4750 2100 4750 
Q 2938 4750 3402 4381 
Q 3866 4013 3866 3353 
Q 3866 2972 3669 2642 
Q 3472 2313 2841 1759 
L 1844 884 
z
" transform="scale(0.015625)"/>
      <path id="DejaVuSans-Bold-30" d="M 2944 2338 
Q 2944 3213 2780 3570 
Q 2616 3928 2228 3928 
Q 1841 3928 1675 3570 
Q 1509 3213 1509 2338 
Q 1509 1453 1675 1090 
Q 1841 728 2228 728 
Q 2613 728 2778 1090 
Q 2944 1453 2944 2338 
z
M 4147 2328 
Q 4147 1169 3647 539 
Q 3147 -91 2228 -91 
Q 1306 -91 806 539 
Q 306 1169 306 2328 
Q 306 3491 806 4120 
Q 1306 4750 2228 4750 
Q 3147 4750 3647 4120 
Q 4147 3491 4147 2328 
z
" transform="scale(0.015625)"/>
      <path id="DejaVuSans-Bold-36" d="M 2316 2303 
Q 2000 2303 1842 2098 
Q 1684 1894 1684 1484 
Q 1684 1075 1842 870 
Q 2000 666 2316 666 
Q 2634 666 2792 870 
Q 2950 1075 2950 1484 
Q 2950 1894 2792 2098 
Q 2634 2303 2316 2303 
z
M 3803 4544 
L 3803 3681 
Q 3506 3822 3243 3889 
Q 2981 3956 2731 3956 
Q 2194 3956 1894 3657 
Q 1594 3359 1544 2772 
Q 1750 2925 1990 3001 
Q 2231 3078 2516 3078 
Q 3231 3078 3670 2659 
Q 4109 2241 4109 1563 
Q 4109 813 3618 361 
Q 3128 -91 2303 -91 
Q 1394 -91 895 523 
Q 397 1138 397 2266 
Q 397 3422 980 4083 
Q 1563 4744 2578 4744 
Q 2900 4744 3203 4694 
Q 3506 4644 3803 4544 
z
" transform="scale(0.015625)"/>
      <path id="DejaVuSans-Bold-64" d="M 2919 2988 
L 2919 4863 
L 4044 4863 
L 4044 0 
L 2919 0 
L 2919 506 
Q 2688 197 2409 53 
Q 2131 -91 1766 -91 
Q 1119 -91 703 423 
Q 288 938 288 1747 
Q 288 2556 703 3070 
Q 1119 3584 1766 3584 
Q 2128 3584 2408 3439 
Q 2688 3294 2919 2988 
z
M 2181 722 
Q 2541 722 2730 984 
Q 2919 1247 2919 1747 
Q 2919 2247 2730 2509 
Q 2541 2772 2181 2772 
Q 1825 2772 1636 2509 
Q 1447 2247 1447 1747 
Q 1447 1247 1636 984 
Q 1825 722 2181 722 
z
" transform="scale(0.015625)"/>
      <path id="DejaVuSans-Bold-6f" d="M 2203 2784 
Q 1831 2784 1636 2517 
Q 1441 2250 1441 1747 
Q 1441 1244 1636 976 
Q 1831 709 2203 709 
Q 2569 709 2762 976 
Q 2956 1244 2956 1747 
Q 2956 2250 2762 2517 
Q 2569 2784 2203 2784 
z
M 2203 3584 
Q 3106 3584 3614 3096 
Q 4122 2609 4122 1747 
Q 4122 884 3614 396 
Q 3106 -91 2203 -91 
Q 1297 -91 786 396 
Q 275 884 275 1747 
Q 275 2609 786 3096 
Q 1297 3584 2203 3584 
z
" transform="scale(0.015625)"/>
      <path id="DejaVuSans-Bold-77" d="M 225 3500 
L 1313 3500 
L 1900 1088 
L 2491 3500 
L 3425 3500 
L 4013 1113 
L 4603 3500 
L 5691 3500 
L 4769 0 
L 3547 0 
L 2956 2406 
L 2369 0 
L 1147 0 
L 225 3500 
z
" transform="scale(0.015625)"/>
      <path id="DejaVuSans-Bold-6c" d="M 538 4863 
L 1656 4863 
L 1656 0 
L 538 0 
L 538 4863 
z
" transform="scale(0.015625)"/>
      <path id="DejaVuSans-Bold-61" d="M 2106 1575 
Q 1756 1575 1579 1456 
Q 1403 1338 1403 1106 
Q 1403 894 1545 773 
Q 1688 653 1941 653 
Q 2256 653 2472 879 
Q 2688 1106 2688 1447 
L 2688 1575 
L 2106 1575 
z
M 3816 1997 
L 3816 0 
L 2688 0 
L 2688 519 
Q 2463 200 2181 54 
Q 1900 -91 1497 -91 
Q 953 -91 614 226 
Q 275 544 275 1050 
Q 275 1666 698 1953 
Q 1122 2241 2028 2241 
L 2688 2241 
L 2688 2328 
Q 2688 2594 2478 2717 
Q 2269 2841 1825 2841 
Q 1466 2841 1156 2769 
Q 847 2697 581 2553 
L 581 3406 
Q 941 3494 1303 3539 
Q 1666 3584 2028 3584 
Q 2975 3584 3395 3211 
Q 3816 2838 3816 1997 
z
" transform="scale(0.015625)"/>
      <path id="DejaVuSans-Bold-73" d="M 3272 3391 
L 3272 2541 
Q 2913 2691 2578 2766 
Q 2244 2841 1947 2841 
Q 1628 2841 1473 2761 
Q 1319 2681 1319 2516 
Q 1319 2381 1436 2309 
Q 1553 2238 1856 2203 
L 2053 2175 
Q 2913 2066 3209 1816 
Q 3506 1566 3506 1031 
Q 3506 472 3093 190 
Q 2681 -91 1863 -91 
Q 1516 -91 1145 -36 
Q 775 19 384 128 
L 384 978 
Q 719 816 1070 734 
Q 1422 653 1784 653 
Q 2113 653 2278 743 
Q 2444 834 2444 1013 
Q 2444 1163 2330 1236 
Q 2216 1309 1875 1350 
L 1678 1375 
Q 931 1469 631 1722 
Q 331 1975 331 2491 
Q 331 3047 712 3315 
Q 1094 3584 1881 3584 
Q 2191 3584 2531 3537 
Q 2872 3491 3272 3391 
z
" transform="scale(0.015625)"/>
     </defs>
     <use xlink:href="#DejaVuSans-Bold-43"/>
     <use xlink:href="#DejaVuSans-Bold-75" transform="translate(73.388672 0)"/>
     <use xlink:href="#DejaVuSans-Bold-72" transform="translate(144.580078 0)"/>
     <use xlink:href="#DejaVuSans-Bold-72" transform="translate(193.896484 0)"/>
     <use xlink:href="#DejaVuSans-Bold-65" transform="translate(243.212891 0)"/>
     <use xlink:href="#DejaVuSans-Bold-6e" transform="translate(311.035156 0)"/>
     <use xlink:href="#DejaVuSans-Bold-74" transform="translate(382.226562 0)"/>
     <use xlink:href="#DejaVuSans-Bold-3a" transform="translate(430.029297 0)"/>
     <use xlink:href="#DejaVuSans-Bold-20" transform="translate(470.019531 0)"/>
     <use xlink:href="#DejaVuSans-Bold-32" transform="translate(504.833984 0)"/>
     <use xlink:href="#DejaVuSans-Bold-30" transform="translate(574.414062 0)"/>
     <use xlink:href="#DejaVuSans-Bold-36" transform="translate(643.994141 0)"/>
     <use xlink:href="#DejaVuSans-Bold-20" transform="translate(713.574219 0)"/>
     <use xlink:href="#DejaVuSans-Bold-64" transform="translate(748.388672 0)"/>
     <use xlink:href="#DejaVuSans-Bold-6f" transform="translate(819.970703 0)"/>
     <use xlink:href="#DejaVuSans-Bold-77" transform="translate(888.671875 0)"/>
     <use xlink:href="#DejaVuSans-Bold-6e" transform="translate(981.054688 0)"/>
     <use xlink:href="#DejaVuSans-Bold-6c" transform="translate(1052.246094 0)"/>
     <use xlink:href="#DejaVuSans-Bold-6f" transform="translate(1086.523438 0)"/>
     <use xlink:href="#DejaVuSans-Bold-61" transform="translate(1155.224609 0)"/>
     <use xlink:href="#DejaVuSans-Bold-64" transform="translate(1222.705078 0)"/>
     <use xlink:href="#DejaVuSans-Bold-73" transform="translate(1294.287109 0)"/>
    </g>
   </g>
   <g id="text_14">
    <!-- FleetDM-PowerShell - PowerShell Gallery Downloads -->
    <g transform="translate(210.995 19.3575) scale(0.16 -0.16)">
     <defs>
      <path id="DejaVuSans-Bold-46" d="M 588 4666 
L 3834 4666 
L 3834 3756 
L 1791 3756 
L 1791 2888 
L 3713 2888 
L 3713 1978 
L 1791 1978 
L 1791 0 
L 588 0 
L 588 4666 
z
" transform="scale(0.015625)"/>
      <path id="DejaVuSans-Bold-44" d="M 1791 3756 
L 1791 909 
L 2222 909 
Q 2959 909 3348 1275 
Q 3738 1641 3738 2338 
Q 3738 3031 3350 3393 
Q 2963 3756 2222 3756 
L 1791 3756 
z
M 588 4666 
L 1856 4666 
Q 2919 4666 3439 4514 
Q 3959 4363 4331 4000 
Q 4659 3684 4818 3271 
Q 4978 2859 4978 2338 
Q 4978 1809 4818 1395 
Q 4659 981 4331 666 
Q 3956 303 3431 151 
Q 2906 0 1856 0 
L 588 0 
L 588 4666 
z
" transform="scale(0.015625)"/>
      <path id="DejaVuSans-Bold-4d" d="M 588 4666 
L 2119 4666 
L 3181 2169 
L 4250 4666 
L 5778 4666 
L 5778 0 
L 4641 0 
L 4641 3413 
L 3566 897 
L 2803 897 
L 1728 3413 
L 1728 0 
L 588 0 
L 588 4666 
z
" transform="scale(0.015625)"/>
      <path id="DejaVuSans-Bold-2d" d="M 347 2297 
L 2309 2297 
L 2309 1388 
L 347 1388 
L 347 2297 
z
" transform="scale(0.015625)"/>
      <path id="DejaVuSans-Bold-50" d="M 588 4666 
L 2584 4666 
Q 3475 4666 3951 4270 
Q 4428 3875 4428 3144 
Q 4428 2409 3951 2014 
Q 3475 1619 2584 1619 
L 1791 1619 
L 1791 0 
L 588 0 
L 588 4666 
z
M 1791 3794 
L 1791 2491 
L 2456 2491 
Q 2806 2491 2997 2661 
Q 3188 2831 3188 3144 
Q 3188 3456 2997 3625 
Q 2806 3794 2456 3794 
L 1791 3794 
z
" transform="scale(0.015625)"/>
      <path id="DejaVuSans-Bold-53" d="M 3834 4519 
L 3834 3531 
Q 3450 3703 3084 3790 
Q 2719 3878 2394 3878 
Q 1963 3878 1756 3759 
Q 1550 3641 1550 3391 
Q 1550 3203 1689 3098 
Q 1828 2994 2194 2919 
L 2706 2816 
Q 3484 2659 3812 2340 
Q 4141 2022 4141 1434 
Q 4141 663 3683 286 
Q 3225 -91 2284 -91 
Q 1841 -91 1394 -6 
Q 947 78 500 244 
L 500 1259 
Q 947 1022 1364 901 
Q 1781 781 2169 781 
Q 2563 781 2772 912 
Q 2981 1044 2981 1288 
Q 2981 1506 2839 1625 
Q 2697 1744 2272 1838 
L 1806 1941 
Q 1106 2091 782 2419 
Q 459 2747 459 3303 
Q 459 4000 909 4375 
Q 1359 4750 2203 4750 
Q 2588 4750 2994 4692 
Q 3400 4634 3834 4519 
z
" transform="scale(0.015625)"/>
      <path id="DejaVuSans-Bold-68" d="M 4056 2131 
L 4056 0 
L 2931 0 
L 2931 347 
L 2931 1625 
Q 2931 2084 2911 2256 
Q 2891 2428 2841 2509 
Q 2775 2619 2662 2680 
Q 2550 2741 2406 2741 
Q 2056 2741 1856 2470 
Q 1656 2200 1656 1722 
L 1656 0 
L 538 0 
L 538 4863 
L 1656 4863 
L 1656 2988 
Q 1909 3294 2193 3439 
Q 2478 3584 2822 3584 
Q 3428 3584 3742 3212 
Q 4056 2841 4056 2131 
z
" transform="scale(0.015625)"/>
      <path id="DejaVuSans-Bold-47" d="M 4781 347 
Q 4331 128 3847 18 
Q 3363 -91 2847 -91 
Q 1681 -91 1000 561 
Q 319 1213 319 2328 
Q 319 3456 1012 4103 
Q 1706 4750 2913 4750 
Q 3378 4750 3804 4662 
Q 4231 4575 4609 4403 
L 4609 3438 
Q 4219 3659 3833 3768 
Q 3447 3878 3059 3878 
Q 2341 3878 1952 3476 
Q 1563 3075 1563 2328 
Q 1563 1588 1938 1184 
Q 2313 781 3003 781 
Q 3191 781 3352 804 
Q 3513 828 3641 878 
L 3641 1784 
L 2906 1784 
L 2906 2591 
L 4781 2591 
L 4781 347 
z
" transform="scale(0.015625)"/>
      <path id="DejaVuSans-Bold-79" d="M 78 3500 
L 1197 3500 
L 2138 1125 
L 2938 3500 
L 4056 3500 
L 2584 -331 
Q 2363 -916 2067 -1148 
Q 1772 -1381 1288 -1381 
L 641 -1381 
L 641 -647 
L 991 -647 
Q 1275 -647 1404 -556 
Q 1534 -466 1606 -231 
L 1638 -134 
L 78 3500 
z
" transform="scale(0.015625)"/>
     </defs>
     <use xlink:href="#DejaVuSans-Bold-46"/>
     <use xlink:href="#DejaVuSans-Bold-6c" transform="translate(68.310547 0)"/>
     <use xlink:href="#DejaVuSans-Bold-65" transform="translate(102.587891 0)"/>
     <use xlink:href="#DejaVuSans-Bold-65" transform="translate(170.410156 0)"/>
     <use xlink:href="#DejaVuSans-Bold-74" transform="translate(238.232422 0)"/>
     <use xlink:href="#DejaVuSans-Bold-44" transform="translate(286.035156 0)"/>
     <use xlink:href="#DejaVuSans-Bold-4d" transform="translate(369.042969 0)"/>
     <use xlink:href="#DejaVuSans-Bold-2d" transform="translate(468.554688 0)"/>
     <use xlink:href="#DejaVuSans-Bold-50" transform="translate(510.058594 0)"/>
     <use xlink:href="#DejaVuSans-Bold-6f" transform="translate(583.349609 0)"/>
     <use xlink:href="#DejaVuSans-Bold-77" transform="translate(652.050781 0)"/>
     <use xlink:href="#DejaVuSans-Bold-65" transform="translate(744.433594 0)"/>
     <use xlink:href="#DejaVuSans-Bold-72" transform="translate(812.255859 0)"/>
     <use xlink:href="#DejaVuSans-Bold-53" transform="translate(861.572266 0)"/>
     <use xlink:href="#DejaVuSans-Bold-68" transform="translate(933.59375 0)"/>
     <use xlink:href="#DejaVuSans-Bold-65" transform="translate(1004.785156 0)"/>
     <use xlink:href="#DejaVuSans-Bold-6c" transform="translate(1072.607422 0)"/>
     <use xlink:href="#DejaVuSans-Bold-6c" transform="translate(1106.884766 0)"/>
     <use xlink:href="#DejaVuSans-Bold-20" transform="translate(1141.162109 0)"/>
     <use xlink:href="#DejaVuSans-Bold-2d" transform="translate(1175.976562 0)"/>
     <use xlink:href="#DejaVuSans-Bold-20" transform="translate(1217.480469 0)"/>
     <use xlink:href="#DejaVuSans-Bold-50" transform="translate(1252.294922 0)"/>
     <use xlink:href="#DejaVuSans-Bold-6f" transform="translate(1325.585938 0)"/>
     <use xlink:href="#DejaVuSans-Bold-77" transform="translate(1394.287109 0)"/>
     <use xlink:href="#DejaVuSans-Bold-65" transform="translate(1486.669922 0)"/>
     <use xlink:href="#DejaVuSans-Bold-72" transform="translate(1554.492188 0)"/>
     <use xlink:href="#DejaVuSans-Bold-53" transform="translate(1603.808594 0)"/>
     <use xlink:href="#DejaVuSans-Bold-68" transform="translate(1675.830078 0)"/>
     <use xlink:href="#DejaVuSans-Bold-65" transform="translate(1747.021484 0)"/>
     <use xlink:href="#DejaVuSans-Bold-6c" transform="translate(1814.84375 0)"/>
     <use xlink:href="#DejaVuSans-Bold-6c" transform="translate(1849.121094 0)"/>
     <use xlink:href="#DejaVuSans-Bold-20" transform="translate(1883.398438 0)"/>
     <use xlink:href="#DejaVuSans-Bold-47" transform="translate(1918.212891 0)"/>
     <use xlink:href="#DejaVuSans-Bold-61" transform="translate(2000.292969 0)"/>
     <use xlink:href="#DejaVuSans-Bold-6c" transform="translate(2067.773438 0)"/>
     <use xlink:href="#DejaVuSans-Bold-6c" transform="translate(2102.050781 0)"/>
     <use xlink:href="#DejaVuSans-Bold-65" transform="translate(2136.328125 0)"/>
     <use xlink:href="#DejaVuSans-Bold-72" transform="translate(2204.150391 0)"/>
     <use xlink:href="#DejaVuSans-Bold-79" transform="translate(2253.466797 0)"/>
     <use xlink:href="#DejaVuSans-Bold-20" transform="translate(2318.652344 0)"/>
     <use xlink:href="#DejaVuSans-Bold-44" transform="translate(2353.466797 0)"/>
     <use xlink:href="#DejaVuSans-Bold-6f" transform="translate(2436.474609 0)"/>
     <use xlink:href="#DejaVuSans-Bold-77" transform="translate(2505.175781 0)"/>
     <use xlink:href="#DejaVuSans-Bold-6e" transform="translate(2597.558594 0)"/>
     <use xlink:href="#DejaVuSans-Bold-6c" transform="translate(2668.75 0)"/>
     <use xlink:href="#DejaVuSans-Bold-6f" transform="translate(2703.027344 0)"/>
     <use xlink:href="#DejaVuSans-Bold-61" transform="translate(2771.728516 0)"/>
     <use xlink:href="#DejaVuSans-Bold-64" transform="translate(2839.208984 0)"/>
     <use xlink:href="#DejaVuSans-Bold-73" transform="translate(2910.791016 0)"/>
    </g>
   </g>
  </g>
 </g>
 <defs>
  <clipPath id="pf47690df9a">
   <rect x="48.90125" y="25.3575" width="799.45" height="321.063013"/>
  </clipPath>
 </defs>
</svg>
