<?xml version="1.0" encoding="utf-8" standalone="no"?>
<!DOCTYPE svg PUBLIC "-//W3C//DTD SVG 1.1//EN"
  "http://www.w3.org/Graphics/SVG/1.1/DTD/svg11.dtd">
<svg xmlns:xlink="http://www.w3.org/1999/xlink" width="855.55125pt" height="424.108044pt" viewBox="0 0 855.55125 424.108044" xmlns="http://www.w3.org/2000/svg" version="1.1">
 <metadata>
  <rdf:RDF xmlns:dc="http://purl.org/dc/elements/1.1/" xmlns:cc="http://creativecommons.org/ns#" xmlns:rdf="http://www.w3.org/1999/02/22-rdf-syntax-ns#">
   <cc:Work>
    <dc:type rdf:resource="http://purl.org/dc/dcmitype/StillImage"/>
    <dc:date>2025-12-31T00:07:57.347562</dc:date>
    <dc:format>image/svg+xml</dc:format>
    <dc:creator>
     <cc:Agent>
      <dc:title>Matplotlib v3.10.8, https://matplotlib.org/</dc:title>
     </cc:Agent>
    </dc:creator>
   </cc:Work>
  </rdf:RDF>
 </metadata>
 <defs>
  <style type="text/css">*{stroke-linejoin: round; stroke-linecap: butt}</style>
 </defs>
 <g id="figure_1">
  <g id="patch_1">
   <path d="M 0 424.108044 
L 855.55125 424.108044 
L 855.55125 0 
L 0 0 
z
" style="fill: #ffffff"/>
  </g>
  <g id="axes_1">
   <g id="patch_2">
    <path d="M 48.90125 346.356873 
L 848.35125 346.356873 
L 848.35125 25.3575 
L 48.90125 25.3575 
z
" style="fill: #f6f8fa"/>
   </g>
   <g id="FillBetweenPolyCollection_1">
    <defs>
     <path id="m07c4d798c6" d="M 85.239886 -92.342051 
L 85.239886 -217.796352 
L 90.358004 -242.341758 
L 95.476122 -243.705392 
L 100.59424 -245.069026 
L 105.712358 -246.432659 
L 110.830475 -249.159927 
L 115.948593 -250.52356 
L 121.066711 -251.887194 
L 126.184829 -253.250828 
L 131.302947 -254.614461 
L 136.421064 -255.978095 
L 141.539182 -257.341729 
L 146.6573 -258.705363 
L 151.775418 -260.068996 
L 156.893536 -261.43263 
L 162.011653 -262.796264 
L 167.129771 -264.159897 
L 172.247889 -265.523531 
L 177.366007 -268.250799 
L 182.484125 -269.614432 
L 187.602242 -270.978066 
L 192.72036 -273.705333 
L 197.838478 -275.068967 
L 202.956596 -276.432601 
L 208.074714 -285.978037 
L 213.192831 -287.34167 
L 218.310949 -288.705304 
L 223.429067 -290.068938 
L 228.547185 -291.432571 
L 233.665302 -292.796205 
L 238.78342 -294.159839 
L 243.901538 -295.523473 
L 249.019656 -296.887106 
L 254.137774 -298.25074 
L 259.255891 -299.614374 
L 264.374009 -300.978007 
L 269.492127 -302.341641 
L 274.610245 -303.705275 
L 279.728363 -305.068908 
L 284.84648 -306.432542 
L 289.964598 -307.796176 
L 295.082716 -309.15981 
L 300.200834 -310.523443 
L 305.318952 -311.887077 
L 310.437069 -313.250711 
L 315.555187 -314.614344 
L 320.673305 -315.977978 
L 325.791423 -317.341612 
L 330.909541 -318.705245 
L 336.027658 -321.432513 
L 341.145776 -322.796147 
L 346.263894 -324.15978 
L 351.382012 -325.523414 
L 356.50013 -326.887048 
L 361.618247 -328.250681 
L 366.736365 -329.614315 
L 371.854483 -330.977949 
L 376.972601 -332.341583 
L 382.090719 -333.705216 
L 387.208836 -335.06885 
L 392.326954 -344.614286 
L 397.445072 -345.97792 
L 402.56319 -347.341553 
L 407.681308 -348.705187 
L 412.799425 -350.068821 
L 417.917543 -351.432454 
L 423.035661 -352.796088 
L 428.153779 -359.614257 
L 433.271897 -360.97789 
L 438.390014 -362.341524 
L 443.508132 -363.705158 
L 448.62625 -365.068791 
L 453.744368 -366.432425 
L 458.862486 -367.796059 
L 463.980603 -369.159692 
L 469.098721 -370.523326 
L 474.216839 -371.88696 
L 479.334957 -373.250594 
L 484.453075 -374.614227 
L 489.571192 -374.614227 
L 494.68931 -374.614227 
L 499.807428 -374.614227 
L 504.925546 -374.614227 
L 510.043664 -374.614227 
L 515.161781 -374.614227 
L 520.279899 -374.614227 
L 525.398017 -374.614227 
L 530.516135 -374.614227 
L 535.634253 -374.614227 
L 540.75237 -374.614227 
L 545.870488 -374.614227 
L 550.988606 -374.614227 
L 556.106724 -374.614227 
L 561.224842 -374.614227 
L 566.342959 -374.614227 
L 571.461077 -374.614227 
L 576.579195 -374.614227 
L 581.697313 -374.614227 
L 586.815431 -374.614227 
L 591.933548 -374.614227 
L 597.051666 -374.614227 
L 602.169784 -375.977861 
L 607.287902 -377.341495 
L 612.40602 -377.341495 
L 617.524137 -377.341495 
L 622.642255 -377.341495 
L 627.760373 -377.341495 
L 632.878491 -377.341495 
L 637.996609 -377.341495 
L 643.114726 -377.341495 
L 648.232844 -377.341495 
L 653.350962 -377.341495 
L 658.46908 -377.341495 
L 663.587198 -377.341495 
L 668.705315 -377.341495 
L 673.823433 -377.341495 
L 678.941551 -377.341495 
L 684.059669 -377.341495 
L 689.177786 -377.341495 
L 694.295904 -377.341495 
L 699.414022 -377.341495 
L 704.53214 -377.341495 
L 709.650258 -377.341495 
L 714.768375 -377.341495 
L 719.886493 -377.341495 
L 725.004611 -377.341495 
L 730.122729 -377.341495 
L 735.240847 -378.705128 
L 740.358964 -378.705128 
L 745.477082 -380.068762 
L 750.5952 -381.432396 
L 755.713318 -381.432396 
L 760.831436 -381.432396 
L 765.949553 -381.432396 
L 771.067671 -382.796029 
L 776.185789 -382.796029 
L 781.303907 -384.159663 
L 786.422025 -384.159663 
L 791.540142 -384.159663 
L 796.65826 -384.159663 
L 801.776378 -384.159663 
L 806.894496 -384.159663 
L 812.012614 -384.159663 
L 812.012614 -92.342051 
L 812.012614 -92.342051 
L 806.894496 -92.342051 
L 801.776378 -92.342051 
L 796.65826 -92.342051 
L 791.540142 -92.342051 
L 786.422025 -92.342051 
L 781.303907 -92.342051 
L 776.185789 -92.342051 
L 771.067671 -92.342051 
L 765.949553 -92.342051 
L 760.831436 -92.342051 
L 755.713318 -92.342051 
L 750.5952 -92.342051 
L 745.477082 -92.342051 
L 740.358964 -92.342051 
L 735.240847 -92.342051 
L 730.122729 -92.342051 
L 725.004611 -92.342051 
L 719.886493 -92.342051 
L 714.768375 -92.342051 
L 709.650258 -92.342051 
L 704.53214 -92.342051 
L 699.414022 -92.342051 
L 694.295904 -92.342051 
L 689.177786 -92.342051 
L 684.059669 -92.342051 
L 678.941551 -92.342051 
L 673.823433 -92.342051 
L 668.705315 -92.342051 
L 663.587198 -92.342051 
L 658.46908 -92.342051 
L 653.350962 -92.342051 
L 648.232844 -92.342051 
L 643.114726 -92.342051 
L 637.996609 -92.342051 
L 632.878491 -92.342051 
L 627.760373 -92.342051 
L 622.642255 -92.342051 
L 617.524137 -92.342051 
L 612.40602 -92.342051 
L 607.287902 -92.342051 
L 602.169784 -92.342051 
L 597.051666 -92.342051 
L 591.933548 -92.342051 
L 586.815431 -92.342051 
L 581.697313 -92.342051 
L 576.579195 -92.342051 
L 571.461077 -92.342051 
L 566.342959 -92.342051 
L 561.224842 -92.342051 
L 556.106724 -92.342051 
L 550.988606 -92.342051 
L 545.870488 -92.342051 
L 540.75237 -92.342051 
L 535.634253 -92.342051 
L 530.516135 -92.342051 
L 525.398017 -92.342051 
L 520.279899 -92.342051 
L 515.161781 -92.342051 
L 510.043664 -92.342051 
L 504.925546 -92.342051 
L 499.807428 -92.342051 
L 494.68931 -92.342051 
L 489.571192 -92.342051 
L 484.453075 -92.342051 
L 479.334957 -92.342051 
L 474.216839 -92.342051 
L 469.098721 -92.342051 
L 463.980603 -92.342051 
L 458.862486 -92.342051 
L 453.744368 -92.342051 
L 448.62625 -92.342051 
L 443.508132 -92.342051 
L 438.390014 -92.342051 
L 433.271897 -92.342051 
L 428.153779 -92.342051 
L 423.035661 -92.342051 
L 417.917543 -92.342051 
L 412.799425 -92.342051 
L 407.681308 -92.342051 
L 402.56319 -92.342051 
L 397.445072 -92.342051 
L 392.326954 -92.342051 
L 387.208836 -92.342051 
L 382.090719 -92.342051 
L 376.972601 -92.342051 
L 371.854483 -92.342051 
L 366.736365 -92.342051 
L 361.618247 -92.342051 
L 356.50013 -92.342051 
L 351.382012 -92.342051 
L 346.263894 -92.342051 
L 341.145776 -92.342051 
L 336.027658 -92.342051 
L 330.909541 -92.342051 
L 325.791423 -92.342051 
L 320.673305 -92.342051 
L 315.555187 -92.342051 
L 310.437069 -92.342051 
L 305.318952 -92.342051 
L 300.200834 -92.342051 
L 295.082716 -92.342051 
L 289.964598 -92.342051 
L 284.84648 -92.342051 
L 279.728363 -92.342051 
L 274.610245 -92.342051 
L 269.492127 -92.342051 
L 264.374009 -92.342051 
L 259.255891 -92.342051 
L 254.137774 -92.342051 
L 249.019656 -92.342051 
L 243.901538 -92.342051 
L 238.78342 -92.342051 
L 233.665302 -92.342051 
L 228.547185 -92.342051 
L 223.429067 -92.342051 
L 218.310949 -92.342051 
L 213.192831 -92.342051 
L 208.074714 -92.342051 
L 202.956596 -92.342051 
L 197.838478 -92.342051 
L 192.72036 -92.342051 
L 187.602242 -92.342051 
L 182.484125 -92.342051 
L 177.366007 -92.342051 
L 172.247889 -92.342051 
L 167.129771 -92.342051 
L 162.011653 -92.342051 
L 156.893536 -92.342051 
L 151.775418 -92.342051 
L 146.6573 -92.342051 
L 141.539182 -92.342051 
L 136.421064 -92.342051 
L 131.302947 -92.342051 
L 126.184829 -92.342051 
L 121.066711 -92.342051 
L 115.948593 -92.342051 
L 110.830475 -92.342051 
L 105.712358 -92.342051 
L 100.59424 -92.342051 
L 95.476122 -92.342051 
L 90.358004 -92.342051 
L 85.239886 -92.342051 
z
" style="stroke: #0366d6; stroke-opacity: 0.1"/>
    </defs>
    <g clip-path="url(#p20f65b06f8)">
     <use xlink:href="#m07c4d798c6" x="0" y="424.108044" style="fill: #0366d6; fill-opacity: 0.1; stroke: #0366d6; stroke-opacity: 0.1"/>
    </g>
   </g>
   <g id="matplotlib.axis_1">
    <g id="xtick_1">
     <g id="line2d_1">
      <path d="M 192.72036 346.356873 
L 192.72036 25.3575 
" clip-path="url(#p20f65b06f8)" style="fill: none; stroke-dasharray: 2.96,1.28; stroke-dashoffset: 0; stroke: #b0b0b0; stroke-opacity: 0.3; stroke-width: 0.8"/>
     </g>
     <g id="line2d_2">
      <defs>
       <path id="ma5bf8a9c2f" d="M 0 0 
L 0 3.5 
" style="stroke: #000000; stroke-width: 0.8"/>
      </defs>
      <g>
       <use xlink:href="#ma5bf8a9c2f" x="192.72036" y="346.356873" style="stroke: #000000; stroke-width: 0.8"/>
      </g>
     </g>
     <g id="text_1">
      <!-- 2025-09-01 -->
      <g transform="translate(150.155846 399.823733) rotate(-45) scale(0.1 -0.1)">
       <defs>
        <path id="DejaVuSans-32" d="M 1228 531 
L 3431 531 
L 3431 0 
L 469 0 
L 469 531 
Q 828 903 1448 1529 
Q 2069 2156 2228 2338 
Q 2531 2678 2651 2914 
Q 2772 3150 2772 3378 
Q 2772 3750 2511 3984 
Q 2250 4219 1831 4219 
Q 1534 4219 1204 4116 
Q 875 4013 500 3803 
L 500 4441 
Q 881 4594 1212 4672 
Q 1544 4750 1819 4750 
Q 2544 4750 2975 4387 
Q 3406 4025 3406 3419 
Q 3406 3131 3298 2873 
Q 3191 2616 2906 2266 
Q 2828 2175 2409 1742 
Q 1991 1309 1228 531 
z
" transform="scale(0.015625)"/>
        <path id="DejaVuSans-30" d="M 2034 4250 
Q 1547 4250 1301 3770 
Q 1056 3291 1056 2328 
Q 1056 1369 1301 889 
Q 1547 409 2034 409 
Q 2525 409 2770 889 
Q 3016 1369 3016 2328 
Q 3016 3291 2770 3770 
Q 2525 4250 2034 4250 
z
M 2034 4750 
Q 2819 4750 3233 4129 
Q 3647 3509 3647 2328 
Q 3647 1150 3233 529 
Q 2819 -91 2034 -91 
Q 1250 -91 836 529 
Q 422 1150 422 2328 
Q 422 3509 836 4129 
Q 1250 4750 2034 4750 
z
" transform="scale(0.015625)"/>
        <path id="DejaVuSans-35" d="M 691 4666 
L 3169 4666 
L 3169 4134 
L 1269 4134 
L 1269 2991 
Q 1406 3038 1543 3061 
Q 1681 3084 1819 3084 
Q 2600 3084 3056 2656 
Q 3513 2228 3513 1497 
Q 3513 744 3044 326 
Q 2575 -91 1722 -91 
Q 1428 -91 1123 -41 
Q 819 9 494 109 
L 494 744 
Q 775 591 1075 516 
Q 1375 441 1709 441 
Q 2250 441 2565 725 
Q 2881 1009 2881 1497 
Q 2881 1984 2565 2268 
Q 2250 2553 1709 2553 
Q 1456 2553 1204 2497 
Q 953 2441 691 2322 
L 691 4666 
z
" transform="scale(0.015625)"/>
        <path id="DejaVuSans-2d" d="M 313 2009 
L 1997 2009 
L 1997 1497 
L 313 1497 
L 313 2009 
z
" transform="scale(0.015625)"/>
        <path id="DejaVuSans-39" d="M 703 97 
L 703 672 
Q 941 559 1184 500 
Q 1428 441 1663 441 
Q 2288 441 2617 861 
Q 2947 1281 2994 2138 
Q 2813 1869 2534 1725 
Q 2256 1581 1919 1581 
Q 1219 1581 811 2004 
Q 403 2428 403 3163 
Q 403 3881 828 4315 
Q 1253 4750 1959 4750 
Q 2769 4750 3195 4129 
Q 3622 3509 3622 2328 
Q 3622 1225 3098 567 
Q 2575 -91 1691 -91 
Q 1453 -91 1209 -44 
Q 966 3 703 97 
z
M 1959 2075 
Q 2384 2075 2632 2365 
Q 2881 2656 2881 3163 
Q 2881 3666 2632 3958 
Q 2384 4250 1959 4250 
Q 1534 4250 1286 3958 
Q 1038 3666 1038 3163 
Q 1038 2656 1286 2365 
Q 1534 2075 1959 2075 
z
" transform="scale(0.015625)"/>
        <path id="DejaVuSans-31" d="M 794 531 
L 1825 531 
L 1825 4091 
L 703 3866 
L 703 4441 
L 1819 4666 
L 2450 4666 
L 2450 531 
L 3481 531 
L 3481 0 
L 794 0 
L 794 531 
z
" transform="scale(0.015625)"/>
       </defs>
       <use xlink:href="#DejaVuSans-32"/>
       <use xlink:href="#DejaVuSans-30" transform="translate(63.623047 0)"/>
       <use xlink:href="#DejaVuSans-32" transform="translate(127.246094 0)"/>
       <use xlink:href="#DejaVuSans-35" transform="translate(190.869141 0)"/>
       <use xlink:href="#DejaVuSans-2d" transform="translate(254.492188 0)"/>
       <use xlink:href="#DejaVuSans-30" transform="translate(290.576172 0)"/>
       <use xlink:href="#DejaVuSans-39" transform="translate(354.199219 0)"/>
       <use xlink:href="#DejaVuSans-2d" transform="translate(417.822266 0)"/>
       <use xlink:href="#DejaVuSans-30" transform="translate(453.90625 0)"/>
       <use xlink:href="#DejaVuSans-31" transform="translate(517.529297 0)"/>
      </g>
     </g>
    </g>
    <g id="xtick_2">
     <g id="line2d_3">
      <path d="M 346.263894 346.356873 
L 346.263894 25.3575 
" clip-path="url(#p20f65b06f8)" style="fill: none; stroke-dasharray: 2.96,1.28; stroke-dashoffset: 0; stroke: #b0b0b0; stroke-opacity: 0.3; stroke-width: 0.8"/>
     </g>
     <g id="line2d_4">
      <g>
       <use xlink:href="#ma5bf8a9c2f" x="346.263894" y="346.356873" style="stroke: #000000; stroke-width: 0.8"/>
      </g>
     </g>
     <g id="text_2">
      <!-- 2025-10-01 -->
      <g transform="translate(303.69938 399.823733) rotate(-45) scale(0.1 -0.1)">
       <use xlink:href="#DejaVuSans-32"/>
       <use xlink:href="#DejaVuSans-30" transform="translate(63.623047 0)"/>
       <use xlink:href="#DejaVuSans-32" transform="translate(127.246094 0)"/>
       <use xlink:href="#DejaVuSans-35" transform="translate(190.869141 0)"/>
       <use xlink:href="#DejaVuSans-2d" transform="translate(254.492188 0)"/>
       <use xlink:href="#DejaVuSans-31" transform="translate(290.576172 0)"/>
       <use xlink:href="#DejaVuSans-30" transform="translate(354.199219 0)"/>
       <use xlink:href="#DejaVuSans-2d" transform="translate(417.822266 0)"/>
       <use xlink:href="#DejaVuSans-30" transform="translate(453.90625 0)"/>
       <use xlink:href="#DejaVuSans-31" transform="translate(517.529297 0)"/>
      </g>
     </g>
    </g>
    <g id="xtick_3">
     <g id="line2d_5">
      <path d="M 504.925546 346.356873 
L 504.925546 25.3575 
" clip-path="url(#p20f65b06f8)" style="fill: none; stroke-dasharray: 2.96,1.28; stroke-dashoffset: 0; stroke: #b0b0b0; stroke-opacity: 0.3; stroke-width: 0.8"/>
     </g>
     <g id="line2d_6">
      <g>
       <use xlink:href="#ma5bf8a9c2f" x="504.925546" y="346.356873" style="stroke: #000000; stroke-width: 0.8"/>
      </g>
     </g>
     <g id="text_3">
      <!-- 2025-11-01 -->
      <g transform="translate(462.361032 399.823733) rotate(-45) scale(0.1 -0.1)">
       <use xlink:href="#DejaVuSans-32"/>
       <use xlink:href="#DejaVuSans-30" transform="translate(63.623047 0)"/>
       <use xlink:href="#DejaVuSans-32" transform="translate(127.246094 0)"/>
       <use xlink:href="#DejaVuSans-35" transform="translate(190.869141 0)"/>
       <use xlink:href="#DejaVuSans-2d" transform="translate(254.492188 0)"/>
       <use xlink:href="#DejaVuSans-31" transform="translate(290.576172 0)"/>
       <use xlink:href="#DejaVuSans-31" transform="translate(354.199219 0)"/>
       <use xlink:href="#DejaVuSans-2d" transform="translate(417.822266 0)"/>
       <use xlink:href="#DejaVuSans-30" transform="translate(453.90625 0)"/>
       <use xlink:href="#DejaVuSans-31" transform="translate(517.529297 0)"/>
      </g>
     </g>
    </g>
    <g id="xtick_4">
     <g id="line2d_7">
      <path d="M 658.46908 346.356873 
L 658.46908 25.3575 
" clip-path="url(#p20f65b06f8)" style="fill: none; stroke-dasharray: 2.96,1.28; stroke-dashoffset: 0; stroke: #b0b0b0; stroke-opacity: 0.3; stroke-width: 0.8"/>
     </g>
     <g id="line2d_8">
      <g>
       <use xlink:href="#ma5bf8a9c2f" x="658.46908" y="346.356873" style="stroke: #000000; stroke-width: 0.8"/>
      </g>
     </g>
     <g id="text_4">
      <!-- 2025-12-01 -->
      <g transform="translate(615.904566 399.823733) rotate(-45) scale(0.1 -0.1)">
       <use xlink:href="#DejaVuSans-32"/>
       <use xlink:href="#DejaVuSans-30" transform="translate(63.623047 0)"/>
       <use xlink:href="#DejaVuSans-32" transform="translate(127.246094 0)"/>
       <use xlink:href="#DejaVuSans-35" transform="translate(190.869141 0)"/>
       <use xlink:href="#DejaVuSans-2d" transform="translate(254.492188 0)"/>
       <use xlink:href="#DejaVuSans-31" transform="translate(290.576172 0)"/>
       <use xlink:href="#DejaVuSans-32" transform="translate(354.199219 0)"/>
       <use xlink:href="#DejaVuSans-2d" transform="translate(417.822266 0)"/>
       <use xlink:href="#DejaVuSans-30" transform="translate(453.90625 0)"/>
       <use xlink:href="#DejaVuSans-31" transform="translate(517.529297 0)"/>
      </g>
     </g>
    </g>
    <g id="xtick_5">
     <g id="line2d_9">
      <path d="M 817.130731 346.356873 
L 817.130731 25.3575 
" clip-path="url(#p20f65b06f8)" style="fill: none; stroke-dasharray: 2.96,1.28; stroke-dashoffset: 0; stroke: #b0b0b0; stroke-opacity: 0.3; stroke-width: 0.8"/>
     </g>
     <g id="line2d_10">
      <g>
       <use xlink:href="#ma5bf8a9c2f" x="817.130731" y="346.356873" style="stroke: #000000; stroke-width: 0.8"/>
      </g>
     </g>
     <g id="text_5">
      <!-- 2026-01-01 -->
      <g transform="translate(774.566218 399.823733) rotate(-45) scale(0.1 -0.1)">
       <defs>
        <path id="DejaVuSans-36" d="M 2113 2584 
Q 1688 2584 1439 2293 
Q 1191 2003 1191 1497 
Q 1191 994 1439 701 
Q 1688 409 2113 409 
Q 2538 409 2786 701 
Q 3034 994 3034 1497 
Q 3034 2003 2786 2293 
Q 2538 2584 2113 2584 
z
M 3366 4563 
L 3366 3988 
Q 3128 4100 2886 4159 
Q 2644 4219 2406 4219 
Q 1781 4219 1451 3797 
Q 1122 3375 1075 2522 
Q 1259 2794 1537 2939 
Q 1816 3084 2150 3084 
Q 2853 3084 3261 2657 
Q 3669 2231 3669 1497 
Q 3669 778 3244 343 
Q 2819 -91 2113 -91 
Q 1303 -91 875 529 
Q 447 1150 447 2328 
Q 447 3434 972 4092 
Q 1497 4750 2381 4750 
Q 2619 4750 2861 4703 
Q 3103 4656 3366 4563 
z
" transform="scale(0.015625)"/>
       </defs>
       <use xlink:href="#DejaVuSans-32"/>
       <use xlink:href="#DejaVuSans-30" transform="translate(63.623047 0)"/>
       <use xlink:href="#DejaVuSans-32" transform="translate(127.246094 0)"/>
       <use xlink:href="#DejaVuSans-36" transform="translate(190.869141 0)"/>
       <use xlink:href="#DejaVuSans-2d" transform="translate(254.492188 0)"/>
       <use xlink:href="#DejaVuSans-30" transform="translate(290.576172 0)"/>
       <use xlink:href="#DejaVuSans-31" transform="translate(354.199219 0)"/>
       <use xlink:href="#DejaVuSans-2d" transform="translate(417.822266 0)"/>
       <use xlink:href="#DejaVuSans-30" transform="translate(453.90625 0)"/>
       <use xlink:href="#DejaVuSans-31" transform="translate(517.529297 0)"/>
      </g>
     </g>
    </g>
    <g id="text_6">
     <!-- Date -->
     <g transform="translate(434.285313 414.412419) scale(0.12 -0.12)">
      <defs>
       <path id="DejaVuSans-44" d="M 1259 4147 
L 1259 519 
L 2022 519 
Q 2988 519 3436 956 
Q 3884 1394 3884 2338 
Q 3884 3275 3436 3711 
Q 2988 4147 2022 4147 
L 1259 4147 
z
M 628 4666 
L 1925 4666 
Q 3281 4666 3915 4102 
Q 4550 3538 4550 2338 
Q 4550 1131 3912 565 
Q 3275 0 1925 0 
L 628 0 
L 628 4666 
z
" transform="scale(0.015625)"/>
       <path id="DejaVuSans-61" d="M 2194 1759 
Q 1497 1759 1228 1600 
Q 959 1441 959 1056 
Q 959 750 1161 570 
Q 1363 391 1709 391 
Q 2188 391 2477 730 
Q 2766 1069 2766 1631 
L 2766 1759 
L 2194 1759 
z
M 3341 1997 
L 3341 0 
L 2766 0 
L 2766 531 
Q 2569 213 2275 61 
Q 1981 -91 1556 -91 
Q 1019 -91 701 211 
Q 384 513 384 1019 
Q 384 1609 779 1909 
Q 1175 2209 1959 2209 
L 2766 2209 
L 2766 2266 
Q 2766 2663 2505 2880 
Q 2244 3097 1772 3097 
Q 1472 3097 1187 3025 
Q 903 2953 641 2809 
L 641 3341 
Q 956 3463 1253 3523 
Q 1550 3584 1831 3584 
Q 2591 3584 2966 3190 
Q 3341 2797 3341 1997 
z
" transform="scale(0.015625)"/>
       <path id="DejaVuSans-74" d="M 1172 4494 
L 1172 3500 
L 2356 3500 
L 2356 3053 
L 1172 3053 
L 1172 1153 
Q 1172 725 1289 603 
Q 1406 481 1766 481 
L 2356 481 
L 2356 0 
L 1766 0 
Q 1100 0 847 248 
Q 594 497 594 1153 
L 594 3053 
L 172 3053 
L 172 3500 
L 594 3500 
L 594 4494 
L 1172 4494 
z
" transform="scale(0.015625)"/>
       <path id="DejaVuSans-65" d="M 3597 1894 
L 3597 1613 
L 953 1613 
Q 991 1019 1311 708 
Q 1631 397 2203 397 
Q 2534 397 2845 478 
Q 3156 559 3463 722 
L 3463 178 
Q 3153 47 2828 -22 
Q 2503 -91 2169 -91 
Q 1331 -91 842 396 
Q 353 884 353 1716 
Q 353 2575 817 3079 
Q 1281 3584 2069 3584 
Q 2775 3584 3186 3129 
Q 3597 2675 3597 1894 
z
M 3022 2063 
Q 3016 2534 2758 2815 
Q 2500 3097 2075 3097 
Q 1594 3097 1305 2825 
Q 1016 2553 972 2059 
L 3022 2063 
z
" transform="scale(0.015625)"/>
      </defs>
      <use xlink:href="#DejaVuSans-44"/>
      <use xlink:href="#DejaVuSans-61" transform="translate(77.001953 0)"/>
      <use xlink:href="#DejaVuSans-74" transform="translate(138.28125 0)"/>
      <use xlink:href="#DejaVuSans-65" transform="translate(177.490234 0)"/>
     </g>
    </g>
   </g>
   <g id="matplotlib.axis_2">
    <g id="ytick_1">
     <g id="line2d_11">
      <path d="M 48.90125 331.765993 
L 848.35125 331.765993 
" clip-path="url(#p20f65b06f8)" style="fill: none; stroke-dasharray: 2.96,1.28; stroke-dashoffset: 0; stroke: #b0b0b0; stroke-opacity: 0.3; stroke-width: 0.8"/>
     </g>
     <g id="line2d_12">
      <defs>
       <path id="m7aee620e25" d="M 0 0 
L -3.5 0 
" style="stroke: #000000; stroke-width: 0.8"/>
      </defs>
      <g>
       <use xlink:href="#m7aee620e25" x="48.90125" y="331.765993" style="stroke: #000000; stroke-width: 0.8"/>
      </g>
     </g>
     <g id="text_7">
      <!-- 0 -->
      <g transform="translate(35.53875 335.565212) scale(0.1 -0.1)">
       <use xlink:href="#DejaVuSans-30"/>
      </g>
     </g>
    </g>
    <g id="ytick_2">
     <g id="line2d_13">
      <path d="M 48.90125 263.584308 
L 848.35125 263.584308 
" clip-path="url(#p20f65b06f8)" style="fill: none; stroke-dasharray: 2.96,1.28; stroke-dashoffset: 0; stroke: #b0b0b0; stroke-opacity: 0.3; stroke-width: 0.8"/>
     </g>
     <g id="line2d_14">
      <g>
       <use xlink:href="#m7aee620e25" x="48.90125" y="263.584308" style="stroke: #000000; stroke-width: 0.8"/>
      </g>
     </g>
     <g id="text_8">
      <!-- 50 -->
      <g transform="translate(29.17625 267.383526) scale(0.1 -0.1)">
       <use xlink:href="#DejaVuSans-35"/>
       <use xlink:href="#DejaVuSans-30" transform="translate(63.623047 0)"/>
      </g>
     </g>
    </g>
    <g id="ytick_3">
     <g id="line2d_15">
      <path d="M 48.90125 195.402623 
L 848.35125 195.402623 
" clip-path="url(#p20f65b06f8)" style="fill: none; stroke-dasharray: 2.96,1.28; stroke-dashoffset: 0; stroke: #b0b0b0; stroke-opacity: 0.3; stroke-width: 0.8"/>
     </g>
     <g id="line2d_16">
      <g>
       <use xlink:href="#m7aee620e25" x="48.90125" y="195.402623" style="stroke: #000000; stroke-width: 0.8"/>
      </g>
     </g>
     <g id="text_9">
      <!-- 100 -->
      <g transform="translate(22.81375 199.201841) scale(0.1 -0.1)">
       <use xlink:href="#DejaVuSans-31"/>
       <use xlink:href="#DejaVuSans-30" transform="translate(63.623047 0)"/>
       <use xlink:href="#DejaVuSans-30" transform="translate(127.246094 0)"/>
      </g>
     </g>
    </g>
    <g id="ytick_4">
     <g id="line2d_17">
      <path d="M 48.90125 127.220938 
L 848.35125 127.220938 
" clip-path="url(#p20f65b06f8)" style="fill: none; stroke-dasharray: 2.96,1.28; stroke-dashoffset: 0; stroke: #b0b0b0; stroke-opacity: 0.3; stroke-width: 0.8"/>
     </g>
     <g id="line2d_18">
      <g>
       <use xlink:href="#m7aee620e25" x="48.90125" y="127.220938" style="stroke: #000000; stroke-width: 0.8"/>
      </g>
     </g>
     <g id="text_10">
      <!-- 150 -->
      <g transform="translate(22.81375 131.020156) scale(0.1 -0.1)">
       <use xlink:href="#DejaVuSans-31"/>
       <use xlink:href="#DejaVuSans-35" transform="translate(63.623047 0)"/>
       <use xlink:href="#DejaVuSans-30" transform="translate(127.246094 0)"/>
      </g>
     </g>
    </g>
    <g id="ytick_5">
     <g id="line2d_19">
      <path d="M 48.90125 59.039252 
L 848.35125 59.039252 
" clip-path="url(#p20f65b06f8)" style="fill: none; stroke-dasharray: 2.96,1.28; stroke-dashoffset: 0; stroke: #b0b0b0; stroke-opacity: 0.3; stroke-width: 0.8"/>
     </g>
     <g id="line2d_20">
      <g>
       <use xlink:href="#m7aee620e25" x="48.90125" y="59.039252" style="stroke: #000000; stroke-width: 0.8"/>
      </g>
     </g>
     <g id="text_11">
      <!-- 200 -->
      <g transform="translate(22.81375 62.838471) scale(0.1 -0.1)">
       <use xlink:href="#DejaVuSans-32"/>
       <use xlink:href="#DejaVuSans-30" transform="translate(63.623047 0)"/>
       <use xlink:href="#DejaVuSans-30" transform="translate(127.246094 0)"/>
      </g>
     </g>
    </g>
    <g id="text_12">
     <!-- Total Downloads -->
     <g transform="translate(16.318125 234.726249) rotate(-90) scale(0.12 -0.12)">
      <defs>
       <path id="DejaVuSans-54" d="M -19 4666 
L 3928 4666 
L 3928 4134 
L 2272 4134 
L 2272 0 
L 1638 0 
L 1638 4134 
L -19 4134 
L -19 4666 
z
" transform="scale(0.015625)"/>
       <path id="DejaVuSans-6f" d="M 1959 3097 
Q 1497 3097 1228 2736 
Q 959 2375 959 1747 
Q 959 1119 1226 758 
Q 1494 397 1959 397 
Q 2419 397 2687 759 
Q 2956 1122 2956 1747 
Q 2956 2369 2687 2733 
Q 2419 3097 1959 3097 
z
M 1959 3584 
Q 2709 3584 3137 3096 
Q 3566 2609 3566 1747 
Q 3566 888 3137 398 
Q 2709 -91 1959 -91 
Q 1206 -91 779 398 
Q 353 888 353 1747 
Q 353 2609 779 3096 
Q 1206 3584 1959 3584 
z
" transform="scale(0.015625)"/>
       <path id="DejaVuSans-6c" d="M 603 4863 
L 1178 4863 
L 1178 0 
L 603 0 
L 603 4863 
z
" transform="scale(0.015625)"/>
       <path id="DejaVuSans-20" transform="scale(0.015625)"/>
       <path id="DejaVuSans-77" d="M 269 3500 
L 844 3500 
L 1563 769 
L 2278 3500 
L 2956 3500 
L 3675 769 
L 4391 3500 
L 4966 3500 
L 4050 0 
L 3372 0 
L 2619 2869 
L 1863 0 
L 1184 0 
L 269 3500 
z
" transform="scale(0.015625)"/>
       <path id="DejaVuSans-6e" d="M 3513 2113 
L 3513 0 
L 2938 0 
L 2938 2094 
Q 2938 2591 2744 2837 
Q 2550 3084 2163 3084 
Q 1697 3084 1428 2787 
Q 1159 2491 1159 1978 
L 1159 0 
L 581 0 
L 581 3500 
L 1159 3500 
L 1159 2956 
Q 1366 3272 1645 3428 
Q 1925 3584 2291 3584 
Q 2894 3584 3203 3211 
Q 3513 2838 3513 2113 
z
" transform="scale(0.015625)"/>
       <path id="DejaVuSans-64" d="M 2906 2969 
L 2906 4863 
L 3481 4863 
L 3481 0 
L 2906 0 
L 2906 525 
Q 2725 213 2448 61 
Q 2172 -91 1784 -91 
Q 1150 -91 751 415 
Q 353 922 353 1747 
Q 353 2572 751 3078 
Q 1150 3584 1784 3584 
Q 2172 3584 2448 3432 
Q 2725 3281 2906 2969 
z
M 947 1747 
Q 947 1113 1208 752 
Q 1469 391 1925 391 
Q 2381 391 2643 752 
Q 2906 1113 2906 1747 
Q 2906 2381 2643 2742 
Q 2381 3103 1925 3103 
Q 1469 3103 1208 2742 
Q 947 2381 947 1747 
z
" transform="scale(0.015625)"/>
       <path id="DejaVuSans-73" d="M 2834 3397 
L 2834 2853 
Q 2591 2978 2328 3040 
Q 2066 3103 1784 3103 
Q 1356 3103 1142 2972 
Q 928 2841 928 2578 
Q 928 2378 1081 2264 
Q 1234 2150 1697 2047 
L 1894 2003 
Q 2506 1872 2764 1633 
Q 3022 1394 3022 966 
Q 3022 478 2636 193 
Q 2250 -91 1575 -91 
Q 1294 -91 989 -36 
Q 684 19 347 128 
L 347 722 
Q 666 556 975 473 
Q 1284 391 1588 391 
Q 1994 391 2212 530 
Q 2431 669 2431 922 
Q 2431 1156 2273 1281 
Q 2116 1406 1581 1522 
L 1381 1569 
Q 847 1681 609 1914 
Q 372 2147 372 2553 
Q 372 3047 722 3315 
Q 1072 3584 1716 3584 
Q 2034 3584 2315 3537 
Q 2597 3491 2834 3397 
z
" transform="scale(0.015625)"/>
      </defs>
      <use xlink:href="#DejaVuSans-54"/>
      <use xlink:href="#DejaVuSans-6f" transform="translate(44.083984 0)"/>
      <use xlink:href="#DejaVuSans-74" transform="translate(105.265625 0)"/>
      <use xlink:href="#DejaVuSans-61" transform="translate(144.474609 0)"/>
      <use xlink:href="#DejaVuSans-6c" transform="translate(205.753906 0)"/>
      <use xlink:href="#DejaVuSans-20" transform="translate(233.537109 0)"/>
      <use xlink:href="#DejaVuSans-44" transform="translate(265.324219 0)"/>
      <use xlink:href="#DejaVuSans-6f" transform="translate(342.326172 0)"/>
      <use xlink:href="#DejaVuSans-77" transform="translate(403.507812 0)"/>
      <use xlink:href="#DejaVuSans-6e" transform="translate(485.294922 0)"/>
      <use xlink:href="#DejaVuSans-6c" transform="translate(548.673828 0)"/>
      <use xlink:href="#DejaVuSans-6f" transform="translate(576.457031 0)"/>
      <use xlink:href="#DejaVuSans-61" transform="translate(637.638672 0)"/>
      <use xlink:href="#DejaVuSans-64" transform="translate(698.917969 0)"/>
      <use xlink:href="#DejaVuSans-73" transform="translate(762.394531 0)"/>
     </g>
    </g>
   </g>
   <g id="line2d_21">
    <path d="M 85.239886 206.311692 
L 90.358004 181.766286 
L 105.712358 177.675385 
L 110.830475 174.948117 
L 172.247889 158.584513 
L 177.366007 155.857245 
L 187.602242 153.129978 
L 192.72036 150.40271 
L 202.956596 147.675443 
L 208.074714 138.130007 
L 330.909541 105.402798 
L 336.027658 102.675531 
L 387.208836 89.039194 
L 392.326954 79.493758 
L 423.035661 71.311956 
L 428.153779 64.493787 
L 484.453075 49.493817 
L 597.051666 49.493817 
L 607.287902 46.766549 
L 730.122729 46.766549 
L 735.240847 45.402915 
L 740.358964 45.402915 
L 750.5952 42.675648 
L 765.949553 42.675648 
L 771.067671 41.312014 
L 776.185789 41.312014 
L 781.303907 39.948381 
L 812.012614 39.948381 
L 812.012614 39.948381 
" clip-path="url(#p20f65b06f8)" style="fill: none; stroke: #0366d6; stroke-width: 2; stroke-linecap: square"/>
    <defs>
     <path id="m0f38c3368a" d="M 0 3 
C 0.795609 3 1.55874 2.683901 2.12132 2.12132 
C 2.683901 1.55874 3 0.795609 3 0 
C 3 -0.795609 2.683901 -1.55874 2.12132 -2.12132 
C 1.55874 -2.683901 0.795609 -3 0 -3 
C -0.795609 -3 -1.55874 -2.683901 -2.12132 -2.12132 
C -2.683901 -1.55874 -3 -0.795609 -3 0 
C -3 0.795609 -2.683901 1.55874 -2.12132 2.12132 
C -1.55874 2.683901 -0.795609 3 0 3 
z
" style="stroke: #ffffff; stroke-width: 1.5"/>
    </defs>
    <g clip-path="url(#p20f65b06f8)">
     <use xlink:href="#m0f38c3368a" x="85.239886" y="206.311692" style="fill: #0366d6; stroke: #ffffff; stroke-width: 1.5"/>
     <use xlink:href="#m0f38c3368a" x="90.358004" y="181.766286" style="fill: #0366d6; stroke: #ffffff; stroke-width: 1.5"/>
     <use xlink:href="#m0f38c3368a" x="95.476122" y="180.402652" style="fill: #0366d6; stroke: #ffffff; stroke-width: 1.5"/>
     <use xlink:href="#m0f38c3368a" x="100.59424" y="179.039018" style="fill: #0366d6; stroke: #ffffff; stroke-width: 1.5"/>
     <use xlink:href="#m0f38c3368a" x="105.712358" y="177.675385" style="fill: #0366d6; stroke: #ffffff; stroke-width: 1.5"/>
     <use xlink:href="#m0f38c3368a" x="110.830475" y="174.948117" style="fill: #0366d6; stroke: #ffffff; stroke-width: 1.5"/>
     <use xlink:href="#m0f38c3368a" x="115.948593" y="173.584483" style="fill: #0366d6; stroke: #ffffff; stroke-width: 1.5"/>
     <use xlink:href="#m0f38c3368a" x="121.066711" y="172.22085" style="fill: #0366d6; stroke: #ffffff; stroke-width: 1.5"/>
     <use xlink:href="#m0f38c3368a" x="126.184829" y="170.857216" style="fill: #0366d6; stroke: #ffffff; stroke-width: 1.5"/>
     <use xlink:href="#m0f38c3368a" x="131.302947" y="169.493582" style="fill: #0366d6; stroke: #ffffff; stroke-width: 1.5"/>
     <use xlink:href="#m0f38c3368a" x="136.421064" y="168.129949" style="fill: #0366d6; stroke: #ffffff; stroke-width: 1.5"/>
     <use xlink:href="#m0f38c3368a" x="141.539182" y="166.766315" style="fill: #0366d6; stroke: #ffffff; stroke-width: 1.5"/>
     <use xlink:href="#m0f38c3368a" x="146.6573" y="165.402681" style="fill: #0366d6; stroke: #ffffff; stroke-width: 1.5"/>
     <use xlink:href="#m0f38c3368a" x="151.775418" y="164.039047" style="fill: #0366d6; stroke: #ffffff; stroke-width: 1.5"/>
     <use xlink:href="#m0f38c3368a" x="156.893536" y="162.675414" style="fill: #0366d6; stroke: #ffffff; stroke-width: 1.5"/>
     <use xlink:href="#m0f38c3368a" x="162.011653" y="161.31178" style="fill: #0366d6; stroke: #ffffff; stroke-width: 1.5"/>
     <use xlink:href="#m0f38c3368a" x="167.129771" y="159.948146" style="fill: #0366d6; stroke: #ffffff; stroke-width: 1.5"/>
     <use xlink:href="#m0f38c3368a" x="172.247889" y="158.584513" style="fill: #0366d6; stroke: #ffffff; stroke-width: 1.5"/>
     <use xlink:href="#m0f38c3368a" x="177.366007" y="155.857245" style="fill: #0366d6; stroke: #ffffff; stroke-width: 1.5"/>
     <use xlink:href="#m0f38c3368a" x="182.484125" y="154.493612" style="fill: #0366d6; stroke: #ffffff; stroke-width: 1.5"/>
     <use xlink:href="#m0f38c3368a" x="187.602242" y="153.129978" style="fill: #0366d6; stroke: #ffffff; stroke-width: 1.5"/>
     <use xlink:href="#m0f38c3368a" x="192.72036" y="150.40271" style="fill: #0366d6; stroke: #ffffff; stroke-width: 1.5"/>
     <use xlink:href="#m0f38c3368a" x="197.838478" y="149.039077" style="fill: #0366d6; stroke: #ffffff; stroke-width: 1.5"/>
     <use xlink:href="#m0f38c3368a" x="202.956596" y="147.675443" style="fill: #0366d6; stroke: #ffffff; stroke-width: 1.5"/>
     <use xlink:href="#m0f38c3368a" x="208.074714" y="138.130007" style="fill: #0366d6; stroke: #ffffff; stroke-width: 1.5"/>
     <use xlink:href="#m0f38c3368a" x="213.192831" y="136.766373" style="fill: #0366d6; stroke: #ffffff; stroke-width: 1.5"/>
     <use xlink:href="#m0f38c3368a" x="218.310949" y="135.40274" style="fill: #0366d6; stroke: #ffffff; stroke-width: 1.5"/>
     <use xlink:href="#m0f38c3368a" x="223.429067" y="134.039106" style="fill: #0366d6; stroke: #ffffff; stroke-width: 1.5"/>
     <use xlink:href="#m0f38c3368a" x="228.547185" y="132.675472" style="fill: #0366d6; stroke: #ffffff; stroke-width: 1.5"/>
     <use xlink:href="#m0f38c3368a" x="233.665302" y="131.311839" style="fill: #0366d6; stroke: #ffffff; stroke-width: 1.5"/>
     <use xlink:href="#m0f38c3368a" x="238.78342" y="129.948205" style="fill: #0366d6; stroke: #ffffff; stroke-width: 1.5"/>
     <use xlink:href="#m0f38c3368a" x="243.901538" y="128.584571" style="fill: #0366d6; stroke: #ffffff; stroke-width: 1.5"/>
     <use xlink:href="#m0f38c3368a" x="249.019656" y="127.220938" style="fill: #0366d6; stroke: #ffffff; stroke-width: 1.5"/>
     <use xlink:href="#m0f38c3368a" x="254.137774" y="125.857304" style="fill: #0366d6; stroke: #ffffff; stroke-width: 1.5"/>
     <use xlink:href="#m0f38c3368a" x="259.255891" y="124.49367" style="fill: #0366d6; stroke: #ffffff; stroke-width: 1.5"/>
     <use xlink:href="#m0f38c3368a" x="264.374009" y="123.130036" style="fill: #0366d6; stroke: #ffffff; stroke-width: 1.5"/>
     <use xlink:href="#m0f38c3368a" x="269.492127" y="121.766403" style="fill: #0366d6; stroke: #ffffff; stroke-width: 1.5"/>
     <use xlink:href="#m0f38c3368a" x="274.610245" y="120.402769" style="fill: #0366d6; stroke: #ffffff; stroke-width: 1.5"/>
     <use xlink:href="#m0f38c3368a" x="279.728363" y="119.039135" style="fill: #0366d6; stroke: #ffffff; stroke-width: 1.5"/>
     <use xlink:href="#m0f38c3368a" x="284.84648" y="117.675502" style="fill: #0366d6; stroke: #ffffff; stroke-width: 1.5"/>
     <use xlink:href="#m0f38c3368a" x="289.964598" y="116.311868" style="fill: #0366d6; stroke: #ffffff; stroke-width: 1.5"/>
     <use xlink:href="#m0f38c3368a" x="295.082716" y="114.948234" style="fill: #0366d6; stroke: #ffffff; stroke-width: 1.5"/>
     <use xlink:href="#m0f38c3368a" x="300.200834" y="113.584601" style="fill: #0366d6; stroke: #ffffff; stroke-width: 1.5"/>
     <use xlink:href="#m0f38c3368a" x="305.318952" y="112.220967" style="fill: #0366d6; stroke: #ffffff; stroke-width: 1.5"/>
     <use xlink:href="#m0f38c3368a" x="310.437069" y="110.857333" style="fill: #0366d6; stroke: #ffffff; stroke-width: 1.5"/>
     <use xlink:href="#m0f38c3368a" x="315.555187" y="109.493699" style="fill: #0366d6; stroke: #ffffff; stroke-width: 1.5"/>
     <use xlink:href="#m0f38c3368a" x="320.673305" y="108.130066" style="fill: #0366d6; stroke: #ffffff; stroke-width: 1.5"/>
     <use xlink:href="#m0f38c3368a" x="325.791423" y="106.766432" style="fill: #0366d6; stroke: #ffffff; stroke-width: 1.5"/>
     <use xlink:href="#m0f38c3368a" x="330.909541" y="105.402798" style="fill: #0366d6; stroke: #ffffff; stroke-width: 1.5"/>
     <use xlink:href="#m0f38c3368a" x="336.027658" y="102.675531" style="fill: #0366d6; stroke: #ffffff; stroke-width: 1.5"/>
     <use xlink:href="#m0f38c3368a" x="341.145776" y="101.311897" style="fill: #0366d6; stroke: #ffffff; stroke-width: 1.5"/>
     <use xlink:href="#m0f38c3368a" x="346.263894" y="99.948263" style="fill: #0366d6; stroke: #ffffff; stroke-width: 1.5"/>
     <use xlink:href="#m0f38c3368a" x="351.382012" y="98.58463" style="fill: #0366d6; stroke: #ffffff; stroke-width: 1.5"/>
     <use xlink:href="#m0f38c3368a" x="356.50013" y="97.220996" style="fill: #0366d6; stroke: #ffffff; stroke-width: 1.5"/>
     <use xlink:href="#m0f38c3368a" x="361.618247" y="95.857362" style="fill: #0366d6; stroke: #ffffff; stroke-width: 1.5"/>
     <use xlink:href="#m0f38c3368a" x="366.736365" y="94.493729" style="fill: #0366d6; stroke: #ffffff; stroke-width: 1.5"/>
     <use xlink:href="#m0f38c3368a" x="371.854483" y="93.130095" style="fill: #0366d6; stroke: #ffffff; stroke-width: 1.5"/>
     <use xlink:href="#m0f38c3368a" x="376.972601" y="91.766461" style="fill: #0366d6; stroke: #ffffff; stroke-width: 1.5"/>
     <use xlink:href="#m0f38c3368a" x="382.090719" y="90.402828" style="fill: #0366d6; stroke: #ffffff; stroke-width: 1.5"/>
     <use xlink:href="#m0f38c3368a" x="387.208836" y="89.039194" style="fill: #0366d6; stroke: #ffffff; stroke-width: 1.5"/>
     <use xlink:href="#m0f38c3368a" x="392.326954" y="79.493758" style="fill: #0366d6; stroke: #ffffff; stroke-width: 1.5"/>
     <use xlink:href="#m0f38c3368a" x="397.445072" y="78.130124" style="fill: #0366d6; stroke: #ffffff; stroke-width: 1.5"/>
     <use xlink:href="#m0f38c3368a" x="402.56319" y="76.766491" style="fill: #0366d6; stroke: #ffffff; stroke-width: 1.5"/>
     <use xlink:href="#m0f38c3368a" x="407.681308" y="75.402857" style="fill: #0366d6; stroke: #ffffff; stroke-width: 1.5"/>
     <use xlink:href="#m0f38c3368a" x="412.799425" y="74.039223" style="fill: #0366d6; stroke: #ffffff; stroke-width: 1.5"/>
     <use xlink:href="#m0f38c3368a" x="417.917543" y="72.675589" style="fill: #0366d6; stroke: #ffffff; stroke-width: 1.5"/>
     <use xlink:href="#m0f38c3368a" x="423.035661" y="71.311956" style="fill: #0366d6; stroke: #ffffff; stroke-width: 1.5"/>
     <use xlink:href="#m0f38c3368a" x="428.153779" y="64.493787" style="fill: #0366d6; stroke: #ffffff; stroke-width: 1.5"/>
     <use xlink:href="#m0f38c3368a" x="433.271897" y="63.130154" style="fill: #0366d6; stroke: #ffffff; stroke-width: 1.5"/>
     <use xlink:href="#m0f38c3368a" x="438.390014" y="61.76652" style="fill: #0366d6; stroke: #ffffff; stroke-width: 1.5"/>
     <use xlink:href="#m0f38c3368a" x="443.508132" y="60.402886" style="fill: #0366d6; stroke: #ffffff; stroke-width: 1.5"/>
     <use xlink:href="#m0f38c3368a" x="448.62625" y="59.039252" style="fill: #0366d6; stroke: #ffffff; stroke-width: 1.5"/>
     <use xlink:href="#m0f38c3368a" x="453.744368" y="57.675619" style="fill: #0366d6; stroke: #ffffff; stroke-width: 1.5"/>
     <use xlink:href="#m0f38c3368a" x="458.862486" y="56.311985" style="fill: #0366d6; stroke: #ffffff; stroke-width: 1.5"/>
     <use xlink:href="#m0f38c3368a" x="463.980603" y="54.948351" style="fill: #0366d6; stroke: #ffffff; stroke-width: 1.5"/>
     <use xlink:href="#m0f38c3368a" x="469.098721" y="53.584718" style="fill: #0366d6; stroke: #ffffff; stroke-width: 1.5"/>
     <use xlink:href="#m0f38c3368a" x="474.216839" y="52.221084" style="fill: #0366d6; stroke: #ffffff; stroke-width: 1.5"/>
     <use xlink:href="#m0f38c3368a" x="479.334957" y="50.85745" style="fill: #0366d6; stroke: #ffffff; stroke-width: 1.5"/>
     <use xlink:href="#m0f38c3368a" x="484.453075" y="49.493817" style="fill: #0366d6; stroke: #ffffff; stroke-width: 1.5"/>
     <use xlink:href="#m0f38c3368a" x="489.571192" y="49.493817" style="fill: #0366d6; stroke: #ffffff; stroke-width: 1.5"/>
     <use xlink:href="#m0f38c3368a" x="494.68931" y="49.493817" style="fill: #0366d6; stroke: #ffffff; stroke-width: 1.5"/>
     <use xlink:href="#m0f38c3368a" x="499.807428" y="49.493817" style="fill: #0366d6; stroke: #ffffff; stroke-width: 1.5"/>
     <use xlink:href="#m0f38c3368a" x="504.925546" y="49.493817" style="fill: #0366d6; stroke: #ffffff; stroke-width: 1.5"/>
     <use xlink:href="#m0f38c3368a" x="510.043664" y="49.493817" style="fill: #0366d6; stroke: #ffffff; stroke-width: 1.5"/>
     <use xlink:href="#m0f38c3368a" x="515.161781" y="49.493817" style="fill: #0366d6; stroke: #ffffff; stroke-width: 1.5"/>
     <use xlink:href="#m0f38c3368a" x="520.279899" y="49.493817" style="fill: #0366d6; stroke: #ffffff; stroke-width: 1.5"/>
     <use xlink:href="#m0f38c3368a" x="525.398017" y="49.493817" style="fill: #0366d6; stroke: #ffffff; stroke-width: 1.5"/>
     <use xlink:href="#m0f38c3368a" x="530.516135" y="49.493817" style="fill: #0366d6; stroke: #ffffff; stroke-width: 1.5"/>
     <use xlink:href="#m0f38c3368a" x="535.634253" y="49.493817" style="fill: #0366d6; stroke: #ffffff; stroke-width: 1.5"/>
     <use xlink:href="#m0f38c3368a" x="540.75237" y="49.493817" style="fill: #0366d6; stroke: #ffffff; stroke-width: 1.5"/>
     <use xlink:href="#m0f38c3368a" x="545.870488" y="49.493817" style="fill: #0366d6; stroke: #ffffff; stroke-width: 1.5"/>
     <use xlink:href="#m0f38c3368a" x="550.988606" y="49.493817" style="fill: #0366d6; stroke: #ffffff; stroke-width: 1.5"/>
     <use xlink:href="#m0f38c3368a" x="556.106724" y="49.493817" style="fill: #0366d6; stroke: #ffffff; stroke-width: 1.5"/>
     <use xlink:href="#m0f38c3368a" x="561.224842" y="49.493817" style="fill: #0366d6; stroke: #ffffff; stroke-width: 1.5"/>
     <use xlink:href="#m0f38c3368a" x="566.342959" y="49.493817" style="fill: #0366d6; stroke: #ffffff; stroke-width: 1.5"/>
     <use xlink:href="#m0f38c3368a" x="571.461077" y="49.493817" style="fill: #0366d6; stroke: #ffffff; stroke-width: 1.5"/>
     <use xlink:href="#m0f38c3368a" x="576.579195" y="49.493817" style="fill: #0366d6; stroke: #ffffff; stroke-width: 1.5"/>
     <use xlink:href="#m0f38c3368a" x="581.697313" y="49.493817" style="fill: #0366d6; stroke: #ffffff; stroke-width: 1.5"/>
     <use xlink:href="#m0f38c3368a" x="586.815431" y="49.493817" style="fill: #0366d6; stroke: #ffffff; stroke-width: 1.5"/>
     <use xlink:href="#m0f38c3368a" x="591.933548" y="49.493817" style="fill: #0366d6; stroke: #ffffff; stroke-width: 1.5"/>
     <use xlink:href="#m0f38c3368a" x="597.051666" y="49.493817" style="fill: #0366d6; stroke: #ffffff; stroke-width: 1.5"/>
     <use xlink:href="#m0f38c3368a" x="602.169784" y="48.130183" style="fill: #0366d6; stroke: #ffffff; stroke-width: 1.5"/>
     <use xlink:href="#m0f38c3368a" x="607.287902" y="46.766549" style="fill: #0366d6; stroke: #ffffff; stroke-width: 1.5"/>
     <use xlink:href="#m0f38c3368a" x="612.40602" y="46.766549" style="fill: #0366d6; stroke: #ffffff; stroke-width: 1.5"/>
     <use xlink:href="#m0f38c3368a" x="617.524137" y="46.766549" style="fill: #0366d6; stroke: #ffffff; stroke-width: 1.5"/>
     <use xlink:href="#m0f38c3368a" x="622.642255" y="46.766549" style="fill: #0366d6; stroke: #ffffff; stroke-width: 1.5"/>
     <use xlink:href="#m0f38c3368a" x="627.760373" y="46.766549" style="fill: #0366d6; stroke: #ffffff; stroke-width: 1.5"/>
     <use xlink:href="#m0f38c3368a" x="632.878491" y="46.766549" style="fill: #0366d6; stroke: #ffffff; stroke-width: 1.5"/>
     <use xlink:href="#m0f38c3368a" x="637.996609" y="46.766549" style="fill: #0366d6; stroke: #ffffff; stroke-width: 1.5"/>
     <use xlink:href="#m0f38c3368a" x="643.114726" y="46.766549" style="fill: #0366d6; stroke: #ffffff; stroke-width: 1.5"/>
     <use xlink:href="#m0f38c3368a" x="648.232844" y="46.766549" style="fill: #0366d6; stroke: #ffffff; stroke-width: 1.5"/>
     <use xlink:href="#m0f38c3368a" x="653.350962" y="46.766549" style="fill: #0366d6; stroke: #ffffff; stroke-width: 1.5"/>
     <use xlink:href="#m0f38c3368a" x="658.46908" y="46.766549" style="fill: #0366d6; stroke: #ffffff; stroke-width: 1.5"/>
     <use xlink:href="#m0f38c3368a" x="663.587198" y="46.766549" style="fill: #0366d6; stroke: #ffffff; stroke-width: 1.5"/>
     <use xlink:href="#m0f38c3368a" x="668.705315" y="46.766549" style="fill: #0366d6; stroke: #ffffff; stroke-width: 1.5"/>
     <use xlink:href="#m0f38c3368a" x="673.823433" y="46.766549" style="fill: #0366d6; stroke: #ffffff; stroke-width: 1.5"/>
     <use xlink:href="#m0f38c3368a" x="678.941551" y="46.766549" style="fill: #0366d6; stroke: #ffffff; stroke-width: 1.5"/>
     <use xlink:href="#m0f38c3368a" x="684.059669" y="46.766549" style="fill: #0366d6; stroke: #ffffff; stroke-width: 1.5"/>
     <use xlink:href="#m0f38c3368a" x="689.177786" y="46.766549" style="fill: #0366d6; stroke: #ffffff; stroke-width: 1.5"/>
     <use xlink:href="#m0f38c3368a" x="694.295904" y="46.766549" style="fill: #0366d6; stroke: #ffffff; stroke-width: 1.5"/>
     <use xlink:href="#m0f38c3368a" x="699.414022" y="46.766549" style="fill: #0366d6; stroke: #ffffff; stroke-width: 1.5"/>
     <use xlink:href="#m0f38c3368a" x="704.53214" y="46.766549" style="fill: #0366d6; stroke: #ffffff; stroke-width: 1.5"/>
     <use xlink:href="#m0f38c3368a" x="709.650258" y="46.766549" style="fill: #0366d6; stroke: #ffffff; stroke-width: 1.5"/>
     <use xlink:href="#m0f38c3368a" x="714.768375" y="46.766549" style="fill: #0366d6; stroke: #ffffff; stroke-width: 1.5"/>
     <use xlink:href="#m0f38c3368a" x="719.886493" y="46.766549" style="fill: #0366d6; stroke: #ffffff; stroke-width: 1.5"/>
     <use xlink:href="#m0f38c3368a" x="725.004611" y="46.766549" style="fill: #0366d6; stroke: #ffffff; stroke-width: 1.5"/>
     <use xlink:href="#m0f38c3368a" x="730.122729" y="46.766549" style="fill: #0366d6; stroke: #ffffff; stroke-width: 1.5"/>
     <use xlink:href="#m0f38c3368a" x="735.240847" y="45.402915" style="fill: #0366d6; stroke: #ffffff; stroke-width: 1.5"/>
     <use xlink:href="#m0f38c3368a" x="740.358964" y="45.402915" style="fill: #0366d6; stroke: #ffffff; stroke-width: 1.5"/>
     <use xlink:href="#m0f38c3368a" x="745.477082" y="44.039282" style="fill: #0366d6; stroke: #ffffff; stroke-width: 1.5"/>
     <use xlink:href="#m0f38c3368a" x="750.5952" y="42.675648" style="fill: #0366d6; stroke: #ffffff; stroke-width: 1.5"/>
     <use xlink:href="#m0f38c3368a" x="755.713318" y="42.675648" style="fill: #0366d6; stroke: #ffffff; stroke-width: 1.5"/>
     <use xlink:href="#m0f38c3368a" x="760.831436" y="42.675648" style="fill: #0366d6; stroke: #ffffff; stroke-width: 1.5"/>
     <use xlink:href="#m0f38c3368a" x="765.949553" y="42.675648" style="fill: #0366d6; stroke: #ffffff; stroke-width: 1.5"/>
     <use xlink:href="#m0f38c3368a" x="771.067671" y="41.312014" style="fill: #0366d6; stroke: #ffffff; stroke-width: 1.5"/>
     <use xlink:href="#m0f38c3368a" x="776.185789" y="41.312014" style="fill: #0366d6; stroke: #ffffff; stroke-width: 1.5"/>
     <use xlink:href="#m0f38c3368a" x="781.303907" y="39.948381" style="fill: #0366d6; stroke: #ffffff; stroke-width: 1.5"/>
     <use xlink:href="#m0f38c3368a" x="786.422025" y="39.948381" style="fill: #0366d6; stroke: #ffffff; stroke-width: 1.5"/>
     <use xlink:href="#m0f38c3368a" x="791.540142" y="39.948381" style="fill: #0366d6; stroke: #ffffff; stroke-width: 1.5"/>
     <use xlink:href="#m0f38c3368a" x="796.65826" y="39.948381" style="fill: #0366d6; stroke: #ffffff; stroke-width: 1.5"/>
     <use xlink:href="#m0f38c3368a" x="801.776378" y="39.948381" style="fill: #0366d6; stroke: #ffffff; stroke-width: 1.5"/>
     <use xlink:href="#m0f38c3368a" x="806.894496" y="39.948381" style="fill: #0366d6; stroke: #ffffff; stroke-width: 1.5"/>
     <use xlink:href="#m0f38c3368a" x="812.012614" y="39.948381" style="fill: #0366d6; stroke: #ffffff; stroke-width: 1.5"/>
    </g>
   </g>
   <g id="patch_3">
    <path d="M 48.90125 346.356873 
L 48.90125 25.3575 
" style="fill: none; stroke: #000000; stroke-width: 0.8; stroke-linejoin: miter; stroke-linecap: square"/>
   </g>
   <g id="patch_4">
    <path d="M 848.35125 346.356873 
L 848.35125 25.3575 
" style="fill: none; stroke: #000000; stroke-width: 0.8; stroke-linejoin: miter; stroke-linecap: square"/>
   </g>
   <g id="patch_5">
    <path d="M 48.90125 346.356873 
L 848.35125 346.356873 
" style="fill: none; stroke: #000000; stroke-width: 0.8; stroke-linejoin: miter; stroke-linecap: square"/>
   </g>
   <g id="patch_6">
    <path d="M 48.90125 25.3575 
L 848.35125 25.3575 
" style="fill: none; stroke: #000000; stroke-width: 0.8; stroke-linejoin: miter; stroke-linecap: square"/>
   </g>
   <g id="text_13">
    <g id="patch_7">
     <path d="M 669.9085 46.991237 
L 832.36225 46.991237 
Q 835.96225 46.991237 835.96225 43.391237 
L 835.96225 31.777487 
Q 835.96225 28.177487 832.36225 28.177487 
L 669.9085 28.177487 
Q 666.3085 28.177487 666.3085 31.777487 
L 666.3085 43.391237 
Q 666.3085 46.991237 669.9085 46.991237 
z
" style="fill: #ffffff; opacity: 0.8; stroke: #000000; stroke-linejoin: miter"/>
    </g>
    <!-- Current: 214 downloads -->
    <g transform="translate(669.9085 40.895612) scale(0.12 -0.12)">
     <defs>
      <path id="DejaVuSans-Bold-43" d="M 4288 256 
Q 3956 84 3597 -3 
Q 3238 -91 2847 -91 
Q 1681 -91 1000 561 
Q 319 1213 319 2328 
Q 319 3447 1000 4098 
Q 1681 4750 2847 4750 
Q 3238 4750 3597 4662 
Q 3956 4575 4288 4403 
L 4288 3438 
Q 3953 3666 3628 3772 
Q 3303 3878 2944 3878 
Q 2300 3878 1931 3465 
Q 1563 3053 1563 2328 
Q 1563 1606 1931 1193 
Q 2300 781 2944 781 
Q 3303 781 3628 887 
Q 3953 994 4288 1222 
L 4288 256 
z
" transform="scale(0.015625)"/>
      <path id="DejaVuSans-Bold-75" d="M 500 1363 
L 500 3500 
L 1625 3500 
L 1625 3150 
Q 1625 2866 1622 2436 
Q 1619 2006 1619 1863 
Q 1619 1441 1641 1255 
Q 1663 1069 1716 984 
Q 1784 875 1895 815 
Q 2006 756 2150 756 
Q 2500 756 2700 1025 
Q 2900 1294 2900 1772 
L 2900 3500 
L 4019 3500 
L 4019 0 
L 2900 0 
L 2900 506 
Q 2647 200 2364 54 
Q 2081 -91 1741 -91 
Q 1134 -91 817 281 
Q 500 653 500 1363 
z
" transform="scale(0.015625)"/>
      <path id="DejaVuSans-Bold-72" d="M 3138 2547 
Q 2991 2616 2845 2648 
Q 2700 2681 2553 2681 
Q 2122 2681 1889 2404 
Q 1656 2128 1656 1613 
L 1656 0 
L 538 0 
L 538 3500 
L 1656 3500 
L 1656 2925 
Q 1872 3269 2151 3426 
Q 2431 3584 2822 3584 
Q 2878 3584 2943 3579 
Q 3009 3575 3134 3559 
L 3138 2547 
z
" transform="scale(0.015625)"/>
      <path id="DejaVuSans-Bold-65" d="M 4031 1759 
L 4031 1441 
L 1416 1441 
Q 1456 1047 1700 850 
Q 1944 653 2381 653 
Q 2734 653 3104 758 
Q 3475 863 3866 1075 
L 3866 213 
Q 3469 63 3072 -14 
Q 2675 -91 2278 -91 
Q 1328 -91 801 392 
Q 275 875 275 1747 
Q 275 2603 792 3093 
Q 1309 3584 2216 3584 
Q 3041 3584 3536 3087 
Q 4031 2591 4031 1759 
z
M 2881 2131 
Q 2881 2450 2695 2645 
Q 2509 2841 2209 2841 
Q 1884 2841 1681 2658 
Q 1478 2475 1428 2131 
L 2881 2131 
z
" transform="scale(0.015625)"/>
      <path id="DejaVuSans-Bold-6e" d="M 4056 2131 
L 4056 0 
L 2931 0 
L 2931 347 
L 2931 1631 
Q 2931 2084 2911 2256 
Q 2891 2428 2841 2509 
Q 2775 2619 2662 2680 
Q 2550 2741 2406 2741 
Q 2056 2741 1856 2470 
Q 1656 2200 1656 1722 
L 1656 0 
L 538 0 
L 538 3500 
L 1656 3500 
L 1656 2988 
Q 1909 3294 2193 3439 
Q 2478 3584 2822 3584 
Q 3428 3584 3742 3212 
Q 4056 2841 4056 2131 
z
" transform="scale(0.015625)"/>
      <path id="DejaVuSans-Bold-74" d="M 1759 4494 
L 1759 3500 
L 2913 3500 
L 2913 2700 
L 1759 2700 
L 1759 1216 
Q 1759 972 1856 886 
Q 1953 800 2241 800 
L 2816 800 
L 2816 0 
L 1856 0 
Q 1194 0 917 276 
Q 641 553 641 1216 
L 641 2700 
L 84 2700 
L 84 3500 
L 641 3500 
L 641 4494 
L 1759 4494 
z
" transform="scale(0.015625)"/>
      <path id="DejaVuSans-Bold-3a" d="M 716 3500 
L 1844 3500 
L 1844 2291 
L 716 2291 
L 716 3500 
z
M 716 1209 
L 1844 1209 
L 1844 0 
L 716 0 
L 716 1209 
z
" transform="scale(0.015625)"/>
      <path id="DejaVuSans-Bold-20" transform="scale(0.015625)"/>
      <path id="DejaVuSans-Bold-32" d="M 1844 884 
L 3897 884 
L 3897 0 
L 506 0 
L 506 884 
L 2209 2388 
Q 2438 2594 2547 2791 
Q 2656 2988 2656 3200 
Q 2656 3528 2436 3728 
Q 2216 3928 1850 3928 
Q 1569 3928 1234 3808 
Q 900 3688 519 3450 
L 519 4475 
Q 925 4609 1322 4679 
Q 1719 4750 2100 4750 
Q 2938 4750 3402 4381 
Q 3866 4013 3866 3353 
Q 3866 2972 3669 2642 
Q 3472 2313 2841 1759 
L 1844 884 
z
" transform="scale(0.015625)"/>
      <path id="DejaVuSans-Bold-31" d="M 750 831 
L 1813 831 
L 1813 3847 
L 722 3622 
L 722 4441 
L 1806 4666 
L 2950 4666 
L 2950 831 
L 4013 831 
L 4013 0 
L 750 0 
L 750 831 
z
" transform="scale(0.015625)"/>
      <path id="DejaVuSans-Bold-34" d="M 2356 3675 
L 1038 1722 
L 2356 1722 
L 2356 3675 
z
M 2156 4666 
L 3494 4666 
L 3494 1722 
L 4159 1722 
L 4159 850 
L 3494 850 
L 3494 0 
L 2356 0 
L 2356 850 
L 288 850 
L 288 1881 
L 2156 4666 
z
" transform="scale(0.015625)"/>
      <path id="DejaVuSans-Bold-64" d="M 2919 2988 
L 2919 4863 
L 4044 4863 
L 4044 0 
L 2919 0 
L 2919 506 
Q 2688 197 2409 53 
Q 2131 -91 1766 -91 
Q 1119 -91 703 423 
Q 288 938 288 1747 
Q 288 2556 703 3070 
Q 1119 3584 1766 3584 
Q 2128 3584 2408 3439 
Q 2688 3294 2919 2988 
z
M 2181 722 
Q 2541 722 2730 984 
Q 2919 1247 2919 1747 
Q 2919 2247 2730 2509 
Q 2541 2772 2181 2772 
Q 1825 2772 1636 2509 
Q 1447 2247 1447 1747 
Q 1447 1247 1636 984 
Q 1825 722 2181 722 
z
" transform="scale(0.015625)"/>
      <path id="DejaVuSans-Bold-6f" d="M 2203 2784 
Q 1831 2784 1636 2517 
Q 1441 2250 1441 1747 
Q 1441 1244 1636 976 
Q 1831 709 2203 709 
Q 2569 709 2762 976 
Q 2956 1244 2956 1747 
Q 2956 2250 2762 2517 
Q 2569 2784 2203 2784 
z
M 2203 3584 
Q 3106 3584 3614 3096 
Q 4122 2609 4122 1747 
Q 4122 884 3614 396 
Q 3106 -91 2203 -91 
Q 1297 -91 786 396 
Q 275 884 275 1747 
Q 275 2609 786 3096 
Q 1297 3584 2203 3584 
z
" transform="scale(0.015625)"/>
      <path id="DejaVuSans-Bold-77" d="M 225 3500 
L 1313 3500 
L 1900 1088 
L 2491 3500 
L 3425 3500 
L 4013 1113 
L 4603 3500 
L 5691 3500 
L 4769 0 
L 3547 0 
L 2956 2406 
L 2369 0 
L 1147 0 
L 225 3500 
z
" transform="scale(0.015625)"/>
      <path id="DejaVuSans-Bold-6c" d="M 538 4863 
L 1656 4863 
L 1656 0 
L 538 0 
L 538 4863 
z
" transform="scale(0.015625)"/>
      <path id="DejaVuSans-Bold-61" d="M 2106 1575 
Q 1756 1575 1579 1456 
Q 1403 1338 1403 1106 
Q 1403 894 1545 773 
Q 1688 653 1941 653 
Q 2256 653 2472 879 
Q 2688 1106 2688 1447 
L 2688 1575 
L 2106 1575 
z
M 3816 1997 
L 3816 0 
L 2688 0 
L 2688 519 
Q 2463 200 2181 54 
Q 1900 -91 1497 -91 
Q 953 -91 614 226 
Q 275 544 275 1050 
Q 275 1666 698 1953 
Q 1122 2241 2028 2241 
L 2688 2241 
L 2688 2328 
Q 2688 2594 2478 2717 
Q 2269 2841 1825 2841 
Q 1466 2841 1156 2769 
Q 847 2697 581 2553 
L 581 3406 
Q 941 3494 1303 3539 
Q 1666 3584 2028 3584 
Q 2975 3584 3395 3211 
Q 3816 2838 3816 1997 
z
" transform="scale(0.015625)"/>
      <path id="DejaVuSans-Bold-73" d="M 3272 3391 
L 3272 2541 
Q 2913 2691 2578 2766 
Q 2244 2841 1947 2841 
Q 1628 2841 1473 2761 
Q 1319 2681 1319 2516 
Q 1319 2381 1436 2309 
Q 1553 2238 1856 2203 
L 2053 2175 
Q 2913 2066 3209 1816 
Q 3506 1566 3506 1031 
Q 3506 472 3093 190 
Q 2681 -91 1863 -91 
Q 1516 -91 1145 -36 
Q 775 19 384 128 
L 384 978 
Q 719 816 1070 734 
Q 1422 653 1784 653 
Q 2113 653 2278 743 
Q 2444 834 2444 1013 
Q 2444 1163 2330 1236 
Q 2216 1309 1875 1350 
L 1678 1375 
Q 931 1469 631 1722 
Q 331 1975 331 2491 
Q 331 3047 712 3315 
Q 1094 3584 1881 3584 
Q 2191 3584 2531 3537 
Q 2872 3491 3272 3391 
z
" transform="scale(0.015625)"/>
     </defs>
     <use xlink:href="#DejaVuSans-Bold-43"/>
     <use xlink:href="#DejaVuSans-Bold-75" transform="translate(73.388672 0)"/>
     <use xlink:href="#DejaVuSans-Bold-72" transform="translate(144.580078 0)"/>
     <use xlink:href="#DejaVuSans-Bold-72" transform="translate(193.896484 0)"/>
     <use xlink:href="#DejaVuSans-Bold-65" transform="translate(243.212891 0)"/>
     <use xlink:href="#DejaVuSans-Bold-6e" transform="translate(311.035156 0)"/>
     <use xlink:href="#DejaVuSans-Bold-74" transform="translate(382.226562 0)"/>
     <use xlink:href="#DejaVuSans-Bold-3a" transform="translate(430.029297 0)"/>
     <use xlink:href="#DejaVuSans-Bold-20" transform="translate(470.019531 0)"/>
     <use xlink:href="#DejaVuSans-Bold-32" transform="translate(504.833984 0)"/>
     <use xlink:href="#DejaVuSans-Bold-31" transform="translate(574.414062 0)"/>
     <use xlink:href="#DejaVuSans-Bold-34" transform="translate(643.994141 0)"/>
     <use xlink:href="#DejaVuSans-Bold-20" transform="translate(713.574219 0)"/>
     <use xlink:href="#DejaVuSans-Bold-64" transform="translate(748.388672 0)"/>
     <use xlink:href="#DejaVuSans-Bold-6f" transform="translate(819.970703 0)"/>
     <use xlink:href="#DejaVuSans-Bold-77" transform="translate(888.671875 0)"/>
     <use xlink:href="#DejaVuSans-Bold-6e" transform="translate(981.054688 0)"/>
     <use xlink:href="#DejaVuSans-Bold-6c" transform="translate(1052.246094 0)"/>
     <use xlink:href="#DejaVuSans-Bold-6f" transform="translate(1086.523438 0)"/>
     <use xlink:href="#DejaVuSans-Bold-61" transform="translate(1155.224609 0)"/>
     <use xlink:href="#DejaVuSans-Bold-64" transform="translate(1222.705078 0)"/>
     <use xlink:href="#DejaVuSans-Bold-73" transform="translate(1294.287109 0)"/>
    </g>
   </g>
   <g id="text_14">
    <!-- FleetDM-PowerShell - PowerShell Gallery Downloads -->
    <g transform="translate(210.995 19.3575) scale(0.16 -0.16)">
     <defs>
      <path id="DejaVuSans-Bold-46" d="M 588 4666 
L 3834 4666 
L 3834 3756 
L 1791 3756 
L 1791 2888 
L 3713 2888 
L 3713 1978 
L 1791 1978 
L 1791 0 
L 588 0 
L 588 4666 
z
" transform="scale(0.015625)"/>
      <path id="DejaVuSans-Bold-44" d="M 1791 3756 
L 1791 909 
L 2222 909 
Q 2959 909 3348 1275 
Q 3738 1641 3738 2338 
Q 3738 3031 3350 3393 
Q 2963 3756 2222 3756 
L 1791 3756 
z
M 588 4666 
L 1856 4666 
Q 2919 4666 3439 4514 
Q 3959 4363 4331 4000 
Q 4659 3684 4818 3271 
Q 4978 2859 4978 2338 
Q 4978 1809 4818 1395 
Q 4659 981 4331 666 
Q 3956 303 3431 151 
Q 2906 0 1856 0 
L 588 0 
L 588 4666 
z
" transform="scale(0.015625)"/>
      <path id="DejaVuSans-Bold-4d" d="M 588 4666 
L 2119 4666 
L 3181 2169 
L 4250 4666 
L 5778 4666 
L 5778 0 
L 4641 0 
L 4641 3413 
L 3566 897 
L 2803 897 
L 1728 3413 
L 1728 0 
L 588 0 
L 588 4666 
z
" transform="scale(0.015625)"/>
      <path id="DejaVuSans-Bold-2d" d="M 347 2297 
L 2309 2297 
L 2309 1388 
L 347 1388 
L 347 2297 
z
" transform="scale(0.015625)"/>
      <path id="DejaVuSans-Bold-50" d="M 588 4666 
L 2584 4666 
Q 3475 4666 3951 4270 
Q 4428 3875 4428 3144 
Q 4428 2409 3951 2014 
Q 3475 1619 2584 1619 
L 1791 1619 
L 1791 0 
L 588 0 
L 588 4666 
z
M 1791 3794 
L 1791 2491 
L 2456 2491 
Q 2806 2491 2997 2661 
Q 3188 2831 3188 3144 
Q 3188 3456 2997 3625 
Q 2806 3794 2456 3794 
L 1791 3794 
z
" transform="scale(0.015625)"/>
      <path id="DejaVuSans-Bold-53" d="M 3834 4519 
L 3834 3531 
Q 3450 3703 3084 3790 
Q 2719 3878 2394 3878 
Q 1963 3878 1756 3759 
Q 1550 3641 1550 3391 
Q 1550 3203 1689 3098 
Q 1828 2994 2194 2919 
L 2706 2816 
Q 3484 2659 3812 2340 
Q 4141 2022 4141 1434 
Q 4141 663 3683 286 
Q 3225 -91 2284 -91 
Q 1841 -91 1394 -6 
Q 947 78 500 244 
L 500 1259 
Q 947 1022 1364 901 
Q 1781 781 2169 781 
Q 2563 781 2772 912 
Q 2981 1044 2981 1288 
Q 2981 1506 2839 1625 
Q 2697 1744 2272 1838 
L 1806 1941 
Q 1106 2091 782 2419 
Q 459 2747 459 3303 
Q 459 4000 909 4375 
Q 1359 4750 2203 4750 
Q 2588 4750 2994 4692 
Q 3400 4634 3834 4519 
z
" transform="scale(0.015625)"/>
      <path id="DejaVuSans-Bold-68" d="M 4056 2131 
L 4056 0 
L 2931 0 
L 2931 347 
L 2931 1625 
Q 2931 2084 2911 2256 
Q 2891 2428 2841 2509 
Q 2775 2619 2662 2680 
Q 2550 2741 2406 2741 
Q 2056 2741 1856 2470 
Q 1656 2200 1656 1722 
L 1656 0 
L 538 0 
L 538 4863 
L 1656 4863 
L 1656 2988 
Q 1909 3294 2193 3439 
Q 2478 3584 2822 3584 
Q 3428 3584 3742 3212 
Q 4056 2841 4056 2131 
z
" transform="scale(0.015625)"/>
      <path id="DejaVuSans-Bold-47" d="M 4781 347 
Q 4331 128 3847 18 
Q 3363 -91 2847 -91 
Q 1681 -91 1000 561 
Q 319 1213 319 2328 
Q 319 3456 1012 4103 
Q 1706 4750 2913 4750 
Q 3378 4750 3804 4662 
Q 4231 4575 4609 4403 
L 4609 3438 
Q 4219 3659 3833 3768 
Q 3447 3878 3059 3878 
Q 2341 3878 1952 3476 
Q 1563 3075 1563 2328 
Q 1563 1588 1938 1184 
Q 2313 781 3003 781 
Q 3191 781 3352 804 
Q 3513 828 3641 878 
L 3641 1784 
L 2906 1784 
L 2906 2591 
L 4781 2591 
L 4781 347 
z
" transform="scale(0.015625)"/>
      <path id="DejaVuSans-Bold-79" d="M 78 3500 
L 1197 3500 
L 2138 1125 
L 2938 3500 
L 4056 3500 
L 2584 -331 
Q 2363 -916 2067 -1148 
Q 1772 -1381 1288 -1381 
L 641 -1381 
L 641 -647 
L 991 -647 
Q 1275 -647 1404 -556 
Q 1534 -466 1606 -231 
L 1638 -134 
L 78 3500 
z
" transform="scale(0.015625)"/>
     </defs>
     <use xlink:href="#DejaVuSans-Bold-46"/>
     <use xlink:href="#DejaVuSans-Bold-6c" transform="translate(68.310547 0)"/>
     <use xlink:href="#DejaVuSans-Bold-65" transform="translate(102.587891 0)"/>
     <use xlink:href="#DejaVuSans-Bold-65" transform="translate(170.410156 0)"/>
     <use xlink:href="#DejaVuSans-Bold-74" transform="translate(238.232422 0)"/>
     <use xlink:href="#DejaVuSans-Bold-44" transform="translate(286.035156 0)"/>
     <use xlink:href="#DejaVuSans-Bold-4d" transform="translate(369.042969 0)"/>
     <use xlink:href="#DejaVuSans-Bold-2d" transform="translate(468.554688 0)"/>
     <use xlink:href="#DejaVuSans-Bold-50" transform="translate(510.058594 0)"/>
     <use xlink:href="#DejaVuSans-Bold-6f" transform="translate(583.349609 0)"/>
     <use xlink:href="#DejaVuSans-Bold-77" transform="translate(652.050781 0)"/>
     <use xlink:href="#DejaVuSans-Bold-65" transform="translate(744.433594 0)"/>
     <use xlink:href="#DejaVuSans-Bold-72" transform="translate(812.255859 0)"/>
     <use xlink:href="#DejaVuSans-Bold-53" transform="translate(861.572266 0)"/>
     <use xlink:href="#DejaVuSans-Bold-68" transform="translate(933.59375 0)"/>
     <use xlink:href="#DejaVuSans-Bold-65" transform="translate(1004.785156 0)"/>
     <use xlink:href="#DejaVuSans-Bold-6c" transform="translate(1072.607422 0)"/>
     <use xlink:href="#DejaVuSans-Bold-6c" transform="translate(1106.884766 0)"/>
     <use xlink:href="#DejaVuSans-Bold-20" transform="translate(1141.162109 0)"/>
     <use xlink:href="#DejaVuSans-Bold-2d" transform="translate(1175.976562 0)"/>
     <use xlink:href="#DejaVuSans-Bold-20" transform="translate(1217.480469 0)"/>
     <use xlink:href="#DejaVuSans-Bold-50" transform="translate(1252.294922 0)"/>
     <use xlink:href="#DejaVuSans-Bold-6f" transform="translate(1325.585938 0)"/>
     <use xlink:href="#DejaVuSans-Bold-77" transform="translate(1394.287109 0)"/>
     <use xlink:href="#DejaVuSans-Bold-65" transform="translate(1486.669922 0)"/>
     <use xlink:href="#DejaVuSans-Bold-72" transform="translate(1554.492188 0)"/>
     <use xlink:href="#DejaVuSans-Bold-53" transform="translate(1603.808594 0)"/>
     <use xlink:href="#DejaVuSans-Bold-68" transform="translate(1675.830078 0)"/>
     <use xlink:href="#DejaVuSans-Bold-65" transform="translate(1747.021484 0)"/>
     <use xlink:href="#DejaVuSans-Bold-6c" transform="translate(1814.84375 0)"/>
     <use xlink:href="#DejaVuSans-Bold-6c" transform="translate(1849.121094 0)"/>
     <use xlink:href="#DejaVuSans-Bold-20" transform="translate(1883.398438 0)"/>
     <use xlink:href="#DejaVuSans-Bold-47" transform="translate(1918.212891 0)"/>
     <use xlink:href="#DejaVuSans-Bold-61" transform="translate(2000.292969 0)"/>
     <use xlink:href="#DejaVuSans-Bold-6c" transform="translate(2067.773438 0)"/>
     <use xlink:href="#DejaVuSans-Bold-6c" transform="translate(2102.050781 0)"/>
     <use xlink:href="#DejaVuSans-Bold-65" transform="translate(2136.328125 0)"/>
     <use xlink:href="#DejaVuSans-Bold-72" transform="translate(2204.150391 0)"/>
     <use xlink:href="#DejaVuSans-Bold-79" transform="translate(2253.466797 0)"/>
     <use xlink:href="#DejaVuSans-Bold-20" transform="translate(2318.652344 0)"/>
     <use xlink:href="#DejaVuSans-Bold-44" transform="translate(2353.466797 0)"/>
     <use xlink:href="#DejaVuSans-Bold-6f" transform="translate(2436.474609 0)"/>
     <use xlink:href="#DejaVuSans-Bold-77" transform="translate(2505.175781 0)"/>
     <use xlink:href="#DejaVuSans-Bold-6e" transform="translate(2597.558594 0)"/>
     <use xlink:href="#DejaVuSans-Bold-6c" transform="translate(2668.75 0)"/>
     <use xlink:href="#DejaVuSans-Bold-6f" transform="translate(2703.027344 0)"/>
     <use xlink:href="#DejaVuSans-Bold-61" transform="translate(2771.728516 0)"/>
     <use xlink:href="#DejaVuSans-Bold-64" transform="translate(2839.208984 0)"/>
     <use xlink:href="#DejaVuSans-Bold-73" transform="translate(2910.791016 0)"/>
    </g>
   </g>
  </g>
 </g>
 <defs>
  <clipPath id="p20f65b06f8">
   <rect x="48.90125" y="25.3575" width="799.45" height="320.999373"/>
  </clipPath>
 </defs>
</svg>
